<?xml version="1.0" encoding="utf-8"?>
<!-- Generator: Adobe Illustrator 15.0.0, SVG Export Plug-In . SVG Version: 6.00 Build 0)  -->
<!DOCTYPE svg PUBLIC "-//W3C//DTD SVG 1.1//EN" "http://www.w3.org/Graphics/SVG/1.1/DTD/svg11.dtd">
<svg version="1.1" id="Layer_1" xmlns="http://www.w3.org/2000/svg" xmlns:xlink="http://www.w3.org/1999/xlink" x="0px" y="0px"
	 width="98px" height="150.733px" viewBox="0 0 98 150.733" enable-background="new 0 0 98 150.733" xml:space="preserve">
<g>
	<g opacity="0.5">
		<g>
			<defs>
				
					<rect id="SVGID_1_" x="33.256" y="126.905" transform="matrix(-0.9989 -0.0468 0.0468 -0.9989 82.2388 268.1205)" width="22.007" height="12.385"/>
			</defs>
			<clipPath id="SVGID_2_">
				<use xlink:href="#SVGID_1_"  overflow="visible"/>
			</clipPath>
			<polygon clip-path="url(#SVGID_2_)" fill="#9D7E64" points="54.53,136.184 52.825,135.515 51.067,136.02 49.365,135.354 
				47.609,135.859 45.909,135.192 44.151,135.697 42.45,135.031 40.692,135.536 38.993,134.868 37.236,135.376 35.536,134.708 
				33.78,135.213 33.155,134.972 33.141,135.28 33.765,135.518 35.521,135.018 37.223,135.679 38.978,135.178 40.678,135.841 
				42.436,135.34 44.137,136.003 45.895,135.503 47.594,136.164 49.351,135.663 51.053,136.325 52.809,135.825 54.515,136.486 
				55.124,136.318 55.14,136.005 			"/>
			<polygon clip-path="url(#SVGID_2_)" fill="#9D7E64" points="54.568,135.359 52.862,134.7 51.105,135.198 49.405,134.538 
				47.648,135.036 45.947,134.377 44.19,134.875 42.488,134.216 40.731,134.712 39.03,134.055 37.276,134.552 35.572,133.89 
				33.817,134.392 33.194,134.149 33.179,134.456 33.802,134.703 35.559,134.194 37.261,134.865 39.017,134.357 40.715,135.026 
				42.475,134.518 44.174,135.188 45.933,134.681 47.633,135.35 49.391,134.842 51.091,135.511 52.848,135.001 54.555,135.674 
				55.163,135.496 55.177,135.191 			"/>
			<polygon clip-path="url(#SVGID_2_)" fill="#9D7E64" points="54.492,137.003 52.787,136.335 51.027,136.841 49.328,136.174 
				47.571,136.679 45.871,136.012 44.113,136.518 42.412,135.849 40.654,136.355 38.954,135.688 37.198,136.192 35.497,135.527 
				33.742,136.032 33.115,135.793 33.103,136.096 33.727,136.338 35.482,135.838 37.185,136.498 38.94,135.998 40.64,136.66 
				42.397,136.16 44.099,136.822 45.857,136.322 47.557,136.984 49.313,136.481 51.014,137.146 52.771,136.645 54.477,137.309 
				55.085,137.135 55.1,136.829 			"/>
			<polygon clip-path="url(#SVGID_2_)" fill="#9D7E64" points="54.606,134.543 52.902,133.879 51.143,134.384 49.443,133.717 
				47.687,134.221 45.986,133.553 44.228,134.06 42.527,133.392 40.769,133.897 39.068,133.229 37.314,133.735 35.612,133.068 
				33.854,133.573 33.231,133.325 33.216,133.638 33.841,133.879 35.597,133.379 37.3,134.04 39.054,133.539 40.756,134.202 
				42.512,133.7 44.213,134.363 45.971,133.862 47.672,134.527 49.429,134.023 51.128,134.688 52.887,134.187 54.592,134.851 
				55.202,134.677 55.215,134.369 			"/>
			<polygon clip-path="url(#SVGID_2_)" fill="#9D7E64" points="54.971,139.596 54.985,139.288 54.377,139.463 52.671,138.799 
				50.916,139.303 49.212,138.638 47.457,139.142 45.754,138.473 43.996,138.979 42.297,138.312 40.54,138.816 38.84,138.15 
				37.084,138.656 35.381,137.988 33.625,138.493 33.003,138.251 32.989,138.558 33.61,138.799 35.368,138.295 37.07,138.961 
				38.827,138.457 40.525,139.122 42.282,138.618 43.982,139.283 45.74,138.78 47.441,139.449 49.198,138.941 50.9,139.609 
				52.656,139.104 54.362,139.771 			"/>
			<polygon clip-path="url(#SVGID_2_)" fill="#9D7E64" points="54.416,138.64 52.709,137.979 50.953,138.479 49.252,137.816 
				47.495,138.318 45.793,137.655 44.037,138.156 42.334,137.494 40.577,137.996 38.877,137.329 37.122,137.832 35.42,137.168 
				33.664,137.671 33.04,137.431 33.025,137.739 33.649,137.979 35.406,137.475 37.108,138.141 38.862,137.637 40.562,138.306 
				42.32,137.798 44.021,138.466 45.779,137.961 47.48,138.628 49.237,138.122 50.938,138.789 52.696,138.282 54.4,138.95 
				55.009,138.773 55.023,138.471 			"/>
			<polygon clip-path="url(#SVGID_2_)" fill="#9D7E64" points="54.453,137.824 52.747,137.154 50.991,137.664 49.29,136.992 
				47.533,137.501 45.832,136.831 44.075,137.339 42.374,136.67 40.616,137.178 38.915,136.508 37.16,137.017 35.458,136.347 
				33.701,136.856 33.079,136.609 33.063,136.918 33.688,137.157 35.444,136.655 37.146,137.318 38.9,136.818 40.602,137.48 
				42.358,136.979 44.061,137.642 45.819,137.141 47.519,137.804 49.275,137.302 50.975,137.964 52.733,137.463 54.439,138.128 
				55.048,137.96 55.062,137.649 			"/>
			<polygon clip-path="url(#SVGID_2_)" fill="#9D7E64" points="54.913,127.984 53.208,127.316 51.449,127.823 49.75,127.155 
				47.993,127.661 46.293,126.993 44.534,127.498 42.833,126.832 41.077,127.337 39.376,126.671 37.62,127.177 35.918,126.51 
				34.163,127.015 33.538,126.77 33.523,127.081 34.149,127.319 35.903,126.817 37.607,127.482 39.362,126.981 41.062,127.643 
				42.818,127.143 44.521,127.804 46.277,127.304 47.978,127.966 49.735,127.464 51.436,128.13 53.193,127.626 54.898,128.291 
				55.507,128.116 55.522,127.811 			"/>
			<polygon clip-path="url(#SVGID_2_)" fill="#9D7E64" points="54.798,130.442 53.092,129.78 51.335,130.281 49.634,129.618 
				47.877,130.119 46.177,129.457 44.419,129.956 42.718,129.295 40.961,129.797 39.261,129.134 37.504,129.636 35.803,128.973 
				34.048,129.474 33.422,129.228 33.407,129.539 34.033,129.783 35.79,129.275 37.491,129.944 39.247,129.439 40.946,130.106 
				42.705,129.601 44.406,130.268 46.163,129.762 47.863,130.429 49.62,129.924 51.321,130.591 53.078,130.085 54.784,130.754 
				55.393,130.576 55.408,130.267 			"/>
			<polygon clip-path="url(#SVGID_2_)" fill="#9D7E64" points="54.836,129.622 53.131,128.957 51.373,129.462 49.673,128.796 
				47.915,129.301 46.215,128.632 44.459,129.141 42.758,128.472 40.999,128.977 39.299,128.31 37.544,128.815 35.841,128.148 
				34.085,128.654 33.462,128.41 33.448,128.723 34.07,128.958 35.827,128.459 37.529,129.12 39.284,128.619 40.984,129.282 
				42.743,128.78 44.443,129.442 46.201,128.941 47.903,129.606 49.658,129.104 51.359,129.767 53.117,129.267 54.823,129.929 
				55.432,129.76 55.444,129.45 			"/>
			<polygon clip-path="url(#SVGID_2_)" fill="#9D7E64" points="54.874,128.805 53.17,128.141 51.411,128.642 49.712,127.979 
				47.955,128.48 46.254,127.819 44.497,128.32 42.795,127.658 41.038,128.157 39.336,127.494 37.582,127.996 35.88,127.334 
				34.123,127.834 33.5,127.59 33.485,127.897 34.108,128.145 35.866,127.64 37.566,128.304 39.322,127.8 41.024,128.469 
				42.78,127.96 44.481,128.629 46.24,128.123 47.94,128.79 49.697,128.284 51.397,128.951 53.155,128.446 54.861,129.114 
				55.47,128.936 55.484,128.628 			"/>
			<polygon clip-path="url(#SVGID_2_)" fill="#9D7E64" points="54.683,132.905 52.978,132.234 51.22,132.744 49.521,132.071 
				47.763,132.58 46.062,131.911 44.305,132.42 42.603,131.749 40.846,132.258 39.146,131.588 37.391,132.096 35.688,131.427 
				33.933,131.935 33.309,131.686 33.293,131.997 33.918,132.24 35.674,131.739 37.376,132.401 39.131,131.9 40.831,132.563 
				42.589,132.063 44.29,132.727 46.047,132.225 47.748,132.887 49.505,132.386 51.206,133.048 52.963,132.546 54.668,133.212 
				55.278,133.037 55.292,132.729 			"/>
			<polygon clip-path="url(#SVGID_2_)" fill="#9D7E64" points="54.645,133.725 52.939,133.058 51.181,133.562 49.481,132.896 
				47.724,133.4 46.025,132.735 44.266,133.239 42.564,132.573 40.808,133.078 39.108,132.409 37.352,132.916 35.65,132.249 
				33.895,132.754 33.27,132.51 33.255,132.817 33.88,133.059 35.635,132.555 37.338,133.22 39.093,132.716 40.793,133.385 
				42.551,132.878 44.252,133.546 46.01,133.041 47.709,133.707 49.467,133.202 51.167,133.869 52.925,133.363 54.63,134.03 
				55.238,133.856 55.253,133.551 			"/>
			<polygon clip-path="url(#SVGID_2_)" fill="#9D7E64" points="54.721,132.081 53.015,131.419 51.258,131.92 49.559,131.259 
				47.802,131.76 46.101,131.093 44.343,131.598 42.642,130.933 40.884,131.435 39.184,130.772 37.429,131.273 35.726,130.61 
				33.97,131.112 33.347,130.87 33.332,131.18 33.956,131.421 35.712,130.918 37.414,131.582 39.168,131.078 40.869,131.742 
				42.627,131.239 44.329,131.906 46.086,131.399 47.787,132.067 49.544,131.562 51.243,132.229 53.001,131.724 54.708,132.392 
				55.316,132.218 55.33,131.912 			"/>
			<polygon clip-path="url(#SVGID_2_)" fill="#9D7E64" points="54.759,131.263 53.054,130.595 51.295,131.1 49.596,130.433 
				47.839,130.939 46.14,130.271 44.381,130.776 42.681,130.11 40.922,130.615 39.223,129.947 37.467,130.456 35.765,129.787 
				34.01,130.292 33.384,130.048 33.37,130.36 33.996,130.596 35.75,130.097 37.454,130.759 39.208,130.259 40.909,130.921 
				42.667,130.419 44.367,131.082 46.125,130.583 47.825,131.245 49.582,130.744 51.283,131.405 53.04,130.905 54.745,131.566 
				55.354,131.397 55.368,131.092 			"/>
		</g>
	</g>
	
		<line fill="none" stroke="#7F7F7F" stroke-width="0.224" stroke-miterlimit="10" x1="32.235" y1="101.989" x2="36.344" y2="114.263"/>
	
		<line fill="none" stroke="#7F7F7F" stroke-width="0.224" stroke-miterlimit="10" x1="34.973" y1="102.116" x2="37.259" y2="114.305"/>
	
		<line fill="none" stroke="#7F7F7F" stroke-width="0.224" stroke-miterlimit="10" x1="37.258" y1="114.305" x2="34.906" y2="125.46"/>
	
		<line fill="none" stroke="#7F7F7F" stroke-width="0.224" stroke-miterlimit="10" x1="36.344" y1="114.263" x2="33.993" y2="125.419"/>
	
		<line fill="none" stroke="#7F7F7F" stroke-width="0.224" stroke-miterlimit="10" x1="59.483" y1="103.263" x2="54.242" y2="115.099"/>
	
		<line fill="none" stroke="#7F7F7F" stroke-width="0.224" stroke-miterlimit="10" x1="56.743" y1="103.133" x2="53.329" y2="115.058"/>
	
		<line fill="none" stroke="#7F7F7F" stroke-width="0.224" stroke-miterlimit="10" x1="53.331" y1="115.058" x2="54.633" y2="126.385"/>
	
		<line fill="none" stroke="#7F7F7F" stroke-width="0.224" stroke-miterlimit="10" x1="54.242" y1="115.099" x2="55.545" y2="126.426"/>
	<path fill="#DCBD99" d="M55.58,126.88l-0.632,13.518c-0.022,0.48-0.437,0.852-0.919,0.83l-20.231-0.947
		c-0.483-0.021-0.855-0.433-0.833-0.91l0.632-13.517L55.58,126.88z"/>
	<g>
		<g>
			<defs>
				
					<rect id="SVGID_3_" x="33.256" y="125.918" transform="matrix(-0.9989 -0.0472 0.0472 -0.9989 63.3071 267.7344)" width="3.122" height="14.401"/>
			</defs>
			<clipPath id="SVGID_4_">
				<use xlink:href="#SVGID_3_"  overflow="visible"/>
			</clipPath>
			<path clip-path="url(#SVGID_4_)" fill="#DCBD99" d="M35.202,139.477l0.632-13.52l-2.238-0.104l-0.632,13.517
				c-0.022,0.478,0.349,0.889,0.834,0.91l2.242,0.105C35.555,140.364,35.179,139.953,35.202,139.477"/>
		</g>
	</g>
	<path fill="#646B62" d="M56.428,126.468c-0.012,0.252-0.226,0.445-0.473,0.433l-22.762-1.064c-0.25-0.014-0.443-0.224-0.43-0.475
		c0.01-0.244,0.223-0.436,0.474-0.424l22.761,1.064C56.245,126.014,56.439,126.224,56.428,126.468"/>
	
		<rect x="35.502" y="113.987" transform="matrix(0.9989 0.0467 -0.0467 0.9989 5.4055 -1.984)" fill="#7F7F7F" width="19.268" height="1.271"/>
	<polygon fill="#7F7F7F" points="40.15,110.145 40.418,113.769 44.314,113.947 44.823,110.362 	"/>
	<polygon fill="#7F7F7F" points="45.605,110.4 45.871,114.021 49.765,114.202 50.278,110.617 	"/>
	<polygon fill="#A6A4A5" points="40.15,110.145 40.418,113.769 40.979,113.792 40.711,110.171 	"/>
	<polygon fill="#A6A4A5" points="45.605,110.4 45.871,114.021 46.431,114.047 46.165,110.428 	"/>
	
		<rect x="40.359" y="115.126" transform="matrix(0.9989 0.0464 -0.0464 0.9989 5.4487 -1.8393)" fill="#444243" width="3.934" height="2.535"/>
	
		<rect x="40.613" y="115.127" transform="matrix(0.9989 0.0465 -0.0465 0.9989 5.4535 -1.8409)" fill="#444243" width="3.426" height="2.534"/>
	<g>
		<g>
			<defs>
				
					<rect id="SVGID_5_" x="41.175" y="115.116" transform="matrix(-0.9989 -0.0473 0.0473 -0.9989 78.6188 234.6249)" width="1.818" height="2.534"/>
			</defs>
			<clipPath id="SVGID_6_">
				<use xlink:href="#SVGID_5_"  overflow="visible"/>
			</clipPath>
			
				<rect x="41.175" y="115.119" transform="matrix(0.9989 0.0473 -0.0473 0.9989 5.5487 -1.8593)" clip-path="url(#SVGID_6_)" fill="#444243" width="1.818" height="2.531"/>
		</g>
	</g>
	<g>
		<g>
			<defs>
				
					<rect id="SVGID_7_" x="41.701" y="115.115" transform="matrix(-0.999 -0.0452 0.0452 -0.999 78.7516 234.5402)" width="0.649" height="2.531"/>
			</defs>
			<clipPath id="SVGID_8_">
				<use xlink:href="#SVGID_7_"  overflow="visible"/>
			</clipPath>
			
				<rect x="41.702" y="115.114" transform="matrix(0.999 0.0452 -0.0452 0.999 5.2996 -1.7795)" clip-path="url(#SVGID_8_)" fill="#444243" width="0.649" height="2.532"/>
		</g>
	</g>
	
		<rect x="45.812" y="115.382" transform="matrix(0.9989 0.0464 -0.0464 0.9989 5.4651 -2.0917)" fill="#444243" width="3.935" height="2.534"/>
	
		<rect x="46.066" y="115.382" transform="matrix(0.9989 0.047 -0.047 0.9989 5.5357 -2.1169)" fill="#444243" width="3.428" height="2.534"/>
	<g>
		<g>
			<defs>
				
					<rect id="SVGID_9_" x="46.627" y="115.373" transform="matrix(-0.9989 -0.0473 0.0473 -0.9989 89.5045 235.3931)" width="1.818" height="2.531"/>
			</defs>
			<clipPath id="SVGID_10_">
				<use xlink:href="#SVGID_9_"  overflow="visible"/>
			</clipPath>
			
				<rect x="46.628" y="115.374" transform="matrix(0.9989 0.0473 -0.0473 0.9989 5.5653 -2.1162)" clip-path="url(#SVGID_10_)" fill="#444243" width="1.818" height="2.53"/>
		</g>
	</g>
	<g>
		<g>
			<defs>
				
					<rect id="SVGID_11_" x="47.155" y="115.37" transform="matrix(-0.9991 -0.0421 0.0421 -0.9991 90.0081 235.166)" width="0.65" height="2.531"/>
			</defs>
			<clipPath id="SVGID_12_">
				<use xlink:href="#SVGID_11_"  overflow="visible"/>
			</clipPath>
			
				<rect x="47.154" y="115.368" transform="matrix(0.9991 0.0422 -0.0422 0.9991 4.9599 -1.8981)" clip-path="url(#SVGID_12_)" fill="#444243" width="0.649" height="2.533"/>
		</g>
	</g>
	<path fill="#7FBEF7" d="M32.75,98.997c-1.402-2.668-2.776-5.356-4.131-8.054c-4.135-8.259-8.085-16.666-11.621-25.316
		c-4.435-10.844-9.799-23.224-6.86-35.595c3.657-15.384,14.734-25.43,27.674-28.193c3.977-0.85,8.03-1.103,12.052-0.965h0.004
		c-4.844-0.186-9.718,0.028-14.501,0.851C19.976,4.373,6.867,14.324,2.647,29.681c-3.394,12.35,3.109,24.785,8.491,35.671
		c4.292,8.688,9.071,17.132,14.072,25.43c1.637,2.712,3.301,5.414,4.996,8.094c0.354,0.554,1.176,2.556,1.915,2.591l2.216,0.105
		C33.716,101.542,33.043,99.546,32.75,98.997"/>
	<g>
		<g>
			<defs>
				
					<rect id="SVGID_13_" x="7.269" y="-0.116" transform="matrix(-0.9989 -0.0467 0.0467 -0.9989 52.3689 102.3059)" width="40.222" height="101.314"/>
			</defs>
			<clipPath id="SVGID_14_">
				<use xlink:href="#SVGID_13_"  overflow="visible"/>
			</clipPath>
			<path clip-path="url(#SVGID_14_)" fill="#70CFF9" d="M37.778,1.844c3.98-0.85,8.03-1.104,12.054-0.965h0.003
				c-2.583-0.098-5.175-0.077-7.757,0.08c-1.897,0.157-3.788,0.42-5.663,0.821C23.476,4.544,12.399,14.588,8.745,29.969
				c-2.946,12.375,2.419,24.755,6.854,35.598c3.537,8.654,7.489,17.06,11.624,25.318c1.354,2.698,2.727,5.388,4.131,8.052
				c0.292,0.549,0.968,2.547,1.583,2.574l1.364,0.066c-0.619-0.029-1.293-2.027-1.584-2.575c-1.404-2.665-2.781-5.354-4.131-8.054
				c-4.136-8.258-8.085-16.663-11.625-25.318c-4.432-10.841-9.795-23.221-6.855-35.596C13.763,14.652,24.84,4.606,37.778,1.844"/>
		</g>
	</g>
	<path fill="#C7EDF9" d="M31.118,98.85c-1.402-2.664-2.777-5.349-4.132-8.053c-0.151-0.307-0.302-0.614-0.452-0.92
		c-4.801-7.998-9.391-16.143-13.525-24.506C7.628,54.483,1.128,42.05,4.522,29.696c3.595-13.1,13.667-22.26,26.102-26.314
		c1.801-0.716,3.66-1.286,5.559-1.689c0.53-0.113,1.065-0.214,1.6-0.308c-0.636,0.091-1.27,0.186-1.903,0.291
		C20.484,4.328,7.377,14.278,3.158,29.632c-3.394,12.354,3.109,24.788,8.487,35.674c4.292,8.683,9.073,17.134,14.074,25.432
		c1.637,2.718,3.303,5.417,4.998,8.091c0.351,0.553,1.174,2.552,1.914,2.588l0.075,0.002C32.084,101.39,31.41,99.398,31.118,98.85"
		/>
	<path fill="#7FBEF7" d="M95.688,34.032c-2.77-15.685-14.893-26.815-29.97-30.889C61.032,1.876,56.2,1.21,51.36,0.943h0.004
		c4.017,0.239,8.027,0.868,11.91,2.085c12.625,3.959,22.715,14.997,24.92,30.653c1.773,12.592-4.724,24.418-10.147,34.797
		c-4.329,8.287-9.046,16.289-13.935,24.125c-1.6,2.559-3.219,5.107-4.866,7.634c-0.34,0.519-1.199,2.444-1.819,2.415l2.216,0.105
		c0.739,0.034,1.747-1.883,2.149-2.4c1.935-2.514,3.843-5.046,5.727-7.595c5.754-7.795,11.301-15.757,16.39-24.009
		C90.276,58.417,97.914,46.645,95.688,34.032"/>
	<path fill="#ADF7B4" d="M36.048,99.153c-1.025-2.653-2.028-5.322-3.013-8.005c-3.013-8.205-5.884-16.56-8.445-25.167
		c-3.203-10.786-7.092-23.097-4.737-35.497C22.779,15.067,31.222,4.899,40.981,1.986c2.936-0.877,5.917-1.182,8.876-1.11
		c0.002,0,0.007,0.001,0.008-0.002c-4.023-0.137-8.072,0.115-12.049,0.966c-12.943,2.762-24.02,12.809-27.674,28.193
		c-2.94,12.371,2.422,24.751,6.855,35.595c3.536,8.651,7.488,17.058,11.623,25.316c1.353,2.697,2.729,5.385,4.131,8.054
		c0.292,0.549,0.968,2.545,1.588,2.575l2.872,0.133C36.744,101.684,36.26,99.699,36.048,99.153"/>
	<g>
		<g>
			<defs>
				
					<rect id="SVGID_15_" x="17.515" y="0.119" transform="matrix(-0.9989 -0.0468 0.0468 -0.9989 62.589 103.0174)" width="29.97" height="101.314"/>
			</defs>
			<clipPath id="SVGID_16_">
				<use xlink:href="#SVGID_15_"  overflow="visible"/>
			</clipPath>
			<path clip-path="url(#SVGID_16_)" fill="#77F2F2" d="M40.951,1.988c2.938-0.875,5.917-1.183,8.875-1.107
				c0.004-0.002,0.005-0.002,0.01-0.005c-1.087-0.037-2.173-0.042-3.26-0.018c-2.207,0.096-4.416,0.434-6.598,1.086
				c-9.759,2.913-18.203,13.082-21.129,28.498c-2.355,12.402,1.534,24.71,4.739,35.497c2.559,8.606,5.43,16.966,8.444,25.168
				c0.986,2.686,1.989,5.354,3.012,7.999c0.213,0.55,0.695,2.536,1.163,2.558l0.975,0.044c-0.468-0.022-0.951-2.007-1.161-2.558
				c-1.026-2.645-2.029-5.313-3.016-7.998c-3.013-8.203-5.883-16.562-8.443-25.17c-3.205-10.784-7.094-23.093-4.737-35.495
				C22.75,15.07,31.191,4.901,40.951,1.988"/>
		</g>
	</g>
	<path fill="#C7F9E2" d="M35.286,98.974c-1.402-2.66-2.779-5.347-4.131-8.05c-4.135-8.254-8.084-16.665-11.622-25.318
		c-4.433-10.84-9.796-23.22-6.857-35.592C16.333,14.629,27.41,4.584,40.35,1.819c2.416-0.514,4.859-0.808,7.307-0.931
		c-3.035,0.049-6.071,0.351-9.067,0.993c-12.938,2.763-24.015,12.808-27.671,28.19c-2.94,12.375,2.421,24.754,6.855,35.595
		c3.534,8.655,7.487,17.061,11.622,25.318c1.351,2.7,2.729,5.388,4.131,8.051c0.292,0.551,0.967,2.551,1.589,2.58l2.87,0.133
		c-0.075-0.001-0.151-0.063-0.224-0.157l-0.889-0.042C36.253,101.521,35.578,99.526,35.286,98.974"/>
	<path fill="#ADF7B4" d="M59.247,100.236c1.647-2.526,3.266-5.075,4.866-7.634c4.889-7.836,9.605-15.838,13.935-24.122
		c5.424-10.382,11.921-22.208,10.147-34.8C85.989,18.024,75.898,6.987,63.274,3.028c-3.883-1.217-7.894-1.846-11.91-2.085
		c0.001,0.002,0.006,0.003,0.008,0.004c2.955,0.203,5.89,0.785,8.732,1.934c9.445,3.81,16.903,14.723,18.379,30.346
		c1.188,12.564-3.835,24.459-8.031,34.899c-3.352,8.331-6.992,16.38-10.755,24.27c-1.232,2.578-2.479,5.14-3.749,7.686
		c-0.259,0.525-0.929,2.456-1.394,2.433l2.875,0.136C58.047,102.68,58.907,100.755,59.247,100.236"/>
	<path fill="#7FBEF7" d="M55.947,100.082c1.27-2.545,2.519-5.107,3.751-7.686c3.761-7.89,7.403-15.939,10.754-24.27
		c4.197-10.44,9.219-22.335,8.03-34.899C77.007,17.604,69.55,6.691,60.105,2.881c-2.84-1.148-5.784-1.731-8.733-1.934
		c0.006,0.004,0.014,0.009,0.02,0.01c1.815,0.184,3.612,0.722,5.345,1.765c6.063,3.652,10.72,14.435,11.42,30.021
		c0.562,12.536-2.89,24.504-5.783,35.005c-2.311,8.378-4.8,16.483-7.375,24.428c-0.84,2.597-1.69,5.181-2.555,7.744
		c-0.178,0.527-0.643,2.468-0.946,2.455l3.056,0.14C55.02,102.538,55.69,100.606,55.947,100.082"/>
	<path fill="#7FBEF7" d="M39.553,99.316c-0.619-2.634-1.229-5.285-1.824-7.947c-1.818-8.15-3.541-16.452-5.062-25.011
		c-1.9-10.724-4.22-22.961-2.487-35.391c2.15-15.453,7.792-25.754,14.172-28.825c1.82-0.878,3.662-1.245,5.483-1.258
		c0.008-0.002,0.015-0.006,0.021-0.01c-2.956-0.071-5.938,0.233-8.876,1.11c-9.759,2.913-18.199,13.082-21.127,28.498
		c-2.354,12.4,1.534,24.711,4.741,35.497c2.556,8.608,5.428,16.962,8.442,25.167c0.984,2.683,1.988,5.352,3.012,8.005
		c0.212,0.545,0.697,2.53,1.164,2.552l3.053,0.143C39.963,101.833,39.681,99.857,39.553,99.316"/>
	<g>
		<g>
			<defs>
				
					<rect id="SVGID_17_" x="28.271" y="0.382" transform="matrix(-0.9989 -0.0467 0.0467 -0.9989 73.3595 103.7834)" width="19.242" height="101.306"/>
			</defs>
			<clipPath id="SVGID_18_">
				<use xlink:href="#SVGID_17_"  overflow="visible"/>
			</clipPath>
			<path clip-path="url(#SVGID_18_)" fill="#75D7F9" d="M44.362,2.151c1.822-0.876,3.662-1.245,5.485-1.257
				c0.008-0.005,0.016-0.006,0.024-0.007c-0.505-0.014-1.008-0.009-1.513,0c-1.577,0.098-3.157,0.475-4.727,1.229
				c-6.376,3.07-12.02,13.371-14.172,28.824c-1.731,12.431,0.588,24.667,2.492,35.393c1.516,8.562,3.243,16.864,5.062,25.008
				c0.593,2.671,1.201,5.317,1.821,7.946c0.128,0.546,0.411,2.52,0.713,2.534l0.729,0.035c-0.301-0.015-0.583-1.988-0.711-2.535
				c-0.621-2.629-1.229-5.275-1.822-7.946c-1.82-8.146-3.547-16.447-5.064-25.009c-1.902-10.725-4.219-22.959-2.491-35.392
				C32.34,15.521,37.984,5.222,44.362,2.151"/>
		</g>
	</g>
	<path fill="#C7EDF9" d="M38.783,99.283c-0.202-0.856-0.4-1.719-0.6-2.574c-0.681-1.79-1.358-3.596-2.022-5.407
		c-3.014-8.205-5.883-16.564-8.444-25.169c-3.205-10.784-7.093-23.095-4.74-35.498C25.75,16.03,33.479,6.139,42.582,2.663
		c0.328-0.204,0.662-0.388,0.999-0.548c0.999-0.48,2.005-0.807,3.009-1.007c-1.548,0.174-3.093,0.477-4.625,0.932
		c-9.759,2.912-18.203,13.08-21.133,28.496c-2.353,12.402,1.539,24.714,4.744,35.498c2.559,8.606,5.429,16.963,8.441,25.169
		c0.987,2.683,1.989,5.353,3.012,8c0.214,0.546,0.697,2.534,1.163,2.556l1.304,0.063C39.193,101.805,38.912,99.824,38.783,99.283"/>
	<path fill="#8FF7BC" d="M52.447,99.919c0.863-2.563,1.71-5.146,2.556-7.744c2.571-7.945,5.061-16.049,7.373-24.428
		c2.891-10.5,6.344-22.469,5.78-35.005C67.453,17.158,62.8,6.375,56.734,2.723c-1.731-1.043-3.529-1.582-5.342-1.765
		c0.528,0.233,1.039,0.69,1.526,1.457c2.227,3.476,3.703,14.105,3.523,29.649C56.3,44.566,54.627,56.62,53.213,67.188
		c-1.127,8.433-2.319,16.602-3.54,24.612c-0.392,2.609-0.798,5.22-1.2,7.796c-0.085,0.532-0.319,2.487-0.435,2.482l-1.827-0.086
		l-0.649-0.03l-1.825-0.086c-0.115-0.003-0.168-1.974-0.199-2.511c-0.165-2.601-0.322-5.239-0.475-7.875
		c-0.463-8.09-0.888-16.333-1.225-24.836c-0.421-10.654-0.958-22.81,0.066-35.272c1.268-15.493,3.733-25.94,6.273-29.191
		c0.557-0.717,1.111-1.125,1.656-1.307c-1.822,0.013-3.665,0.38-5.485,1.258c-6.376,3.07-12.02,13.372-14.171,28.825
		c-1.733,12.429,0.588,24.667,2.488,35.391c1.521,8.559,3.245,16.861,5.064,25.011c0.594,2.662,1.203,5.313,1.823,7.947
		c0.13,0.541,0.409,2.516,0.711,2.532l3.534,0.163l0.334,0.017l0.436,0.023l0.463,0.021l1.704,0.078l0.464,0.022l0.434,0.019
		l0.335,0.016l3.532,0.167C51.803,102.388,52.267,100.447,52.447,99.919"/>
	<path fill="#C7F9E2" d="M43.455,101.986l-0.395-0.156c-0.114-0.005-0.166-1.968-0.2-2.504c-0.01-0.142-0.02-0.289-0.028-0.431
		c-0.576-2.443-1.136-4.899-1.69-7.379c-1.817-8.148-3.545-16.452-5.062-25.008c-1.901-10.723-4.221-22.964-2.49-35.393
		c2.088-14.987,7.458-25.126,13.597-28.523c0.103-0.158,0.208-0.309,0.312-0.444c0.319-0.406,0.634-0.711,0.951-0.935
		c-1.142,0.19-2.285,0.538-3.424,1.086C38.65,5.37,33.009,15.667,30.857,31.121c-1.733,12.43,0.587,24.668,2.489,35.391
		c1.518,8.557,3.245,16.865,5.063,25.007c0.594,2.67,1.203,5.319,1.821,7.953c0.111,0.454,0.329,1.929,0.574,2.392l2.315,0.107
		L43.455,101.986z"/>
	<path fill="#A82426" d="M50.614,0.901c-0.248-0.012-0.498-0.019-0.742-0.027l-0.006,0C50.116,0.882,50.364,0.889,50.614,0.901"/>
	<path fill="#A82426" d="M51.364,0.943H51.36c-0.249-0.015-0.499-0.03-0.746-0.042C50.863,0.913,51.114,0.93,51.364,0.943"/>
	<path fill="#A82426" d="M49.865,0.873c0,0.004-0.005,0.002-0.008,0.002c0.251,0.009,0.505,0.014,0.757,0.025
		C50.367,0.889,50.116,0.882,49.865,0.873"/>
	<path fill="#A82426" d="M51.372,0.947c-0.003-0.001-0.008-0.002-0.008-0.004c-0.251-0.015-0.5-0.03-0.75-0.042
		C50.867,0.913,51.119,0.932,51.372,0.947"/>
	<path fill="#A82426" d="M49.856,0.875c-0.005,0.003-0.013,0.008-0.021,0.01c0.26-0.001,0.519,0.004,0.78,0.016
		C50.362,0.889,50.108,0.885,49.856,0.875"/>
	<path fill="#A82426" d="M51.392,0.958c-0.008-0.001-0.015-0.006-0.02-0.01c-0.252-0.015-0.506-0.035-0.758-0.046
		C50.875,0.913,51.133,0.933,51.392,0.958"/>
	<path fill="#7FBEF7" d="M49.835,0.885c-0.545,0.182-1.099,0.59-1.656,1.307c-2.54,3.251-5.003,13.698-6.272,29.191
		c-1.025,12.462-0.487,24.618-0.066,35.272c0.338,8.503,0.761,16.746,1.225,24.836c0.153,2.636,0.311,5.273,0.473,7.875
		c0.034,0.537,0.085,2.507,0.201,2.511l1.825,0.086l0.651,0.03l1.824,0.086c0.116,0.005,0.352-1.95,0.433-2.482
		c0.406-2.576,0.81-5.188,1.204-7.796c1.22-8.01,2.412-16.179,3.541-24.612c1.41-10.568,3.083-22.622,3.224-35.125
		c0.18-15.543-1.296-26.173-3.523-29.649c-0.487-0.766-0.998-1.224-1.526-1.457c-0.258-0.025-0.517-0.045-0.778-0.057
		C50.354,0.889,50.097,0.884,49.835,0.885"/>
	<path fill="#C7EDF9" d="M44.896,91.539c-0.466-8.086-0.889-16.329-1.226-24.831c-0.422-10.653-0.958-22.809,0.063-35.273
		c1.27-15.492,3.735-25.94,6.273-29.191c0.374-0.475,0.743-0.811,1.11-1.04c-0.142-0.105-0.285-0.195-0.43-0.267
		c-0.513,0.197-1.031,0.596-1.556,1.265c-2.538,3.253-5.002,13.699-6.273,29.191c-1.022,12.465-0.484,24.621-0.062,35.272
		c0.334,8.503,0.758,16.745,1.224,24.833c0.152,2.646,0.308,5.278,0.471,7.878c0.036,0.545,0.084,2.509,0.201,2.511l0.073,0.008
		l0.652,0.027l0.152,0.009c-0.115-0.007-0.167-1.968-0.202-2.514C45.202,96.818,45.048,94.186,44.896,91.539"/>
	<g>
		<g>
			<defs>
				
					<rect id="SVGID_19_" x="48.76" y="1.065" transform="matrix(-0.9989 -0.0466 0.0466 -0.9989 101.9971 105.6282)" width="6.938" height="101.121"/>
			</defs>
			<clipPath id="SVGID_20_">
				<use xlink:href="#SVGID_19_"  overflow="visible"/>
			</clipPath>
			<path clip-path="url(#SVGID_20_)" fill="#70CFF9" d="M48.877,91.724c1.215-8.007,2.41-16.174,3.535-24.607
				c1.413-10.566,3.086-22.619,3.231-35.125c0.179-15.544-1.302-26.174-3.522-29.649c-0.329-0.507-0.664-0.877-1.006-1.139
				c0.15-0.091,0.301-0.168,0.451-0.225c0.49,0.245,0.973,0.69,1.429,1.405c2.223,3.475,3.706,14.105,3.524,29.65
				c-0.145,12.504-1.814,24.558-3.229,35.124c-1.128,8.433-2.318,16.601-3.535,24.608c-0.4,2.621-0.8,5.226-1.205,7.802
				c-0.086,0.539-0.319,2.487-0.434,2.481l-0.073-0.002l-0.651-0.034l-0.153-0.005c0.116,0.005,0.349-1.941,0.434-2.482
				C48.08,96.951,48.48,94.346,48.877,91.724"/>
		</g>
	</g>
	<path fill="#A82426" d="M60.394,103.239c-0.021,0.458-0.399,0.799-0.851,0.779l-27.44-1.284c-0.451-0.021-0.797-0.396-0.777-0.854
		c0.023-0.446,0.403-0.796,0.854-0.774l27.438,1.284C60.071,102.411,60.416,102.794,60.394,103.239"/>
	<path fill="#AF3637" d="M58.592,103.155c-0.021,0.457-0.357,0.803-0.752,0.781l-24.036-1.121c-0.391-0.017-0.693-0.395-0.673-0.851
		c0.021-0.444,0.358-0.795,0.75-0.779l24.037,1.124C58.31,102.329,58.612,102.709,58.592,103.155"/>
	<path fill="#BD5C5C" d="M52.148,102.855c-0.02,0.456-0.246,0.805-0.503,0.793l-15.709-0.735c-0.258-0.011-0.452-0.382-0.431-0.837
		c0.021-0.445,0.249-0.802,0.506-0.79l15.71,0.733C51.979,102.032,52.17,102.409,52.148,102.855"/>
	<path fill="#D19092" d="M45.357,102.535c-0.023,0.458-0.128,0.813-0.234,0.808l-6.61-0.309c-0.108-0.003-0.18-0.367-0.158-0.824
		c0.021-0.448,0.125-0.811,0.235-0.803l6.608,0.308C45.305,101.719,45.376,102.092,45.357,102.535"/>
	<g>
		<g>
			<defs>
				
					<rect id="SVGID_21_" x="31.326" y="101.746" transform="matrix(-0.9989 -0.0467 0.0467 -0.9989 86.9225 206.4874)" width="29.1" height="0.962"/>
			</defs>
			<clipPath id="SVGID_22_">
				<use xlink:href="#SVGID_21_"  overflow="visible"/>
			</clipPath>
			<path clip-path="url(#SVGID_22_)" fill="#A82426" d="M32.165,101.393l27.44,1.283c0.401,0.021,0.719,0.331,0.77,0.712
				c0.01-0.051,0.016-0.094,0.019-0.149c0.021-0.444-0.323-0.828-0.776-0.849l-27.438-1.284c-0.45-0.022-0.831,0.328-0.854,0.774
				c-0.002,0.055,0.002,0.098,0.01,0.148C31.421,101.654,31.766,101.376,32.165,101.393"/>
		</g>
	</g>
	<polygon fill="#9D7E64" points="54.526,136.258 52.82,135.591 51.062,136.097 49.362,135.429 47.606,135.935 45.906,135.269 
		44.147,135.773 42.447,135.104 40.689,135.612 38.988,134.944 37.233,135.449 35.532,134.784 33.775,135.288 33.151,135.039 
		33.138,135.347 33.762,135.597 35.517,135.088 37.219,135.759 38.976,135.249 40.675,135.921 42.432,135.41 44.133,136.083 
		45.891,135.575 47.592,136.242 49.348,135.735 51.05,136.404 52.807,135.897 54.512,136.566 55.121,136.39 55.135,136.079 	"/>
	<polygon fill="#9D7E64" points="54.565,135.437 52.859,134.768 51.103,135.273 49.402,134.607 47.644,135.112 45.944,134.444 
		44.186,134.951 42.485,134.283 40.727,134.788 39.028,134.122 37.272,134.628 35.57,133.959 33.814,134.466 33.189,134.223 
		33.175,134.532 33.799,134.775 35.555,134.272 37.257,134.937 39.013,134.436 40.713,135.096 42.47,134.597 44.172,135.259 
		45.929,134.759 47.629,135.42 49.387,134.92 51.088,135.581 52.844,135.081 54.55,135.744 55.159,135.574 55.173,135.259 	"/>
	<polygon fill="#9D7E64" points="54.488,137.075 52.782,136.408 51.024,136.912 49.325,136.247 47.568,136.752 45.867,136.084 
		44.11,136.592 42.409,135.923 40.651,136.428 38.951,135.761 37.196,136.265 35.493,135.601 33.737,136.104 33.113,135.862 
		33.098,136.172 33.722,136.413 35.479,135.913 37.18,136.574 38.935,136.074 40.638,136.735 42.394,136.236 44.095,136.898 
		45.853,136.396 47.554,137.06 49.311,136.558 51.01,137.222 52.769,136.721 54.474,137.384 55.083,137.214 55.097,136.901 	"/>
	<polygon fill="#9D7E64" points="54.603,134.618 52.897,133.949 51.14,134.458 49.44,133.788 47.684,134.297 45.982,133.624 
		44.225,134.135 42.523,133.464 40.765,133.974 39.065,133.304 37.311,133.811 35.607,133.142 33.852,133.649 33.229,133.401 
		33.214,133.708 33.837,133.955 35.593,133.451 37.295,134.116 39.05,133.612 40.751,134.279 42.509,133.772 44.21,134.439 
		45.967,133.936 47.669,134.603 49.425,134.097 51.125,134.762 52.883,134.259 54.589,134.924 55.197,134.752 55.213,134.444 	"/>
	<polygon fill="#9D7E64" points="54.967,139.672 54.981,139.358 54.373,139.536 52.667,138.868 50.911,139.375 49.21,138.708 
		47.453,139.213 45.751,138.545 43.994,139.051 42.293,138.383 40.536,138.889 38.837,138.224 37.081,138.729 35.379,138.062 
		33.621,138.566 32.999,138.327 32.985,138.633 33.604,138.875 35.364,138.371 37.066,139.037 38.822,138.532 40.523,139.198 
		42.279,138.694 43.979,139.359 45.737,138.855 47.438,139.523 49.195,139.017 50.897,139.683 52.653,139.18 54.359,139.844 	"/>
	<polygon fill="#9D7E64" points="54.412,138.716 52.707,138.047 50.948,138.556 49.247,137.885 47.491,138.393 45.791,137.723 
		44.033,138.232 42.331,137.561 40.574,138.072 38.873,137.399 37.118,137.908 35.417,137.239 33.662,137.746 33.036,137.501 
		33.022,137.811 33.647,138.052 35.402,137.556 37.104,138.214 38.86,137.717 40.56,138.376 42.317,137.876 44.019,138.538 
		45.776,138.039 47.476,138.698 49.233,138.201 50.934,138.858 52.691,138.362 54.397,139.021 55.005,138.852 55.021,138.538 	"/>
	<polygon fill="#9D7E64" points="54.45,137.897 52.744,137.227 50.987,137.737 49.287,137.064 47.529,137.573 45.83,136.903 
		44.072,137.412 42.37,136.743 40.612,137.252 38.912,136.581 37.157,137.09 35.455,136.419 33.699,136.929 33.076,136.687 
		33.061,136.982 33.684,137.234 35.441,136.73 37.143,137.398 38.897,136.892 40.597,137.56 42.355,137.056 44.057,137.72 
		45.814,137.216 47.515,137.882 49.272,137.378 50.972,138.044 52.73,137.54 54.435,138.206 55.043,138.03 55.059,137.722 	"/>
	<polygon fill="#9D7E64" points="54.91,128.057 53.205,127.393 51.446,127.896 49.746,127.231 47.99,127.734 46.289,127.069 
		44.531,127.572 42.831,126.907 41.073,127.41 39.371,126.747 37.618,127.25 35.915,126.587 34.158,127.087 33.535,126.84 
		33.521,127.147 34.145,127.399 35.9,126.895 37.602,127.562 39.356,127.058 41.059,127.721 42.815,127.218 44.516,127.884 
		46.275,127.381 47.975,128.045 49.731,127.54 51.431,128.206 53.19,127.701 54.895,128.37 55.504,128.191 55.518,127.884 	"/>
	<polygon fill="#9D7E64" points="54.795,130.516 53.089,129.848 51.332,130.354 49.631,129.686 47.875,130.192 46.174,129.524 
		44.416,130.029 42.715,129.364 40.958,129.869 39.257,129.201 37.502,129.708 35.801,129.039 34.044,129.545 33.42,129.299 
		33.405,129.609 34.031,129.855 35.786,129.348 37.487,130.017 39.244,129.513 40.943,130.177 42.7,129.674 44.401,130.338 
		46.16,129.835 47.86,130.5 49.616,129.995 51.318,130.661 53.074,130.157 54.78,130.823 55.389,130.651 55.403,130.339 	"/>
	<polygon fill="#9D7E64" points="54.833,129.698 53.127,129.033 51.371,129.537 49.669,128.871 47.913,129.377 46.212,128.708 
		44.454,129.216 42.753,128.547 40.996,129.053 39.296,128.386 37.54,128.891 35.838,128.224 34.083,128.73 33.458,128.479 
		33.444,128.791 34.068,129.037 35.824,128.533 37.525,129.198 39.282,128.695 40.981,129.36 42.738,128.856 44.44,129.521 
		46.198,129.018 47.897,129.686 49.655,129.18 51.355,129.849 53.112,129.342 54.819,130.009 55.427,129.831 55.442,129.523 	"/>
	<polygon fill="#9D7E64" points="54.872,128.877 53.165,128.208 51.409,128.714 49.708,128.046 47.951,128.552 46.25,127.887 
		44.494,128.393 42.791,127.726 41.034,128.23 39.333,127.562 37.579,128.069 35.876,127.401 34.121,127.905 33.497,127.659 
		33.482,127.971 34.106,128.214 35.862,127.71 37.565,128.376 39.319,127.872 41.019,128.539 42.778,128.033 44.479,128.7 
		46.235,128.196 47.938,128.861 49.694,128.358 51.394,129.023 53.152,128.52 54.857,129.184 55.467,129.009 55.48,128.702 	"/>
	<polygon fill="#9D7E64" points="54.68,132.979 52.974,132.31 51.216,132.816 49.515,132.148 47.759,132.653 46.059,131.986 
		44.301,132.493 42.6,131.825 40.842,132.33 39.142,131.664 37.387,132.169 35.685,131.501 33.929,132.009 33.304,131.762 
		33.291,132.068 33.916,132.316 35.671,131.812 37.373,132.477 39.128,131.974 40.828,132.639 42.585,132.135 44.288,132.801 
		46.044,132.297 47.745,132.961 49.502,132.458 51.203,133.123 52.959,132.619 54.666,133.287 55.274,133.109 55.29,132.805 	"/>
	<polygon fill="#9D7E64" points="54.641,133.795 52.937,133.129 51.177,133.634 49.478,132.969 47.722,133.473 46.022,132.806 
		44.263,133.312 42.562,132.646 40.805,133.15 39.104,132.483 37.349,132.988 35.647,132.321 33.89,132.827 33.266,132.585 
		33.251,132.889 33.875,133.135 35.632,132.634 37.334,133.296 39.088,132.796 40.79,133.46 42.547,132.957 44.248,133.62 
		46.006,133.119 47.707,133.782 49.463,133.28 51.163,133.943 52.922,133.443 54.627,134.104 55.236,133.929 55.25,133.618 	"/>
	<polygon fill="#9D7E64" points="54.719,132.153 53.013,131.491 51.256,131.992 49.555,131.33 47.798,131.833 46.097,131.166 
		44.341,131.67 42.638,131.005 40.881,131.507 39.181,130.845 37.425,131.346 35.723,130.682 33.968,131.184 33.344,130.939 
		33.33,131.249 33.953,131.497 35.709,130.996 37.412,131.657 39.166,131.156 40.866,131.818 42.624,131.319 44.325,131.98 
		46.082,131.48 47.783,132.143 49.54,131.641 51.241,132.304 52.997,131.805 54.704,132.467 55.312,132.289 55.328,131.979 	"/>
	<polygon fill="#9D7E64" points="54.757,131.339 53.051,130.67 51.292,131.176 49.593,130.51 47.836,131.015 46.135,130.348 
		44.378,130.854 42.678,130.186 40.919,130.69 39.218,130.024 37.463,130.53 35.761,129.862 34.005,130.367 33.381,130.123 
		33.367,130.429 33.99,130.677 35.748,130.173 37.449,130.838 39.203,130.334 40.904,131.001 42.662,130.495 44.363,131.161 
		46.122,130.659 47.822,131.323 49.578,130.82 51.278,131.483 53.037,130.979 54.742,131.646 55.352,131.469 55.365,131.16 	"/>
	<g opacity="0.5">
		<g>
			<defs>
				
					<rect id="SVGID_23_" x="34.057" y="140.114" transform="matrix(-0.9989 -0.0466 0.0466 -0.9989 81.4309 282.7451)" width="19.908" height="0.619"/>
			</defs>
			<clipPath id="SVGID_24_">
				<use xlink:href="#SVGID_23_"  overflow="visible"/>
			</clipPath>
			<path clip-path="url(#SVGID_24_)" fill="#9D7E64" d="M34.059,140.18c1.667-0.119,3.331-0.177,4.991-0.172
				c1.661-0.014,3.317,0.074,4.979,0.104c1.652,0.123,3.312,0.193,4.961,0.36c1.654,0.149,3.307,0.366,4.955,0.636l-0.003,0.06
				c-6.628-0.274-13.258-0.583-19.885-0.926L34.059,140.18z"/>
		</g>
	</g>
</g>
</svg>
