<?xml version="1.0" encoding="utf-8"?>
<!-- Generator: Adobe Illustrator 15.0.0, SVG Export Plug-In . SVG Version: 6.00 Build 0)  -->
<!DOCTYPE svg PUBLIC "-//W3C//DTD SVG 1.1//EN" "http://www.w3.org/Graphics/SVG/1.1/DTD/svg11.dtd">
<svg version="1.1" id="Layer_1" xmlns="http://www.w3.org/2000/svg" xmlns:xlink="http://www.w3.org/1999/xlink" x="0px" y="0px"
	 width="246px" height="139.578px" viewBox="0 0 246 139.578" enable-background="new 0 0 246 139.578" xml:space="preserve">
<g>
	<path fill="none" stroke="#838383" stroke-width="0.186" stroke-miterlimit="10" d="M183.615,11.204
		c2.803,1.111,5.593,0.529,7.647,3.317c2.52,3.424,3.547,8.081,2.446,12.216c-2.061,7.748-11.213,9.588-15.012,15.582"/>
	<path fill="none" stroke="#7A7A7A" stroke-width="0.186" stroke-miterlimit="10" d="M185.499,9.601
		c8.873,1.589,19.426,7.863,13.856,18.301c-5.641,10.562-23.005,8.498-32.476,8.756"/>
	<path fill="none" stroke="#7A7A7A" stroke-width="0.186" stroke-miterlimit="10" d="M183.825,9.252
		c9.906,0.128,20.348,9.716,16.016,20.119c-2.232,5.355-3.896,8.211-8.198,12.18c-2.596,2.395-10.187,5.087-13.744,4.52"/>
	<path fill="none" stroke="#464A47" stroke-width="1.301" stroke-linecap="round" stroke-miterlimit="10" d="M112.231,100.938
		c0.17-1.594,0.266-3.21,0.266-4.845c0-24.812-20.111-44.92-44.919-44.92c-22.098,0-40.454,15.956-44.207,36.972"/>
	<path fill="none" stroke="#464A47" stroke-width="1.301" stroke-linecap="round" stroke-miterlimit="10" d="M197.234,52.139
		c-20.716,0-37.914,15.009-41.338,34.743"/>
	<path fill="#C0BFC0" d="M67.63,57.573c21.303,0,38.631,17.329,38.631,38.627c0,21.305-17.328,38.629-38.631,38.629
		s-38.629-17.324-38.629-38.629C29.001,74.902,46.327,57.573,67.63,57.573 M67.63,52.831c-23.955,0-43.374,19.419-43.374,43.37
		c0,23.961,19.419,43.375,43.374,43.375c23.958,0,43.374-19.413,43.374-43.375C111.004,72.25,91.588,52.831,67.63,52.831"/>
	<path fill="#393536" d="M67.63,54.609c22.936,0,41.595,18.659,41.595,41.592c0,22.94-18.659,41.598-41.595,41.598
		c-22.938,0-41.593-18.658-41.593-41.598C26.037,73.268,44.691,54.609,67.63,54.609 M67.63,52.831
		c-23.955,0-43.374,19.419-43.374,43.37c0,23.961,19.419,43.375,43.374,43.375c23.958,0,43.374-19.413,43.374-43.375
		C111.004,72.25,91.588,52.831,67.63,52.831"/>
	
		<line fill="none" stroke="#605F5F" stroke-width="0.148" stroke-miterlimit="10" x1="64.004" y1="56.492" x2="71.119" y2="135.566"/>
	
		<line fill="none" stroke="#605F5F" stroke-width="0.148" stroke-miterlimit="10" x1="71.119" y1="56.492" x2="64.004" y2="135.566"/>
	
		<line fill="none" stroke="#605F5F" stroke-width="0.148" stroke-miterlimit="10" x1="41.444" y1="66.131" x2="93.679" y2="125.923"/>
	
		<line fill="none" stroke="#605F5F" stroke-width="0.148" stroke-miterlimit="10" x1="47.201" y1="61.951" x2="87.925" y2="130.105"/>
	
		<line fill="none" stroke="#605F5F" stroke-width="0.148" stroke-miterlimit="10" x1="28.86" y1="87.192" x2="106.264" y2="104.868"/>
	
		<line fill="none" stroke="#605F5F" stroke-width="0.148" stroke-miterlimit="10" x1="31.057" y1="80.429" x2="104.065" y2="111.628"/>
	
		<line fill="none" stroke="#605F5F" stroke-width="0.148" stroke-miterlimit="10" x1="31.057" y1="111.628" x2="104.065" y2="80.429"/>
	
		<line fill="none" stroke="#605F5F" stroke-width="0.148" stroke-miterlimit="10" x1="28.86" y1="104.865" x2="106.264" y2="87.19"/>
	
		<line fill="none" stroke="#605F5F" stroke-width="0.148" stroke-miterlimit="10" x1="47.201" y1="130.105" x2="87.925" y2="61.95"/>
	
		<line fill="none" stroke="#605F5F" stroke-width="0.148" stroke-miterlimit="10" x1="41.444" y1="125.926" x2="93.679" y2="66.133"/>
	<g opacity="0.3">
		<g>
			<defs>
				<rect id="SVGID_1_" x="24.138" y="52.83" width="86.748" height="86.749"/>
			</defs>
			<clipPath id="SVGID_2_">
				<use xlink:href="#SVGID_1_"  overflow="visible"/>
			</clipPath>
			<g clip-path="url(#SVGID_2_)">
				<g>
					<defs>
						<rect id="SVGID_3_" x="25.918" y="96.205" width="83.188" height="41.594"/>
					</defs>
					<clipPath id="SVGID_4_">
						<use xlink:href="#SVGID_3_"  overflow="visible"/>
					</clipPath>
					<path clip-path="url(#SVGID_4_)" fill="#C0BFC0" d="M67.509,137.799c22.938,0,41.598-18.658,41.598-41.594h-2.965
						c0,21.301-17.33,38.629-38.633,38.629c-21.296,0-38.626-17.328-38.626-38.629h-2.964
						C25.918,119.141,44.573,137.799,67.509,137.799"/>
				</g>
			</g>
			<g clip-path="url(#SVGID_2_)">
				<g>
					<defs>
						<rect id="SVGID_5_" x="24.138" y="96.205" width="86.748" height="43.374"/>
					</defs>
					<clipPath id="SVGID_6_">
						<use xlink:href="#SVGID_5_"  overflow="visible"/>
					</clipPath>
					<path clip-path="url(#SVGID_6_)" fill="#393536" d="M67.509,137.799c-22.936,0-41.591-18.658-41.591-41.594h-1.78
						c0,23.958,19.418,43.371,43.371,43.371c23.957,0,43.377-19.413,43.377-43.371h-1.779
						C109.106,119.141,90.446,137.799,67.509,137.799"/>
				</g>
			</g>
			<g clip-path="url(#SVGID_2_)">
				<g>
					<defs>
						<rect id="SVGID_7_" x="25.918" y="54.61" width="83.188" height="41.594"/>
					</defs>
					<clipPath id="SVGID_8_">
						<use xlink:href="#SVGID_7_"  overflow="visible"/>
					</clipPath>
					<path clip-path="url(#SVGID_8_)" fill="#C0BFC0" d="M28.882,96.205c0-21.301,17.331-38.633,38.626-38.633
						c21.303,0,38.633,17.333,38.633,38.633h2.965c0-22.938-18.66-41.594-41.598-41.594c-22.936,0-41.591,18.656-41.591,41.594
						H28.882z"/>
				</g>
			</g>
			<g clip-path="url(#SVGID_2_)">
				<g>
					<defs>
						<rect id="SVGID_9_" x="24.138" y="52.83" width="86.748" height="43.375"/>
					</defs>
					<clipPath id="SVGID_10_">
						<use xlink:href="#SVGID_9_"  overflow="visible"/>
					</clipPath>
					<path clip-path="url(#SVGID_10_)" fill="#393536" d="M67.509,52.831c-23.953,0-43.371,19.419-43.371,43.37v0.004h1.78v-0.004
						c0-22.933,18.655-41.588,41.591-41.588c22.938,0,41.598,18.655,41.598,41.588v0.004h1.779v-0.004
						C110.886,72.25,91.466,52.831,67.509,52.831"/>
				</g>
			</g>
		</g>
	</g>
	<g>
		<g>
			<defs>
				<rect id="SVGID_11_" x="26.827" y="95.397" width="81.604" height="41.235"/>
			</defs>
			<clipPath id="SVGID_12_">
				<use xlink:href="#SVGID_11_"  overflow="visible"/>
			</clipPath>
			<path clip-path="url(#SVGID_12_)" fill="#BCBBBB" d="M108.429,95.397c0.069,5.34-0.911,10.706-2.913,15.69
				c-2.026,4.973-5.059,9.529-8.843,13.351c-7.548,7.678-18.229,12.194-29.043,12.194c-10.812,0.004-21.491-4.517-29.042-12.194
				c-3.784-3.821-6.816-8.378-8.847-13.351c-1.998-4.984-2.979-10.351-2.91-15.69c0.124,10.694,4.625,21.169,12.168,28.628
				c7.516,7.508,18.048,11.824,28.63,11.735c10.584,0.092,21.117-4.228,28.627-11.735
				C103.806,116.566,108.304,106.092,108.429,95.397"/>
		</g>
	</g>
	<g>
		<g>
			<defs>
				<rect id="SVGID_13_" x="26.712" y="55.217" width="81.602" height="41.237"/>
			</defs>
			<clipPath id="SVGID_14_">
				<use xlink:href="#SVGID_13_"  overflow="visible"/>
			</clipPath>
			<path clip-path="url(#SVGID_14_)" fill="#BCBBBB" d="M26.716,96.454c-0.068-5.339,0.914-10.705,2.912-15.69
				c2.029-4.971,5.062-9.528,8.846-13.353c7.55-7.679,18.216-12.195,29.051-12.193c10.791-0.005,21.489,4.514,29.029,12.193
				c3.785,3.825,6.816,8.382,8.847,13.353c1.998,4.985,2.979,10.351,2.909,15.69c-0.124-10.697-4.623-21.168-12.167-28.63
				c-7.52-7.504-18.036-11.826-28.64-11.732c-10.56-0.098-21.112,4.224-28.622,11.732C31.339,75.286,26.841,85.757,26.716,96.454"/>
		</g>
	</g>
	<path fill="#C0BFC0" d="M199.672,57.573c21.302,0,38.63,17.329,38.63,38.627c0,21.305-17.328,38.629-38.63,38.629
		c-21.299,0-38.63-17.324-38.63-38.629C161.042,74.902,178.373,57.573,199.672,57.573 M199.672,52.831
		c-23.954,0-43.37,19.417-43.37,43.37c0,23.956,19.416,43.375,43.37,43.375c23.955,0,43.374-19.419,43.374-43.375
		C243.046,72.247,223.627,52.831,199.672,52.831"/>
	<path fill="#393536" d="M199.672,54.609c22.937,0,41.595,18.659,41.595,41.592c0,22.94-18.658,41.598-41.595,41.598
		c-22.938,0-41.591-18.658-41.591-41.598C158.081,73.268,176.734,54.609,199.672,54.609 M199.672,52.831
		c-23.954,0-43.37,19.417-43.37,43.37c0,23.956,19.416,43.375,43.37,43.375c23.955,0,43.374-19.419,43.374-43.375
		C243.046,72.247,223.627,52.831,199.672,52.831"/>
	
		<line fill="none" stroke="#777676" stroke-width="0.148" stroke-miterlimit="10" x1="196.046" y1="56.49" x2="203.161" y2="135.566"/>
	
		<line fill="none" stroke="#777676" stroke-width="0.148" stroke-miterlimit="10" x1="203.161" y1="56.49" x2="196.044" y2="135.566"/>
	
		<line fill="none" stroke="#777676" stroke-width="0.148" stroke-miterlimit="10" x1="173.485" y1="66.131" x2="225.722" y2="125.923"/>
	
		<line fill="none" stroke="#777676" stroke-width="0.148" stroke-miterlimit="10" x1="179.241" y1="61.951" x2="219.963" y2="130.105"/>
	
		<line fill="none" stroke="#777676" stroke-width="0.148" stroke-miterlimit="10" x1="160.898" y1="87.192" x2="238.304" y2="104.865"/>
	
		<line fill="none" stroke="#777676" stroke-width="0.148" stroke-miterlimit="10" x1="163.1" y1="80.429" x2="236.106" y2="111.628"/>
	
		<line fill="none" stroke="#777676" stroke-width="0.148" stroke-miterlimit="10" x1="163.1" y1="111.628" x2="236.106" y2="80.429"/>
	
		<line fill="none" stroke="#777676" stroke-width="0.148" stroke-miterlimit="10" x1="160.898" y1="104.865" x2="238.304" y2="87.192"/>
	
		<line fill="none" stroke="#777676" stroke-width="0.148" stroke-miterlimit="10" x1="179.241" y1="130.105" x2="219.963" y2="61.95"/>
	
		<line fill="none" stroke="#777676" stroke-width="0.148" stroke-miterlimit="10" x1="173.485" y1="125.923" x2="225.722" y2="66.131"/>
	<g opacity="0.3">
		<g>
			<defs>
				<rect id="SVGID_15_" x="156.181" y="52.83" width="86.744" height="86.749"/>
			</defs>
			<clipPath id="SVGID_16_">
				<use xlink:href="#SVGID_15_"  overflow="visible"/>
			</clipPath>
			<g clip-path="url(#SVGID_16_)">
				<g>
					<defs>
						<rect id="SVGID_17_" x="157.958" y="96.205" width="83.189" height="41.594"/>
					</defs>
					<clipPath id="SVGID_18_">
						<use xlink:href="#SVGID_17_"  overflow="visible"/>
					</clipPath>
					<path clip-path="url(#SVGID_18_)" fill="#C0BFC0" d="M199.555,137.799c22.934,0,41.593-18.662,41.593-41.594h-2.965
						c0,21.299-17.33,38.625-38.628,38.625c-21.304,0-38.633-17.326-38.633-38.625h-2.964
						C157.958,119.137,176.615,137.799,199.555,137.799"/>
				</g>
			</g>
			<g clip-path="url(#SVGID_16_)">
				<g>
					<defs>
						<rect id="SVGID_19_" x="156.181" y="96.205" width="86.744" height="43.374"/>
					</defs>
					<clipPath id="SVGID_20_">
						<use xlink:href="#SVGID_19_"  overflow="visible"/>
					</clipPath>
					<path clip-path="url(#SVGID_20_)" fill="#393536" d="M199.555,137.799c-22.939,0-41.597-18.662-41.597-41.594h-1.777
						c0,23.955,19.418,43.374,43.374,43.374c23.954,0,43.37-19.419,43.37-43.374h-1.777
						C241.147,119.137,222.488,137.799,199.555,137.799"/>
				</g>
			</g>
			<g clip-path="url(#SVGID_16_)">
				<g>
					<defs>
						<rect id="SVGID_21_" x="157.958" y="54.607" width="83.189" height="41.597"/>
					</defs>
					<clipPath id="SVGID_22_">
						<use xlink:href="#SVGID_21_"  overflow="visible"/>
					</clipPath>
					<path clip-path="url(#SVGID_22_)" fill="#C0BFC0" d="M160.925,96.205c0-21.301,17.326-38.633,38.63-38.633
						c21.298,0,38.628,17.333,38.628,38.633h2.965c0-22.938-18.659-41.594-41.593-41.594c-22.937,0-41.597,18.656-41.597,41.594
						H160.925z"/>
				</g>
			</g>
			<g clip-path="url(#SVGID_16_)">
				<g>
					<defs>
						<rect id="SVGID_23_" x="156.181" y="52.83" width="86.744" height="43.375"/>
					</defs>
					<clipPath id="SVGID_24_">
						<use xlink:href="#SVGID_23_"  overflow="visible"/>
					</clipPath>
					<path clip-path="url(#SVGID_24_)" fill="#393536" d="M199.555,52.831c-23.956,0-43.374,19.417-43.374,43.37h1.777
						c0-22.933,18.657-41.592,41.597-41.592c22.934,0,41.593,18.659,41.593,41.592h1.777
						C242.925,72.247,223.509,52.831,199.555,52.831"/>
				</g>
			</g>
		</g>
	</g>
	<g>
		<g>
			<defs>
				<rect id="SVGID_25_" x="158.873" y="95.397" width="81.602" height="41.235"/>
			</defs>
			<clipPath id="SVGID_26_">
				<use xlink:href="#SVGID_25_"  overflow="visible"/>
			</clipPath>
			<path clip-path="url(#SVGID_26_)" fill="#BCBBBB" d="M240.472,95.395c0.064,5.343-0.913,10.706-2.911,15.691
				c-2.031,4.971-5.063,9.529-8.846,13.353c-7.548,7.681-18.227,12.194-29.043,12.194c-10.812,0.007-21.49-4.514-29.039-12.194
				c-3.783-3.821-6.815-8.382-8.846-13.353c-1.998-4.985-2.979-10.349-2.911-15.691c0.124,10.697,4.625,21.172,12.168,28.633
				c7.513,7.506,18.046,11.825,28.628,11.73c10.586,0.1,21.119-4.225,28.627-11.73C235.846,116.566,240.347,106.092,240.472,95.395"
				/>
		</g>
	</g>
	<g>
		<g>
			<defs>
				<rect id="SVGID_27_" x="158.751" y="55.214" width="81.602" height="41.24"/>
			</defs>
			<clipPath id="SVGID_28_">
				<use xlink:href="#SVGID_27_"  overflow="visible"/>
			</clipPath>
			<path clip-path="url(#SVGID_28_)" fill="#BCBBBB" d="M158.754,96.454c-0.067-5.342,0.914-10.708,2.914-15.69
				c2.027-4.972,5.061-9.53,8.844-13.354c7.547-7.679,18.229-12.193,29.043-12.193c10.811-0.006,21.493,4.514,29.041,12.193
				c3.779,3.821,6.812,8.382,8.843,13.354c1.997,4.983,2.979,10.349,2.912,15.69c-0.125-10.697-4.627-21.17-12.171-28.634
				c-7.511-7.502-18.043-11.824-28.625-11.729c-10.587-0.099-21.12,4.227-28.628,11.729
				C163.38,75.284,158.878,85.757,158.754,96.454"/>
		</g>
	</g>
	<path fill="none" stroke="#597F5D" stroke-width="1.115" stroke-miterlimit="10" d="M172.737,29.539l6.278,18.965
		c0,0,0.974,5.58,2.926,9.625c1.952,4.047,17.993,38.326,17.993,38.326"/>
	<g>
		<g>
			<defs>
				<rect id="SVGID_29_" x="171.896" y="31.195" width="26.569" height="65.271"/>
			</defs>
			<clipPath id="SVGID_30_">
				<use xlink:href="#SVGID_29_"  overflow="visible"/>
			</clipPath>
			<path clip-path="url(#SVGID_30_)" fill="#597F5D" d="M171.952,31.196c1.13,3.045,2.173,6.119,3.229,9.189
				c1.083,3.064,2.079,6.154,3.049,9.253l0.006,0.017v0.013c0.718,4.185,1.974,8.279,4.044,12.021l5.561,11.507
				c3.662,7.691,7.243,15.421,10.626,23.241l-0.05,0.029c-3.841-7.612-7.484-15.311-11.057-23.044l-5.312-11.625
				c-1.902-3.805-3.408-7.852-4.197-12.062l0.006,0.028c-1.072-3.067-2.116-6.141-3.07-9.244c-0.984-3.095-1.984-6.187-2.889-9.305
				L171.952,31.196z"/>
		</g>
	</g>
	<g>
		<g>
			<defs>
				<rect id="SVGID_31_" x="173.485" y="30.363" width="26.57" height="65.268"/>
			</defs>
			<clipPath id="SVGID_32_">
				<use xlink:href="#SVGID_31_"  overflow="visible"/>
			</clipPath>
			<path clip-path="url(#SVGID_32_)" fill="#597F5D" d="M173.541,30.363c1.132,3.045,2.174,6.119,3.229,9.188
				c1.082,3.064,2.079,6.156,3.05,9.254l0.005,0.016v0.013c0.715,4.184,1.971,8.278,4.044,12.019l5.56,11.509
				c3.663,7.69,7.244,15.419,10.627,23.243l-0.051,0.026c-3.84-7.612-7.483-15.311-11.056-23.043l-5.312-11.625
				c-1.906-3.802-3.412-7.852-4.197-12.062l0.007,0.028c-1.073-3.067-2.117-6.141-3.071-9.244c-0.983-3.095-1.984-6.186-2.89-9.305
				L173.541,30.363z"/>
		</g>
	</g>
	<path fill="#BCBBBB" d="M197.231,96.03c0,1.278,1.041,2.318,2.323,2.318c1.28,0,2.32-1.04,2.32-2.318
		c0-1.284-1.04-2.325-2.32-2.325C198.272,93.705,197.231,94.746,197.231,96.03"/>
	<path fill="#908E8F" d="M198.357,96.03c0,0.66,0.531,1.197,1.197,1.197c0.66,0,1.196-0.537,1.196-1.197
		c0-0.667-0.536-1.199-1.196-1.199C198.889,94.832,198.357,95.363,198.357,96.03"/>
	<g>
		<g>
			<defs>
				<rect id="SVGID_33_" x="198.357" y="95.01" width="2.394" height="2.883"/>
			</defs>
			<clipPath id="SVGID_34_">
				<use xlink:href="#SVGID_33_"  overflow="visible"/>
			</clipPath>
			<path clip-path="url(#SVGID_34_)" fill="#D2D1D1" d="M198.357,96.454c0,0.798,0.531,1.439,1.197,1.439
				c0.66,0,1.196-0.642,1.196-1.439s-0.536-1.446-1.196-1.446C198.889,95.008,198.357,95.656,198.357,96.454"/>
		</g>
	</g>
	<polyline fill="none" stroke="#597F5D" stroke-width="1.115" stroke-linecap="round" stroke-miterlimit="10" points="
		176.172,44.049 123.411,104.865 108.208,51.032 172.36,34.153 	"/>
	
		<line fill="none" stroke="#597F5D" stroke-width="0.743" stroke-linecap="round" stroke-miterlimit="10" x1="106.845" y1="52.067" x2="67.935" y2="95.3"/>
	
		<line fill="none" stroke="#597F5D" stroke-width="1.115" stroke-linecap="round" stroke-miterlimit="10" x1="69.75" y1="97.114" x2="123.723" y2="105.484"/>
	
		<line fill="none" stroke="#597F5D" stroke-width="1.115" stroke-linecap="square" stroke-miterlimit="10" x1="105.495" y1="41.322" x2="108.716" y2="52.83"/>
	<path fill="none" stroke="#DEDCDD" stroke-width="1.115" stroke-miterlimit="10" d="M105.128,39.665l-2.774-10.146
		c0,0-0.99-1.466-3.709-1.466c-2.722,0-3.089-4.549-3.089-4.549"/>
	<g>
		<g>
			<defs>
				<rect id="SVGID_35_" x="96.763" y="24.233" width="9.254" height="14.333"/>
			</defs>
			<clipPath id="SVGID_36_">
				<use xlink:href="#SVGID_35_"  overflow="visible"/>
			</clipPath>
			<path clip-path="url(#SVGID_36_)" fill="#DEDCDD" d="M96.763,24.234c0.359,1.498,1.228,3.021,2.944,2.787
				c1.535,0.243,3.186,0.977,3.976,2.509c0.557,1.539,0.861,3.003,1.276,4.513c0.41,1.49,0.759,3,1.058,4.523
				c-0.524-1.462-1.004-2.933-1.437-4.418c-0.469-1.453-0.883-3.01-1.43-4.36c-0.597-1.315-2.059-2.091-3.512-2.381
				c-0.375-0.093-0.716-0.079-1.161-0.191c-0.415-0.131-0.75-0.426-0.985-0.756C97.049,25.776,96.857,25.001,96.763,24.234"/>
		</g>
	</g>
	<g>
		<g>
			<defs>
				<rect id="SVGID_37_" x="94.458" y="24.495" width="9.312" height="14.908"/>
			</defs>
			<clipPath id="SVGID_38_">
				<use xlink:href="#SVGID_37_"  overflow="visible"/>
			</clipPath>
			<path clip-path="url(#SVGID_38_)" fill="#908E8F" d="M94.458,24.497c0.21,1.578,0.895,3.176,2.197,4.009
				c0.646,0.422,1.41,0.562,2.211,0.703l1.188,0.194c0.367,0.08,0.89,0.067,1.273,0.539c0.755,1.612,1.042,3.135,1.452,4.718
				c0.403,1.564,0.728,3.146,0.989,4.743c-0.489-1.542-0.943-3.089-1.369-4.645c-0.446-1.512-0.898-3.172-1.546-4.462
				c-0.296-0.383-1.367-0.395-2.088-0.607c-0.773-0.167-1.631-0.356-2.329-0.858C94.992,27.862,94.44,26.087,94.458,24.497"/>
		</g>
	</g>
	
		<line fill="none" stroke="#DEDCDD" stroke-width="0.518" stroke-linecap="round" stroke-miterlimit="10" x1="89.02" y1="26.641" x2="95.373" y2="26.641"/>
	
		<line fill="none" stroke="#597F5D" stroke-width="0.186" stroke-linecap="round" stroke-miterlimit="10" x1="106.971" y1="38.943" x2="102.053" y2="40.226"/>
	<path fill="#DEDCDD" d="M98.016,27.069c0,1.024-0.833,1.858-1.854,1.858c-1.026,0-1.858-0.834-1.858-1.858
		c0-1.023,0.832-1.854,1.858-1.854C97.183,25.215,98.016,26.046,98.016,27.069"/>
	<path fill="#B2B1B1" d="M97.006,27.069c0,0.466-0.381,0.847-0.845,0.847c-0.467,0-0.846-0.38-0.846-0.847
		c0-0.465,0.379-0.842,0.846-0.842C96.625,26.227,97.006,26.604,97.006,27.069"/>
	<path fill="#975F5A" d="M85.067,14.756h28.868c0,0,3.906,0,3.56,4.462c0,0,0.14,1.953-3.56,2.094
		c-3.694,0.141-7.183,0.766-9.483,3.067c-2.3,2.3-8.506,3.071-13.318,1.254c-4.81-1.813-7.949-4.604-8.299-5.856
		C82.491,18.522,82.067,15.243,85.067,14.756"/>
	<g>
		<g>
			<defs>
				<rect id="SVGID_39_" x="110.343" y="32.954" width="61.581" height="16.214"/>
			</defs>
			<clipPath id="SVGID_40_">
				<use xlink:href="#SVGID_39_"  overflow="visible"/>
			</clipPath>
			<path clip-path="url(#SVGID_40_)" fill="#597F5D" d="M171.924,32.955c-10.198,2.951-20.479,5.586-30.715,8.392
				c-10.29,2.601-20.535,5.369-30.866,7.823c10.199-2.948,20.481-5.588,30.716-8.394C151.349,38.178,161.599,35.413,171.924,32.955"
				/>
		</g>
	</g>
	<g>
		<g>
			<defs>
				<rect id="SVGID_41_" x="111.397" y="35.205" width="61.583" height="16.21"/>
			</defs>
			<clipPath id="SVGID_42_">
				<use xlink:href="#SVGID_41_"  overflow="visible"/>
			</clipPath>
			<path clip-path="url(#SVGID_42_)" fill="#597F5D" d="M172.98,35.205c-10.198,2.948-20.479,5.585-30.716,8.39
				c-10.292,2.602-20.537,5.37-30.867,7.825c10.197-2.954,20.479-5.589,30.714-8.395C152.406,40.425,162.65,37.662,172.98,35.205"/>
		</g>
	</g>
	<g>
		<g>
			<defs>
				<rect id="SVGID_43_" x="125.302" y="43.308" width="49.892" height="57.991"/>
			</defs>
			<clipPath id="SVGID_44_">
				<use xlink:href="#SVGID_43_"  overflow="visible"/>
			</clipPath>
			<path clip-path="url(#SVGID_44_)" fill="#597F5D" d="M175.193,43.31c-8.123,9.831-16.485,19.456-24.722,29.189
				c-8.394,9.595-16.66,19.3-25.17,28.8c8.121-9.833,16.487-19.451,24.723-29.189C158.421,62.515,166.684,52.809,175.193,43.31"/>
		</g>
	</g>
	<g>
		<g>
			<defs>
				<rect id="SVGID_45_" x="126.67" y="44.691" width="49.896" height="57.985"/>
			</defs>
			<clipPath id="SVGID_46_">
				<use xlink:href="#SVGID_45_"  overflow="visible"/>
			</clipPath>
			<path clip-path="url(#SVGID_46_)" fill="#597F5D" d="M176.565,44.691c-8.122,9.832-16.487,19.455-24.725,29.187
				c-8.394,9.597-16.661,19.304-25.171,28.798c8.123-9.831,16.488-19.45,24.726-29.185
				C159.789,63.896,168.056,54.189,176.565,44.691"/>
		</g>
	</g>
	<g>
		<g>
			<defs>
				<rect id="SVGID_47_" x="109.715" y="52.83" width="13.493" height="48.469"/>
			</defs>
			<clipPath id="SVGID_48_">
				<use xlink:href="#SVGID_47_"  overflow="visible"/>
			</clipPath>
			<path clip-path="url(#SVGID_48_)" fill="#597F5D" d="M109.715,52.831c2.493,8.008,4.68,16.106,7.03,24.155
				c2.148,8.103,4.459,16.167,6.466,24.313c-2.5-8.008-4.686-16.104-7.037-24.155C114.027,69.04,111.718,60.975,109.715,52.831"/>
		</g>
	</g>
	<g>
		<g>
			<defs>
				<rect id="SVGID_49_" x="106.017" y="40.226" width="2.699" height="8.942"/>
			</defs>
			<clipPath id="SVGID_50_">
				<use xlink:href="#SVGID_49_"  overflow="visible"/>
			</clipPath>
			<path clip-path="url(#SVGID_50_)" fill="#597F5D" d="M106.017,40.226c0.691,1.417,1.082,2.927,1.633,4.385
				c0.352,1.523,0.859,2.994,1.066,4.557c-0.695-1.417-1.08-2.926-1.634-4.384C106.733,43.262,106.223,41.791,106.017,40.226"/>
		</g>
	</g>
	<g>
		<g>
			<defs>
				<rect id="SVGID_51_" x="107.699" y="53.666" width="13.49" height="48.474"/>
			</defs>
			<clipPath id="SVGID_52_">
				<use xlink:href="#SVGID_51_"  overflow="visible"/>
			</clipPath>
			<path clip-path="url(#SVGID_52_)" fill="#597F5D" d="M107.699,53.666c2.494,8.011,4.679,16.106,7.03,24.155
				c2.147,8.104,4.459,16.167,6.46,24.318c-2.493-8.014-4.681-16.109-7.027-24.158C112.014,69.875,109.704,61.811,107.699,53.666"/>
		</g>
	</g>
	<g>
		<g>
			<defs>
				<rect id="SVGID_53_" x="104.002" y="41.062" width="2.699" height="8.943"/>
			</defs>
			<clipPath id="SVGID_54_">
				<use xlink:href="#SVGID_53_"  overflow="visible"/>
			</clipPath>
			<path clip-path="url(#SVGID_54_)" fill="#597F5D" d="M104.002,41.062c0.693,1.417,1.083,2.927,1.631,4.385
				c0.35,1.523,0.862,2.994,1.068,4.559c-0.695-1.419-1.084-2.927-1.631-4.386C104.719,44.099,104.211,42.627,104.002,41.062"/>
		</g>
	</g>
	
		<line fill="none" stroke="#777676" stroke-width="0.262" stroke-miterlimit="10" x1="73.893" y1="120.1" x2="124.113" y2="118.221"/>
	
		<line fill="none" stroke="#838383" stroke-width="0.262" stroke-miterlimit="10" x1="71.885" y1="93.81" x2="123.329" y2="93.948"/>
	<path fill="#4F4C4D" d="M71.683,101.979c0,0,3.482,1.321,3.482,4.038v4.602l-1.674,1.257v1.464c0,0,2.927,0.627,2.927,2.928
		c0,2.3-1.361,3.976-3.557,3.976c-2.198,0-2.616-3.353-2.616-5.336c0-1.987,1.256-1.152,1.256-1.152v-1.776v-2.197l-2.198-0.313
		l-0.834-1.464v-9.204L71.683,101.979z"/>
	<path fill="#656364" d="M74.535,96.393c0,3.812-3.092,6.903-6.905,6.903c-3.812,0-6.9-3.092-6.9-6.903
		c0-3.81,3.088-6.905,6.9-6.905C71.442,89.487,74.535,92.583,74.535,96.393"/>
	<path fill="#4F4C4D" d="M73.491,96.393c0,3.234-2.625,5.855-5.861,5.855c-3.234,0-5.857-2.621-5.857-5.855
		c0-3.233,2.624-5.858,5.857-5.858C70.866,90.534,73.491,93.16,73.491,96.393"/>
	<path fill="none" stroke="#656364" stroke-width="0.262" stroke-miterlimit="10" d="M61.564,97.125c0,0-5.488,0.417-5.488,5.493
		c0,5.069,10.716,10.721,10.716,0"/>
	<path fill="#4F4C4D" d="M123.329,92.802c-7.135,0-12.916,5.783-12.916,12.915c0,7.138,5.781,12.918,12.916,12.918
		c7.138,0,12.921-5.78,12.921-12.918C136.25,98.585,130.467,92.802,123.329,92.802 M114.82,111.697
		c-1.16-1.647-1.854-3.647-1.889-5.811l2.923-0.051c0.024,1.556,0.525,2.992,1.362,4.177L114.82,111.697z M129.448,110.013
		c0.832-1.185,1.329-2.621,1.354-4.177l2.928,0.051c-0.035,2.163-0.729,4.161-1.892,5.811L129.448,110.013z M131.646,99.474
		l-2.344,1.762c-0.892-1.191-2.121-2.094-3.549-2.587l0.948-2.767C128.691,96.561,130.401,97.828,131.646,99.474 M119.959,95.881
		l0.948,2.767c-1.429,0.493-2.66,1.396-3.551,2.587l-2.341-1.762C116.259,97.828,117.967,96.561,119.959,95.881 M120.272,115.668
		l0.862-2.8c0.692,0.213,1.431,0.331,2.194,0.331c0.768,0,1.503-0.118,2.2-0.331l0.86,2.8c-0.969,0.295-1.995,0.461-3.061,0.461
		C122.268,116.129,121.237,115.963,120.272,115.668"/>
	<path fill="none" stroke="#838383" stroke-width="0.262" stroke-miterlimit="10" d="M106.411,47.597
		c-3.269,0-5.688,1.484-7.429,4.285c-1.592,2.552-1.712,6.021-3.661,8.161"/>
	<polygon fill="#597F5D" points="90.198,69.51 88.16,67.314 95.793,60.043 97.257,61.559 	"/>
	<g>
		<g>
			<defs>
				<rect id="SVGID_55_" x="88.16" y="60.043" width="8.216" height="7.886"/>
			</defs>
			<clipPath id="SVGID_56_">
				<use xlink:href="#SVGID_55_"  overflow="visible"/>
			</clipPath>
			<polygon clip-path="url(#SVGID_56_)" fill="#597F5D" points="96.376,60.65 95.793,60.043 88.16,67.314 88.728,67.93 			"/>
		</g>
	</g>
	
		<line fill="none" stroke="#DDE4DD" stroke-width="1.115" stroke-linecap="round" stroke-miterlimit="10" x1="86.9" y1="66.79" x2="94.694" y2="59.312"/>
	
		<line fill="none" stroke="#C7C6C6" stroke-width="0.743" stroke-miterlimit="10" x1="123.522" y1="105.373" x2="144.199" y2="107.987"/>
	<path fill="#7C797A" d="M125.302,105.373c0,0.981-0.796,1.779-1.779,1.779c-0.982,0-1.776-0.798-1.776-1.779
		c0-0.983,0.794-1.781,1.776-1.781C124.506,103.592,125.302,104.39,125.302,105.373"/>
	<circle fill="none" stroke="#C7C6C6" stroke-width="0.262" stroke-miterlimit="10" cx="123.524" cy="105.373" r="1.778"/>
	<path fill="#221F1F" d="M150.754,110.566c0,1.157-0.938,2.093-2.096,2.093h-6.686c-1.157,0-2.093-0.936-2.093-2.093v-1.033
		c0-1.153,0.936-2.089,2.093-2.089h6.686c1.157,0,2.096,0.936,2.096,2.089V110.566z"/>
	<path fill="none" stroke="#838383" stroke-width="0.557" stroke-linecap="round" stroke-miterlimit="10" d="M67.079,96.622
		l-28.87-40.029c0,0-4.461-7.808,3.489-7.808h41.278c0,0,2.927-0.84,2.927-3.906"/>
	<rect x="49.506" y="48.785" fill="#D2D1D1" stroke="#838383" stroke-miterlimit="10" width="19.246" height="3.208"/>
	
		<line fill="none" stroke="#838383" stroke-width="0.262" stroke-miterlimit="10" x1="71.402" y1="48.785" x2="67.079" y2="96.622"/>
	<line fill="none" stroke="#A8A8A8" stroke-width="0.262" stroke-miterlimit="10" x1="59.13" y1="55.34" x2="67.079" y2="96.622"/>
	<path fill="none" stroke="#D2D1D1" stroke-width="1.115" stroke-miterlimit="10" d="M172.771,29.404c0,0-3.139-7.217-1.674-9.935
		c1.466-2.72,6.59-6.277,6.59-6.277"/>
	<g>
		<g>
			<defs>
				<rect id="SVGID_57_" x="169.5" y="13.192" width="6.445" height="15.725"/>
			</defs>
			<clipPath id="SVGID_58_">
				<use xlink:href="#SVGID_57_"  overflow="visible"/>
			</clipPath>
			<path clip-path="url(#SVGID_58_)" fill="#D2D1D1" d="M175.945,13.192c-1.144,1.027-2.266,2.075-3.352,3.145
				c-1.013,1.074-2.196,2.271-2.487,3.596c-0.158,1.437,0.102,2.995,0.354,4.488c0.299,1.497,0.579,3.003,0.952,4.493
				c-0.599-1.422-1.015-2.909-1.339-4.417c-0.309-1.514-0.662-3.012-0.552-4.647c0.477-1.698,1.72-2.701,2.798-3.798
				C173.436,14.986,174.661,14.042,175.945,13.192"/>
		</g>
	</g>
	<path fill="none" stroke="#433F40" stroke-width="1.486" stroke-linecap="round" stroke-miterlimit="10" d="M165.762,12.161
		c4.882,0.628,14.379-0.048,19.275-0.514c2.898-0.278,2.428-1.052-0.062-1.174c-3.55-0.173-7.409-0.169-10.981-0.169"/>
	
		<line fill="none" stroke="#597F5D" stroke-width="0.186" stroke-linecap="round" stroke-miterlimit="10" x1="174.688" y1="28.898" x2="169.773" y2="30.177"/>
</g>
</svg>
