<?xml version="1.0" encoding="utf-8"?>
<!-- Generator: Adobe Illustrator 15.0.0, SVG Export Plug-In . SVG Version: 6.00 Build 0)  -->
<!DOCTYPE svg PUBLIC "-//W3C//DTD SVG 1.1//EN" "http://www.w3.org/Graphics/SVG/1.1/DTD/svg11.dtd">
<svg version="1.1" id="Layer_1" xmlns="http://www.w3.org/2000/svg" xmlns:xlink="http://www.w3.org/1999/xlink" x="0px" y="0px"
	 width="158.298px" height="125.707px" viewBox="0 0 158.298 125.707" enable-background="new 0 0 158.298 125.707"
	 xml:space="preserve">
<g>
	<path fill="#303531" d="M94.546,29.619c0,0.817-0.6,1.479-1.344,1.479c-0.745,0-1.347-0.663-1.347-1.479
		c0-0.815,0.602-1.477,1.347-1.477C93.946,28.142,94.546,28.804,94.546,29.619"/>
	<path fill="#525652" d="M95.474,28.142l-2.467,0.27c0,0-1.03,0.512-0.806,1.366c0.217,0.855,1.363,1.027,1.363,1.027l2.812,0.293
		L95.474,28.142z"/>
	<path fill="#E9E9E9" d="M114.112,23.068c0,0,2.64-0.198,3.712,1.467c1.077,1.659,2.247,3.939,2.284,4.592
		c0.033,0.652,1.464,5.93-0.295,7.362c0,0-1.374,0.717-2.411,0.684C116.361,37.142,114.112,23.068,114.112,23.068"/>
	<g opacity="0.5">
		<g>
			<defs>
				<rect id="SVGID_1_" x="114.103" y="23.06" width="6.582" height="14.115"/>
			</defs>
			<clipPath id="SVGID_2_">
				<use xlink:href="#SVGID_1_"  overflow="visible"/>
			</clipPath>
			<path clip-path="url(#SVGID_2_)" fill="#E9E9E9" d="M114.112,23.068c0,0,2.64-0.198,3.712,1.467
				c1.077,1.659,2.247,3.939,2.284,4.592c0.033,0.652,1.464,5.93-0.295,7.362c0,0-1.374,0.717-2.411,0.684
				C116.361,37.142,114.112,23.068,114.112,23.068"/>
		</g>
	</g>
	<g opacity="0.5">
		<g>
			<defs>
				<rect id="SVGID_3_" x="116.543" y="35.34" width="3.921" height="1.834"/>
			</defs>
			<clipPath id="SVGID_4_">
				<use xlink:href="#SVGID_3_"  overflow="visible"/>
			</clipPath>
			<path clip-path="url(#SVGID_4_)" fill="#E9E9E9" d="M116.539,35.418c0.309,1.063,0.598,1.75,0.824,1.754
				c1.042,0.033,2.415-0.684,2.415-0.684c0.33-0.266,0.543-0.668,0.679-1.148c-0.574,0.15-2.11,0.51-3.337,0.488
				C116.947,35.827,116.75,35.676,116.539,35.418"/>
		</g>
	</g>
	<g opacity="0.5">
		<g>
			<defs>
				<rect id="SVGID_5_" x="114.103" y="23.06" width="5.082" height="3.812"/>
			</defs>
			<clipPath id="SVGID_6_">
				<use xlink:href="#SVGID_5_"  overflow="visible"/>
			</clipPath>
			<path clip-path="url(#SVGID_6_)" fill="#E9E9E9" d="M119.183,26.872c-0.398-0.773-0.886-1.616-1.356-2.337
				c-1.074-1.665-3.714-1.467-3.714-1.467s0.088,0.547,0.234,1.42c1.196,0.125,2.626,0.418,3.44,1.109
				C118.258,25.995,118.737,26.435,119.183,26.872"/>
		</g>
	</g>
	<g opacity="0.5">
		<g>
			<defs>
				<rect id="SVGID_7_" x="114.103" y="24.5" width="6.002" height="10.714"/>
			</defs>
			<clipPath id="SVGID_8_">
				<use xlink:href="#SVGID_7_"  overflow="visible"/>
			</clipPath>
			<path clip-path="url(#SVGID_8_)" fill="#D6D5D5" d="M114.112,24.506c0,0,2.403-0.15,3.38,1.112
				c0.982,1.262,2.048,2.996,2.079,3.486c0.031,0.495,1.337,4.501-0.266,5.588c0,0-1.252,0.545-2.196,0.523
				C116.16,35.192,114.112,24.506,114.112,24.506"/>
		</g>
	</g>
	<path fill="#525652" d="M4.624,93.11h1.107l1.954-0.716l37.788,17.463c0,0,15.572,0.52,20.197-4.628
		c4.624-5.149-12.054-15.052-12.054-15.052l-41.762-8.535L4.624,93.11z"/>
	<g>
		<g>
			<defs>
				<rect id="SVGID_9_" x="9.082" y="83.593" width="55.162" height="24.325"/>
			</defs>
			<clipPath id="SVGID_10_">
				<use xlink:href="#SVGID_9_"  overflow="visible"/>
			</clipPath>
			<path clip-path="url(#SVGID_10_)" fill="#525652" d="M51.385,91.861L10.92,83.593l-1.84,2.919l38.933,7.956
				c0,0,13.634,8.098,12.829,13.45c0.934-0.288,1.815-0.624,2.613-1.02C68.028,101.744,51.385,91.861,51.385,91.861"/>
		</g>
	</g>
	<path fill="#231F20" d="M44.928,104.222c0-10.938-8.867-19.808-19.807-19.808c-10.939,0-19.806,8.869-19.806,19.808
		c0,10.94,8.867,19.809,19.806,19.809C36.061,124.03,44.928,115.162,44.928,104.222"/>
	<g>
		<g>
			<defs>
				<rect id="SVGID_11_" x="10.143" y="93.794" width="25.41" height="25.416"/>
			</defs>
			<clipPath id="SVGID_12_">
				<use xlink:href="#SVGID_11_"  overflow="visible"/>
			</clipPath>
			<path clip-path="url(#SVGID_12_)" fill="#231F20" d="M10.137,104.222c0,8.277,6.706,14.988,14.984,14.988
				c4.057,0,7.732-1.616,10.428-4.232L14.367,93.794C11.749,96.488,10.137,100.165,10.137,104.222"/>
		</g>
	</g>
	<g>
		<g>
			<defs>
				<rect id="SVGID_13_" x="14.366" y="89.235" width="25.75" height="25.742"/>
			</defs>
			<clipPath id="SVGID_14_">
				<use xlink:href="#SVGID_13_"  overflow="visible"/>
			</clipPath>
			<path clip-path="url(#SVGID_14_)" fill="#231F20" d="M40.108,104.222c0-8.276-6.71-14.986-14.987-14.986
				c-4.22,0-8.03,1.749-10.754,4.559l21.182,21.184C38.361,112.252,40.108,108.442,40.108,104.222"/>
		</g>
	</g>
	<path fill="#A8A5A6" d="M38.859,104.222c0-7.587-6.148-13.737-13.738-13.737c-7.588,0-13.735,6.15-13.735,13.737
		s6.147,13.739,13.735,13.739C32.71,117.961,38.859,111.809,38.859,104.222"/>
	<path fill="#928F90" d="M35.831,104.054c0-5.912-4.795-10.703-10.709-10.703c-5.916,0-10.707,4.791-10.707,10.703
		c0,5.914,4.791,10.707,10.707,10.707C31.036,114.761,35.831,109.968,35.831,104.054"/>
	<path fill="#B1AFB0" d="M28.812,104.222c0-2.035-1.653-3.69-3.691-3.69c-2.04,0-3.692,1.655-3.692,3.69
		c0,2.04,1.653,3.69,3.692,3.69C27.159,107.912,28.812,106.262,28.812,104.222"/>
	<path fill="#3E3B3B" d="M25.121,112.579c-5.517,0-10.05-4.172-10.636-9.529c-0.043,0.387-0.07,0.781-0.07,1.176
		c0,5.916,4.792,10.709,10.707,10.709c5.917,0,10.709-4.793,10.709-10.709c0-0.395-0.027-0.789-0.064-1.176
		C35.18,108.407,30.635,112.579,25.121,112.579"/>
	<path fill="#B1AFB0" d="M27.523,104.222c0-1.324-1.075-2.399-2.402-2.399c-1.324,0-2.401,1.075-2.401,2.399
		c0,1.328,1.077,2.403,2.401,2.403C26.448,106.625,27.523,105.55,27.523,104.222"/>
	<path fill="#E9E9E9" d="M25.813,102.805c0-0.282-0.311-0.521-0.692-0.521c-0.378,0-0.691,0.238-0.691,0.521
		c0,0.288,0.313,0.52,0.691,0.52C25.502,103.324,25.813,103.093,25.813,102.805"/>
	<path fill="none" stroke="#C0AB74" stroke-width="1.954" stroke-miterlimit="10" d="M31.437,103.858
		c0-3.457-2.796-6.257-6.252-6.257c-3.455,0-6.255,2.8-6.255,6.257c0,3.45,2.8,6.253,6.255,6.253
		C28.64,110.111,31.437,107.309,31.437,103.858z"/>
	<g>
		<g>
			<defs>
				<rect id="SVGID_15_" x="16.905" y="95.574" width="16.067" height="16.217"/>
			</defs>
			<clipPath id="SVGID_16_">
				<use xlink:href="#SVGID_15_"  overflow="visible"/>
			</clipPath>
			<path clip-path="url(#SVGID_16_)" fill="#DCDBDB" d="M25.118,99.484c0.504,0,0.982,0.089,1.434,0.249l-1.12-4.146
				c-0.107-0.002-0.211-0.014-0.314-0.014c-1.024,0-2.001,0.194-2.904,0.539l0.516,4.091C23.414,99.753,24.232,99.484,25.118,99.484
				"/>
			<path clip-path="url(#SVGID_16_)" fill="#DCDBDB" d="M20.813,103.782c0-0.915,0.292-1.765,0.784-2.464l-4.232-0.215
				c-0.293,0.843-0.458,1.742-0.458,2.679c0,0.178,0.016,0.353,0.025,0.521l4.084,0.778
				C20.886,104.673,20.813,104.237,20.813,103.782"/>
			<path clip-path="url(#SVGID_16_)" fill="#DCDBDB" d="M25.118,108.081c-1.308,0-2.479-0.586-3.267-1.509l-1.487,3.896
				c0.877,0.623,1.877,1.08,2.958,1.32l2.042-3.718C25.282,108.074,25.2,108.081,25.118,108.081"/>
			<path clip-path="url(#SVGID_16_)" fill="#DCDBDB" d="M32.181,107.938l-2.905-3.088c-0.336,1.318-1.286,2.4-2.528,2.91
				l3.245,2.617C30.872,109.719,31.62,108.89,32.181,107.938"/>
			<path clip-path="url(#SVGID_16_)" fill="#DCDBDB" d="M29.412,103.733l3.56-2.323c-0.322-1.069-0.86-2.047-1.563-2.888
				l-3.779,1.779C28.697,101.074,29.398,102.323,29.412,103.733"/>
		</g>
	</g>
	<path fill="#7C7A7A" d="M25.121,105.888c-1.203,0-2.194-0.878-2.372-2.029c-0.016,0.117-0.029,0.237-0.029,0.363
		c0,1.328,1.077,2.403,2.401,2.403c1.327,0,2.402-1.075,2.402-2.403c0-0.126-0.014-0.246-0.029-0.363
		C27.316,105.01,26.323,105.888,25.121,105.888"/>
	<polygon fill="#B1AFB0" points="25.161,91.619 25.161,101.396 23.177,101.396 23.854,91.619 25.161,90.971 	"/>
	<polygon fill="#CFCFCE" points="25.161,91.619 25.161,101.396 27.142,101.396 26.462,91.619 25.161,90.971 	"/>
	<path fill="#727171" d="M26.454,99.087c0-0.716-0.578-1.293-1.293-1.293s-1.295,0.577-1.295,1.293s0.58,1.295,1.295,1.295
		S26.454,99.803,26.454,99.087"/>
	<circle fill="none" stroke="#DCDBDB" stroke-width="0.163" stroke-miterlimit="10" cx="25.16" cy="99.087" r="0.726"/>
	<polygon fill="#B1AFB0" points="13.037,100.35 22.331,103.37 21.722,105.253 12.634,101.594 12.417,100.15 	"/>
	<polygon fill="#CFCFCE" points="13.037,100.35 22.331,103.37 22.947,101.486 13.443,99.108 12.417,100.15 	"/>
	<path fill="#727171" d="M20.538,101.426c-0.68-0.217-1.413,0.154-1.629,0.835c-0.223,0.68,0.148,1.406,0.828,1.623
		c0.68,0.225,1.409-0.146,1.632-0.83C21.589,102.377,21.22,101.646,20.538,101.426"/>
	<path fill="none" stroke="#DCDBDB" stroke-width="0.163" stroke-miterlimit="10" d="M20.364,101.969
		c-0.383-0.12-0.793,0.086-0.917,0.467c-0.121,0.38,0.086,0.785,0.465,0.908c0.379,0.124,0.789-0.083,0.91-0.462
		C20.95,102.503,20.741,102.092,20.364,101.969z"/>
	<polygon fill="#B1AFB0" points="17.595,114.577 23.337,106.668 24.94,107.836 18.65,115.344 17.208,115.104 	"/>
	<polygon fill="#CFCFCE" points="17.595,114.577 23.337,106.668 21.737,105.508 16.536,113.81 17.208,115.104 	"/>
	<path fill="#727171" d="M20.935,107.777c-0.422,0.579-0.293,1.388,0.287,1.806c0.574,0.418,1.387,0.294,1.805-0.285
		c0.42-0.578,0.289-1.387-0.285-1.809C22.166,107.07,21.353,107.199,20.935,107.777"/>
	<path fill="none" stroke="#DCDBDB" stroke-width="0.163" stroke-miterlimit="10" d="M21.394,108.11
		c-0.232,0.328-0.162,0.776,0.164,1.012c0.32,0.238,0.773,0.162,1.008-0.16c0.236-0.322,0.164-0.773-0.16-1.009
		C22.083,107.717,21.628,107.788,21.394,108.11z"/>
	<polygon fill="#B1AFB0" points="32.53,114.642 26.786,106.734 28.391,105.571 33.585,113.872 32.913,115.168 	"/>
	<polygon fill="#CFCFCE" points="32.53,114.642 26.786,106.734 25.184,107.898 31.473,115.406 32.913,115.168 	"/>
	<path fill="#727171" d="M27.095,109.36c0.422,0.579,1.231,0.709,1.81,0.291c0.574-0.426,0.705-1.232,0.287-1.812
		c-0.422-0.576-1.231-0.704-1.812-0.283C26.806,107.975,26.677,108.784,27.095,109.36"/>
	<path fill="none" stroke="#DCDBDB" stroke-width="0.163" stroke-miterlimit="10" d="M27.556,109.024
		c0.237,0.324,0.692,0.395,1.013,0.164c0.322-0.236,0.393-0.691,0.162-1.013c-0.236-0.323-0.691-0.395-1.014-0.162
		C27.394,108.25,27.326,108.704,27.556,109.024z"/>
	<polygon fill="#B1AFB0" points="37.208,100.455 27.912,103.472 27.304,101.591 36.802,99.212 37.823,100.252 	"/>
	<polygon fill="#CFCFCE" points="37.208,100.455 27.912,103.472 28.525,105.354 37.611,101.693 37.823,100.252 	"/>
	<path fill="#727171" d="M30.506,103.989c0.68-0.221,1.051-0.947,0.83-1.623c-0.221-0.685-0.951-1.06-1.631-0.835
		c-0.68,0.221-1.053,0.948-0.828,1.63C29.097,103.841,29.828,104.21,30.506,103.989"/>
	<path fill="none" stroke="#DCDBDB" stroke-width="0.163" stroke-miterlimit="10" d="M30.333,103.45
		c0.377-0.123,0.586-0.533,0.463-0.912c-0.125-0.38-0.532-0.59-0.915-0.464c-0.375,0.121-0.586,0.53-0.461,0.91
		C29.539,103.363,29.948,103.571,30.333,103.45z"/>
	<g opacity="0.5">
		<g>
			<defs>
				<rect id="SVGID_17_" x="7.082" y="105.816" width="34.294" height="8.258"/>
			</defs>
			<clipPath id="SVGID_18_">
				<use xlink:href="#SVGID_17_"  overflow="visible"/>
			</clipPath>
			<path clip-path="url(#SVGID_18_)" fill="#525652" d="M41.366,111.77c-0.418,2.411-8.427,3.03-17.892,1.386
				c-9.46-1.646-16.793-4.928-16.375-7.339"/>
		</g>
	</g>
	<path fill="#252A26" d="M3.257,104.304c0,0,2.605-11.92,13.357-8.796l10.75,3.134c0,0,3.322-4.498,6.905-5.217l-0.913-4.818
		l16.942,5.275l5.211,12.901c0,0-7.884,6.774-19.156,5.861c-11.27-0.912-27.622-4.362-29.058-5.472l-1.761,0.914
		C5.536,108.087,3.322,106.586,3.257,104.304"/>
	<path fill="#D1D2D1" d="M8.861,105.871c0,0-3.128-1.892-1.631-4.494c1.502-2.61,3.912-7.559,13.359-3.456
		c9.447,4.107,16.091,8.47,16.091,8.47s2.736,1.892,0.325,2.997c-2.411,1.108-4.688,1.435-10.094,0.719
		C21.499,109.388,9.318,107.043,8.861,105.871"/>
	<path fill="#858986" d="M16.149,98.474c0,0.363-0.293,0.656-0.659,0.656c-0.365,0-0.658-0.293-0.658-0.656
		c0-0.367,0.293-0.664,0.658-0.664C15.856,97.81,16.149,98.106,16.149,98.474"/>
	<path fill="none" stroke="#CECFCD" stroke-width="0.098" stroke-miterlimit="10" d="M15.864,98.474
		c0,0.201-0.165,0.369-0.375,0.369c-0.202,0-0.37-0.168-0.37-0.369c0-0.209,0.168-0.373,0.37-0.373
		C15.7,98.101,15.864,98.265,15.864,98.474z"/>
	<path fill="#858986" d="M9.965,104.312c0,0.364-0.297,0.661-0.658,0.661c-0.364,0-0.661-0.297-0.661-0.661s0.297-0.657,0.661-0.657
		C9.668,103.655,9.965,103.948,9.965,104.312"/>
	<path fill="none" stroke="#CECFCD" stroke-width="0.098" stroke-miterlimit="10" d="M9.678,104.312c0,0.206-0.168,0.37-0.371,0.37
		c-0.209,0-0.372-0.164-0.372-0.37c0-0.204,0.163-0.372,0.372-0.372C9.51,103.94,9.678,104.108,9.678,104.312z"/>
	<path fill="#858986" d="M35.131,108.368c0,0.363-0.295,0.662-0.662,0.662c-0.359,0-0.657-0.299-0.657-0.662
		s0.297-0.656,0.657-0.656C34.836,107.712,35.131,108.005,35.131,108.368"/>
	<path fill="none" stroke="#CECFCD" stroke-width="0.098" stroke-miterlimit="10" d="M34.842,108.368
		c0,0.209-0.166,0.375-0.373,0.375c-0.201,0-0.369-0.166-0.369-0.375c0-0.203,0.168-0.372,0.369-0.372
		C34.676,107.996,34.842,108.165,34.842,108.368z"/>
	<path fill="#252A26" d="M23.557,102.451c-0.075,0.229-0.324,0.354-0.557,0.277l-6.137-2.091c-0.23-0.078-0.352-0.327-0.275-0.56
		c0.078-0.226,0.328-0.351,0.557-0.274l6.139,2.089C23.513,101.973,23.637,102.224,23.557,102.451"/>
	<path fill="#252A26" d="M22.117,103.493c-0.081,0.232-0.331,0.354-0.559,0.275l-6.139-2.089c-0.232-0.08-0.352-0.326-0.275-0.557
		c0.08-0.23,0.327-0.352,0.559-0.277l6.137,2.091C22.069,103.015,22.194,103.264,22.117,103.493"/>
	<path fill="#252A26" d="M20.19,104.673c-0.076,0.231-0.327,0.356-0.557,0.276l-6.137-2.089c-0.231-0.078-0.352-0.329-0.272-0.559
		c0.075-0.229,0.325-0.354,0.557-0.273l6.138,2.088C20.147,104.195,20.27,104.444,20.19,104.673"/>
	<path fill="#252A26" d="M18.975,106.158c-0.078,0.229-0.324,0.354-0.559,0.275l-6.135-2.089c-0.23-0.08-0.351-0.33-0.273-0.559
		c0.08-0.229,0.33-0.354,0.559-0.275l6.137,2.089C18.932,105.68,19.055,105.93,18.975,106.158"/>
	<g>
		<g>
			<defs>
				<rect id="SVGID_19_" x="16.565" y="100.074" width="7.003" height="2.676"/>
			</defs>
			<clipPath id="SVGID_20_">
				<use xlink:href="#SVGID_19_"  overflow="visible"/>
			</clipPath>
			<path clip-path="url(#SVGID_20_)" fill="#252A26" d="M23,102.447l-6.137-2.087c-0.137-0.046-0.232-0.156-0.269-0.286
				c0,0.002-0.004,0.002-0.006,0.006c-0.076,0.23,0.043,0.479,0.275,0.558L23,102.729c0.233,0.076,0.482-0.048,0.557-0.277
				c0.033-0.091,0.025-0.184-0.002-0.271C23.474,102.406,23.228,102.527,23,102.447"/>
		</g>
	</g>
	<g>
		<g>
			<defs>
				<rect id="SVGID_21_" x="15.125" y="101.114" width="7.003" height="2.678"/>
			</defs>
			<clipPath id="SVGID_22_">
				<use xlink:href="#SVGID_21_"  overflow="visible"/>
			</clipPath>
			<path clip-path="url(#SVGID_22_)" fill="#252A26" d="M21.558,103.493l-6.139-2.089c-0.137-0.047-0.234-0.156-0.27-0.287
				c0,0-0.006,0.002-0.006,0.006c-0.076,0.23,0.041,0.477,0.275,0.557l6.139,2.089c0.229,0.078,0.479-0.043,0.559-0.275
				c0.027-0.091,0.021-0.182-0.012-0.271C22.03,103.452,21.784,103.569,21.558,103.493"/>
		</g>
	</g>
	<g>
		<g>
			<defs>
				<rect id="SVGID_23_" x="13.205" y="102.295" width="7.003" height="2.677"/>
			</defs>
			<clipPath id="SVGID_24_">
				<use xlink:href="#SVGID_23_"  overflow="visible"/>
			</clipPath>
			<path clip-path="url(#SVGID_24_)" fill="#252A26" d="M19.633,104.673l-6.137-2.088c-0.137-0.047-0.231-0.159-0.272-0.29v0.007
				c-0.08,0.229,0.041,0.48,0.272,0.559l6.137,2.089c0.23,0.08,0.48-0.045,0.557-0.276c0.033-0.088,0.023-0.181-0.002-0.268
				C20.106,104.629,19.863,104.75,19.633,104.673"/>
		</g>
	</g>
	<g>
		<g>
			<defs>
				<rect id="SVGID_25_" x="11.983" y="103.78" width="7.022" height="2.677"/>
			</defs>
			<clipPath id="SVGID_26_">
				<use xlink:href="#SVGID_25_"  overflow="visible"/>
			</clipPath>
			<path clip-path="url(#SVGID_26_)" fill="#252A26" d="M18.416,106.158l-6.135-2.089c-0.139-0.047-0.23-0.162-0.269-0.287
				c0,0-0.004,0.002-0.004,0.004c-0.078,0.229,0.043,0.479,0.273,0.559l6.135,2.089c0.235,0.078,0.481-0.047,0.559-0.275
				c0.033-0.093,0.025-0.184,0-0.271C18.893,106.117,18.645,106.234,18.416,106.158"/>
		</g>
	</g>
	<path fill="#5B5859" d="M49.742,100.757c0-2.158-1.749-3.909-3.908-3.909h-0.716c-2.161,0-3.908,1.751-3.908,3.909v0.718
		c0,2.159,1.747,3.91,3.908,3.91h0.716c2.159,0,3.908-1.751,3.908-3.91V100.757z"/>
	<path fill="none" stroke="#231F20" stroke-width="0.195" stroke-miterlimit="10" d="M49.742,100.757
		c0-2.158-1.749-3.909-3.908-3.909h-0.716c-2.161,0-3.908,1.751-3.908,3.909v0.718c0,2.159,1.747,3.91,3.908,3.91h0.716
		c2.159,0,3.908-1.751,3.908-3.91V100.757z"/>
	<g>
		<g>
			<defs>
				<rect id="SVGID_27_" x="45.076" y="96.856" width="0.78" height="4.258"/>
			</defs>
			<clipPath id="SVGID_28_">
				<use xlink:href="#SVGID_27_"  overflow="visible"/>
			</clipPath>
			
				<line clip-path="url(#SVGID_28_)" fill="none" stroke="#231F20" stroke-width="0.391" stroke-miterlimit="10" x1="45.475" y1="101.114" x2="45.475" y2="96.856"/>
		</g>
	</g>
	<g>
		<g>
			<defs>
				<rect id="SVGID_29_" x="42.435" y="97.602" width="3.343" height="3.764"/>
			</defs>
			<clipPath id="SVGID_30_">
				<use xlink:href="#SVGID_29_"  overflow="visible"/>
			</clipPath>
			
				<line clip-path="url(#SVGID_30_)" fill="none" stroke="#231F20" stroke-width="0.391" stroke-miterlimit="10" x1="45.475" y1="101.114" x2="42.735" y2="97.853"/>
		</g>
	</g>
	<g>
		<g>
			<defs>
				<rect id="SVGID_31_" x="41.215" y="99.989" width="4.32" height="1.511"/>
			</defs>
			<clipPath id="SVGID_32_">
				<use xlink:href="#SVGID_31_"  overflow="visible"/>
			</clipPath>
			
				<line clip-path="url(#SVGID_32_)" fill="none" stroke="#231F20" stroke-width="0.391" stroke-miterlimit="10" x1="45.475" y1="101.114" x2="41.28" y2="100.373"/>
		</g>
	</g>
	<g>
		<g>
			<defs>
				<rect id="SVGID_33_" x="41.595" y="100.775" width="4.081" height="2.81"/>
			</defs>
			<clipPath id="SVGID_34_">
				<use xlink:href="#SVGID_33_"  overflow="visible"/>
			</clipPath>
			
				<line clip-path="url(#SVGID_34_)" fill="none" stroke="#231F20" stroke-width="0.391" stroke-miterlimit="10" x1="45.475" y1="101.114" x2="41.784" y2="103.244"/>
		</g>
	</g>
	<g>
		<g>
			<defs>
				<rect id="SVGID_35_" x="43.656" y="100.982" width="2.181" height="4.271"/>
			</defs>
			<clipPath id="SVGID_36_">
				<use xlink:href="#SVGID_35_"  overflow="visible"/>
			</clipPath>
			
				<line clip-path="url(#SVGID_36_)" fill="none" stroke="#231F20" stroke-width="0.391" stroke-miterlimit="10" x1="45.475" y1="101.114" x2="44.015" y2="105.121"/>
		</g>
	</g>
	<g>
		<g>
			<defs>
				<rect id="SVGID_37_" x="45.118" y="100.982" width="2.18" height="4.271"/>
			</defs>
			<clipPath id="SVGID_38_">
				<use xlink:href="#SVGID_37_"  overflow="visible"/>
			</clipPath>
			
				<line clip-path="url(#SVGID_38_)" fill="none" stroke="#231F20" stroke-width="0.391" stroke-miterlimit="10" x1="45.475" y1="101.114" x2="46.93" y2="105.121"/>
		</g>
	</g>
	<g>
		<g>
			<defs>
				<rect id="SVGID_39_" x="45.277" y="100.775" width="4.08" height="2.81"/>
			</defs>
			<clipPath id="SVGID_40_">
				<use xlink:href="#SVGID_39_"  overflow="visible"/>
			</clipPath>
			
				<line clip-path="url(#SVGID_40_)" fill="none" stroke="#231F20" stroke-width="0.391" stroke-miterlimit="10" x1="45.475" y1="101.114" x2="49.166" y2="103.244"/>
		</g>
	</g>
	<g>
		<g>
			<defs>
				<rect id="SVGID_41_" x="45.416" y="99.994" width="4.322" height="1.506"/>
			</defs>
			<clipPath id="SVGID_42_">
				<use xlink:href="#SVGID_41_"  overflow="visible"/>
			</clipPath>
			
				<line clip-path="url(#SVGID_42_)" fill="none" stroke="#231F20" stroke-width="0.391" stroke-miterlimit="10" x1="45.475" y1="101.114" x2="49.671" y2="100.377"/>
		</g>
	</g>
	<g>
		<g>
			<defs>
				<rect id="SVGID_43_" x="45.176" y="97.602" width="3.341" height="3.764"/>
			</defs>
			<clipPath id="SVGID_44_">
				<use xlink:href="#SVGID_43_"  overflow="visible"/>
			</clipPath>
			
				<line clip-path="url(#SVGID_44_)" fill="none" stroke="#231F20" stroke-width="0.391" stroke-miterlimit="10" x1="45.475" y1="101.114" x2="48.216" y2="97.853"/>
		</g>
	</g>
	<g>
		<g>
			<defs>
				<rect id="SVGID_45_" x="41.956" y="97.587" width="7.042" height="7.059"/>
			</defs>
			<clipPath id="SVGID_46_">
				<use xlink:href="#SVGID_45_"  overflow="visible"/>
			</clipPath>
			<path clip-path="url(#SVGID_46_)" fill="none" stroke="#231F20" stroke-width="0.391" stroke-miterlimit="10" d="M48.613,101.114
				c0-1.729-1.401-3.138-3.138-3.138c-1.737,0-3.136,1.408-3.136,3.138c0,1.733,1.399,3.14,3.136,3.14
				C47.212,104.254,48.613,102.848,48.613,101.114z"/>
		</g>
	</g>
	<g opacity="0.5">
		<g>
			<defs>
				<rect id="SVGID_47_" x="14.344" y="84.362" width="39.075" height="14.508"/>
			</defs>
			<clipPath id="SVGID_48_">
				<use xlink:href="#SVGID_47_"  overflow="visible"/>
			</clipPath>
			<path clip-path="url(#SVGID_48_)" fill="#525652" d="M53.425,95.212c-1.122,4.025-10.756,4.855-21.52,1.861
				c-10.764-2.995-18.582-8.686-17.461-12.711"/>
		</g>
	</g>
	<path fill="#1598C3" d="M8.869,83.175c0,0-7.62,6.839-7.817,10.355c-0.197,3.521,3.425,2.056,3.425,2.056s6.448-9.383,11.43-10.459
		C20.891,84.055,8.869,83.175,8.869,83.175"/>
	<g>
		<g>
			<defs>
				<rect id="SVGID_49_" x="7.501" y="83.175" width="9.564" height="4.553"/>
			</defs>
			<clipPath id="SVGID_50_">
				<use xlink:href="#SVGID_49_"  overflow="visible"/>
			</clipPath>
			<path clip-path="url(#SVGID_50_)" fill="#1598C3" d="M8.818,83.175c0,0-0.539,0.477-1.317,1.239l3.841,3.313
				c1.499-1.278,3.064-2.29,4.509-2.601C20.835,84.055,8.818,83.175,8.818,83.175"/>
		</g>
	</g>
	<path fill="#231F20" d="M158.178,104.613c0-10.938-8.864-19.805-19.809-19.805c-10.938,0-19.804,8.866-19.804,19.805
		c0,10.94,8.866,19.808,19.804,19.808C149.313,124.421,158.178,115.554,158.178,104.613"/>
	<g>
		<g>
			<defs>
				<rect id="SVGID_51_" x="123.385" y="94.183" width="25.41" height="25.418"/>
			</defs>
			<clipPath id="SVGID_52_">
				<use xlink:href="#SVGID_51_"  overflow="visible"/>
			</clipPath>
			<path clip-path="url(#SVGID_52_)" fill="#231F20" d="M123.387,104.613c0,8.275,6.708,14.987,14.982,14.987
				c4.056,0,7.733-1.615,10.431-4.232l-21.181-21.186C124.999,96.883,123.387,100.557,123.387,104.613"/>
		</g>
	</g>
	<g>
		<g>
			<defs>
				<rect id="SVGID_53_" x="127.627" y="89.628" width="25.73" height="25.74"/>
			</defs>
			<clipPath id="SVGID_54_">
				<use xlink:href="#SVGID_53_"  overflow="visible"/>
			</clipPath>
			<path clip-path="url(#SVGID_54_)" fill="#231F20" d="M153.357,104.613c0-8.277-6.71-14.985-14.988-14.985
				c-4.222,0-8.028,1.747-10.75,4.555l21.181,21.186C151.61,112.645,153.357,108.833,153.357,104.613"/>
		</g>
	</g>
	<path fill="#A8A5A6" d="M152.108,104.613c0-7.588-6.147-13.738-13.739-13.738c-7.585,0-13.733,6.15-13.733,13.738
		c0,7.586,6.148,13.738,13.733,13.738C145.961,118.352,152.108,112.199,152.108,104.613"/>
	<path fill="#928F90" d="M149.079,104.444c0-5.912-4.791-10.704-10.711-10.704c-5.913,0-10.704,4.792-10.704,10.704
		c0,5.916,4.791,10.707,10.704,10.707C144.288,115.151,149.079,110.36,149.079,104.444"/>
	<path fill="#B1AFB0" d="M142.062,104.613c0-2.039-1.655-3.691-3.693-3.691c-2.037,0-3.69,1.652-3.69,3.691s1.653,3.69,3.69,3.69
		C140.407,108.304,142.062,106.652,142.062,104.613"/>
	<path fill="#3E3B3B" d="M138.369,112.972c-5.516,0-10.053-4.17-10.639-9.532c-0.043,0.392-0.066,0.78-0.066,1.179
		c0,5.915,4.793,10.708,10.705,10.708c5.919,0,10.71-4.793,10.71-10.708c0-0.398-0.026-0.787-0.065-1.179
		C148.428,108.802,143.885,112.972,138.369,112.972"/>
	<path fill="#B1AFB0" d="M140.774,104.613c0-1.327-1.078-2.4-2.405-2.4c-1.322,0-2.399,1.073-2.399,2.4
		c0,1.328,1.077,2.403,2.399,2.403C139.696,107.017,140.774,105.941,140.774,104.613"/>
	<path fill="#E9E9E9" d="M139.063,103.196c0-0.288-0.312-0.518-0.694-0.518c-0.377,0-0.689,0.229-0.689,0.518
		c0,0.287,0.312,0.52,0.689,0.52C138.752,103.716,139.063,103.483,139.063,103.196"/>
	<path fill="none" stroke="#C0AB74" stroke-width="1.954" stroke-miterlimit="10" d="M144.687,104.249
		c0-3.458-2.797-6.258-6.253-6.258c-3.454,0-6.254,2.8-6.254,6.258c0,3.45,2.8,6.257,6.254,6.257
		C141.89,110.506,144.687,107.699,144.687,104.249z"/>
	<g>
		<g>
			<defs>
				<rect id="SVGID_55_" x="130.149" y="95.965" width="16.065" height="16.217"/>
			</defs>
			<clipPath id="SVGID_56_">
				<use xlink:href="#SVGID_55_"  overflow="visible"/>
			</clipPath>
			<path clip-path="url(#SVGID_56_)" fill="#DCDBDB" d="M138.368,99.872c0.503,0,0.982,0.094,1.432,0.25l-1.117-4.14
				c-0.108-0.006-0.214-0.018-0.314-0.018c-1.024,0-2,0.195-2.906,0.539l0.519,4.095C136.663,100.142,137.482,99.872,138.368,99.872
				"/>
			<path clip-path="url(#SVGID_56_)" fill="#DCDBDB" d="M134.062,104.173c0-0.916,0.291-1.767,0.784-2.463l-4.229-0.218
				c-0.294,0.846-0.46,1.743-0.46,2.681c0,0.178,0.016,0.35,0.025,0.521l4.086,0.779
				C134.135,105.062,134.062,104.629,134.062,104.173"/>
			<path clip-path="url(#SVGID_56_)" fill="#DCDBDB" d="M138.368,108.476c-1.309,0-2.48-0.59-3.268-1.515l-1.488,3.896
				c0.875,0.626,1.874,1.081,2.958,1.325l2.041-3.72C138.529,108.466,138.449,108.476,138.368,108.476"/>
			<path clip-path="url(#SVGID_56_)" fill="#DCDBDB" d="M145.433,108.332l-2.907-3.092c-0.337,1.322-1.288,2.398-2.526,2.909
				l3.241,2.616C144.121,110.111,144.869,109.284,145.433,108.332"/>
			<path clip-path="url(#SVGID_56_)" fill="#DCDBDB" d="M142.664,104.128l3.557-2.323c-0.32-1.072-0.862-2.054-1.563-2.89
				l-3.777,1.782C141.947,101.469,142.648,102.713,142.664,104.128"/>
		</g>
	</g>
	<path fill="#7C7A7A" d="M138.369,106.282c-1.201,0-2.189-0.884-2.369-2.033c-0.016,0.117-0.03,0.238-0.03,0.364
		c0,1.328,1.077,2.403,2.399,2.403c1.327,0,2.405-1.075,2.405-2.403c0-0.126-0.016-0.247-0.035-0.364
		C140.565,105.398,139.571,106.282,138.369,106.282"/>
	<polygon fill="#B1AFB0" points="138.41,92.01 138.41,101.788 136.429,101.788 137.104,92.01 138.41,91.359 	"/>
	<polygon fill="#CFCFCE" points="138.41,92.01 138.41,101.788 140.392,101.788 139.712,92.01 138.41,91.359 	"/>
	<path fill="#727171" d="M139.706,99.478c0-0.711-0.582-1.293-1.296-1.293c-0.717,0-1.297,0.582-1.297,1.293
		c0,0.716,0.58,1.292,1.297,1.292C139.124,100.77,139.706,100.193,139.706,99.478"/>
	<circle fill="none" stroke="#DCDBDB" stroke-width="0.163" stroke-miterlimit="10" cx="138.413" cy="99.478" r="0.725"/>
	<polygon fill="#B1AFB0" points="126.286,100.742 135.579,103.761 134.972,105.647 125.885,101.985 125.668,100.54 	"/>
	<polygon fill="#CFCFCE" points="126.286,100.742 135.579,103.761 136.195,101.877 126.691,99.497 125.668,100.54 	"/>
	<path fill="#727171" d="M133.788,101.818c-0.681-0.221-1.413,0.15-1.63,0.828c-0.223,0.685,0.148,1.411,0.828,1.632
		s1.408-0.15,1.632-0.828C134.839,102.771,134.468,102.037,133.788,101.818"/>
	<path fill="none" stroke="#DCDBDB" stroke-width="0.163" stroke-miterlimit="10" d="M133.612,102.36
		c-0.384-0.124-0.789,0.086-0.915,0.464c-0.121,0.381,0.086,0.79,0.465,0.911c0.379,0.127,0.792-0.084,0.911-0.463
		C134.199,102.894,133.991,102.483,133.612,102.36z"/>
	<polygon fill="#B1AFB0" points="130.845,114.969 136.587,107.062 138.191,108.226 131.896,115.738 130.458,115.493 	"/>
	<polygon fill="#CFCFCE" points="130.845,114.969 136.587,107.062 134.985,105.898 129.786,114.202 130.458,115.493 	"/>
	<path fill="#727171" d="M134.187,108.169c-0.423,0.574-0.293,1.387,0.285,1.806c0.574,0.422,1.388,0.292,1.806-0.286
		s0.288-1.387-0.286-1.805C135.415,107.461,134.604,107.591,134.187,108.169"/>
	<path fill="none" stroke="#DCDBDB" stroke-width="0.163" stroke-miterlimit="10" d="M134.644,108.501
		c-0.232,0.326-0.162,0.779,0.164,1.012c0.322,0.238,0.771,0.165,1.008-0.162c0.238-0.32,0.165-0.775-0.16-1.006
		C135.333,108.106,134.878,108.179,134.644,108.501z"/>
	<polygon fill="#B1AFB0" points="145.781,115.03 140.038,107.125 141.641,105.961 146.838,114.263 146.163,115.559 	"/>
	<polygon fill="#CFCFCE" points="145.781,115.03 140.038,107.125 138.434,108.29 144.722,115.801 146.163,115.559 	"/>
	<path fill="#727171" d="M140.343,109.751c0.424,0.581,1.232,0.706,1.812,0.288c0.576-0.418,0.705-1.232,0.285-1.809
		c-0.42-0.577-1.229-0.707-1.81-0.284C140.056,108.366,139.925,109.173,140.343,109.751"/>
	<path fill="none" stroke="#DCDBDB" stroke-width="0.163" stroke-miterlimit="10" d="M140.806,109.415
		c0.236,0.326,0.689,0.398,1.013,0.162c0.322-0.236,0.393-0.688,0.16-1.014c-0.234-0.32-0.689-0.392-1.013-0.156
		C140.646,108.64,140.571,109.095,140.806,109.415z"/>
	<polygon fill="#B1AFB0" points="150.454,100.846 141.157,103.864 140.55,101.979 150.052,99.604 151.075,100.642 	"/>
	<polygon fill="#CFCFCE" points="150.454,100.846 141.157,103.864 141.774,105.746 150.86,102.088 151.075,100.642 	"/>
	<path fill="#727171" d="M143.756,104.378c0.68-0.217,1.052-0.945,0.831-1.626c-0.223-0.68-0.951-1.051-1.63-0.828
		c-0.682,0.22-1.053,0.945-0.832,1.626C142.35,104.229,143.076,104.601,143.756,104.378"/>
	<path fill="none" stroke="#DCDBDB" stroke-width="0.163" stroke-miterlimit="10" d="M143.582,103.841
		c0.377-0.123,0.587-0.533,0.464-0.913c-0.124-0.379-0.531-0.585-0.915-0.462c-0.377,0.122-0.587,0.529-0.461,0.908
		C142.789,103.753,143.198,103.966,143.582,103.841z"/>
	<path fill="#B62427" d="M12.63,59.686l-3.155,0.148c0,0-0.977,0.021-1.588,0.828c-0.608,0.807-2.487,5.131-2.487,5.131
		s-0.395,1.962,0.535,2.435s6.913,0.352,6.913,0.352L12.63,59.686z"/>
	<path fill="#504D4E" d="M16.489,59.099l-3.91,0.442c0,0-1.221,0.779-1.614,1.512c-0.389,0.734-4.789,6.698-4.789,6.698L5.692,68.14
		l1.071,1.468L16.489,59.099z"/>
	<g>
		<g>
			<defs>
				<rect id="SVGID_57_" x="10.204" y="59.967" width="4.102" height="3.608"/>
			</defs>
			<clipPath id="SVGID_58_">
				<use xlink:href="#SVGID_57_"  overflow="visible"/>
			</clipPath>
			<path clip-path="url(#SVGID_58_)" fill="#504D4E" d="M11.99,59.967c-0.37,0.293-0.813,0.695-1.024,1.086
				c-0.084,0.162-0.367,0.584-0.756,1.14l2.138,1.383l1.956-2.114L11.99,59.967z"/>
		</g>
	</g>
	<g>
		<g>
			<defs>
				<rect id="SVGID_59_" x="5.702" y="66.848" width="2.681" height="2.76"/>
			</defs>
			<clipPath id="SVGID_60_">
				<use xlink:href="#SVGID_59_"  overflow="visible"/>
			</clipPath>
			<path clip-path="url(#SVGID_60_)" fill="#504D4E" d="M6.177,67.751L5.692,68.14l1.071,1.468l1.621-1.759l-1.545-1.001
				C6.442,67.396,6.177,67.751,6.177,67.751"/>
		</g>
	</g>
	<path fill="#2DA2C9" d="M134.199,73.562c0,0,16.806,3.653,21.175,12.705c0,0,1.04,1.694-0.848,1.629
		c-1.892-0.062-17.853-2.804-25.412,3.324c-7.556,6.123-11.79,5.082-11.79,5.082S122.402,73.562,134.199,73.562"/>
	<g>
		<g>
			<defs>
				<rect id="SVGID_61_" x="117.324" y="73.562" width="17.146" height="22.807"/>
			</defs>
			<clipPath id="SVGID_62_">
				<use xlink:href="#SVGID_61_"  overflow="visible"/>
			</clipPath>
			<path clip-path="url(#SVGID_62_)" fill="#72C1DB" d="M134.199,73.562c-11.797,0-16.875,22.74-16.875,22.74
				s3.883,0.952,10.848-4.346c0.525-5.133,2.027-13.649,6.292-18.329C134.292,73.585,134.199,73.562,134.199,73.562"/>
		</g>
	</g>
	<path fill="#1598C3" d="M19.393,56.622c0,0-14.724,11.859-15.766,19.159c0,0-1.141,1.006-1.206,1.918s-0.293,2.444-0.293,2.444
		s0.164,0.491,0.752,0.522c0,0,0.16,0.098,0.454,0.521c0.293,0.425,7.915,4.625,43.687,12.151c0,0,4.236,0.748,4.625,2.051
		l-0.204,1.392c0,0,0.318,0.32,0.514,0.441c0.195,0.123,0.441,0.366,0.441,0.366s0.486,5.91,4.541,8.065c0,0,0.344,0.34,1.174,0.34
		c0.831,0,2.884-0.123,2.884-0.123l0.783-0.195c0,0,0.657-0.121,1.512,0.516c0.856,0.635,2.589,2.121,2.589,2.121l2.519,0.149
		l0.244-0.293l1.565,0.022l8.134-2l18.619,0.684c0,0,12.869,2.198,21.404-10.637c8.538-12.837,6.547-13.748,11.236-18.194
		l4.74-5.084c0,0,2.884-2-0.436-9.335c-3.328-7.328-14.566-23.549-18.605-26.679c-4.038-3.124-5.926-11.334-5.926-11.334
		l-8.405-2.347l-0.393,1.562l-5.211,2.933c0,0-0.85,2.671-0.265,3.126c0,0,2.674,1.435,3.521,3.324
		c0.846,1.888,3.321,6.452,3.321,6.452s7.624,20.105,7.918,25.203c0.292,5.095-0.688,11.642-1.467,14.378
		c0,0-0.977,3.273-0.485,5.519c0,0-2.787,6.453-9.191,6.258c-6.401-0.199-21.729-0.346-25.768-7.248
		c-4.041-6.905-3.13-11.86,0.912-17.396c0,0,4.137-3.994,3.945-5.997C77.61,59.377,19.393,56.622,19.393,56.622"/>
	<g opacity="0.3">
		<g>
			<defs>
				<rect id="SVGID_63_" x="2.121" y="28.566" width="133.39" height="79.896"/>
			</defs>
			<clipPath id="SVGID_64_">
				<use xlink:href="#SVGID_63_"  overflow="visible"/>
			</clipPath>
			<path clip-path="url(#SVGID_64_)" fill="#1598C3" d="M98.624,34.211c0.848,1.888,3.321,6.452,3.321,6.452
				s7.624,20.105,7.918,25.203c0.013,0.268,0.028,0.54,0.034,0.815c0.029-1.085,0.022-2.153-0.034-3.161
				c-0.294-5.094-7.918-25.202-7.918-25.202s-2.474-4.566-3.321-6.454c-0.787-1.757-3.153-3.12-3.478-3.298
				c-0.202,0.823-0.419,2.028-0.044,2.321C95.103,30.887,97.781,32.322,98.624,34.211"/>
			<path clip-path="url(#SVGID_64_)" fill="#1598C3" d="M107.911,83.419c-0.03-0.115-0.05-0.24-0.067-0.365
				c-0.021,0.197-0.032,0.402-0.05,0.602C107.872,83.507,107.911,83.419,107.911,83.419"/>
			<path clip-path="url(#SVGID_64_)" fill="#1598C3" d="M73.864,65.027c-2.524,3.462-3.825,6.695-3.462,10.32
				c0.271-2.714,1.495-5.275,3.462-7.972c0,0,4.141-3.994,3.945-5.997c-0.013-0.12-0.238-0.244-0.645-0.368
				C76.041,62.93,73.864,65.027,73.864,65.027"/>
			<path clip-path="url(#SVGID_64_)" fill="#1598C3" d="M134.347,70.615l-4.74,5.08c-4.693,4.448-2.702,5.362-11.238,18.198
				c-8.537,12.833-21.406,10.633-21.406,10.633l-18.619-0.684l-8.132,2.004l-1.567-0.021l-0.244,0.29l-2.519-0.146
				c0,0-1.731-1.489-2.589-2.126c-0.852-0.633-1.512-0.512-1.512-0.512l-0.783,0.195c0,0-2.05,0.125-2.886,0.125
				c-0.828,0-1.172-0.344-1.172-0.344c-4.054-2.149-4.541-8.062-4.541-8.062s-0.244-0.247-0.441-0.37
				c-0.196-0.121-0.512-0.439-0.512-0.439l0.202-1.392c-0.389-1.301-4.625-2.055-4.625-2.055
				C11.253,83.468,3.631,79.264,3.34,78.841c-0.295-0.426-0.459-0.523-0.459-0.523c-0.225-0.01-0.379-0.082-0.496-0.178
				c-0.088,0.895-0.256,2.004-0.256,2.004s0.164,0.491,0.752,0.522c0,0,0.165,0.098,0.459,0.521
				c0.291,0.425,7.913,4.625,43.681,12.151c0,0,4.236,0.748,4.625,2.051l-0.202,1.392c0,0,0.316,0.32,0.512,0.441
				c0.197,0.121,0.441,0.366,0.441,0.366s0.486,5.91,4.541,8.065c0,0,0.344,0.34,1.172,0.34c0.836,0,2.886-0.123,2.886-0.123
				l0.783-0.195c0,0,0.661-0.121,1.512,0.516c0.858,0.635,2.589,2.121,2.589,2.121l2.519,0.149l0.244-0.293l1.567,0.022l8.132-2
				l18.619,0.684c0,0,12.869,2.198,21.406-10.637c8.536-12.837,6.545-13.748,11.238-18.194l4.74-5.084c0,0,1.534-1.068,1.068-4.498
				C135.144,70.057,134.347,70.615,134.347,70.615"/>
		</g>
	</g>
	<path fill="#231F20" d="M81.774,52.429c-0.833,1.688-2.136,2.606-3.71,3.153c-2.794,0.977-7.949,2.149-7.949,2.149
		s-3.126,0.458-11.659-1.041c-8.534-1.499-15.179-1.301-15.179-1.301s-20.656-2.022-24.044-5.084c0,0-0.661-0.9-1.276-2.267
		c-0.076,0.119-0.15,0.245-0.221,0.375c-2.479,4.496,1.497,9.905,1.497,9.905c3.388,3.061,24.044,5.084,24.044,5.084
		s6.645-0.199,15.179,1.298c8.533,1.501,11.659,1.046,11.659,1.046s5.155-1.172,7.949-2.152c2.806-0.978,4.76-3.127,4.695-8.727
		C82.745,53.808,82.37,53.015,81.774,52.429"/>
	<path fill="#7C7A7A" d="M43.277,55.387c0,0,6.645-0.195,15.179,1.304c8.533,1.499,11.659,1.041,11.659,1.041
		s5.155-1.172,7.951-2.149c1.573-0.547,2.875-1.465,3.708-3.153c-2.574-2.544-9.311-1.344-9.311-1.344
		c-18.571,1.888-20.85,0.199-22.086,0c-1.239-0.196-8.272-2.864-11.014-2.476C36.628,49,24.965,46.265,24.965,46.265
		s-4.482-2.208-7.006,1.773c0.613,1.366,1.274,2.265,1.274,2.265C22.621,53.367,43.277,55.387,43.277,55.387"/>
	<g>
		<g>
			<defs>
				<rect id="SVGID_65_" x="39.314" y="48.933" width="1.741" height="4.789"/>
			</defs>
			<clipPath id="SVGID_66_">
				<use xlink:href="#SVGID_65_"  overflow="visible"/>
			</clipPath>
			<path clip-path="url(#SVGID_66_)" fill="#7C7A7A" d="M41.045,48.933c0,0-0.039,0.088-0.102,0.24
				c-0.076,0.133-0.123,0.356-0.217,0.577c-0.115,0.209-0.12,0.502-0.201,0.747c0.004,0.268-0.108,0.521-0.035,0.789
				c-0.032,0.268,0.039,0.534,0.113,0.799c0.039,0.131,0.045,0.273,0.059,0.41c0.052,0.127,0.104,0.246,0.148,0.358
				c0.168,0.46,0.234,0.869,0.234,0.869s-0.34-0.143-0.786-0.504c-0.222-0.176-0.473-0.409-0.619-0.76
				c-0.08-0.167-0.18-0.338-0.248-0.524c-0.047-0.193-0.051-0.406-0.072-0.613c-0.055-0.422,0.103-0.824,0.238-1.18
				c0.07-0.176,0.211-0.309,0.312-0.444c0.104-0.135,0.209-0.25,0.327-0.338C40.643,48.979,41.045,48.933,41.045,48.933"/>
		</g>
	</g>
	<path fill="#8ACBE1" d="M74.648,65.562c-1.688,1.595-3.237,3.328-4.638,5.16c-0.684,0.929-1.345,1.874-1.929,2.857
		c-0.605,0.971-1.092,2.006-1.483,3.063c-0.352,1.061-0.624,2.168-0.526,3.249c0.034,1.059,0.358,2.258,0.616,3.319
		c0.566,2.196,1.468,4.308,2.83,6.082c0.662,0.901,1.459,1.688,2.327,2.384c0.885,0.667,1.823,1.282,2.861,1.704
		c1.012,0.461,2.084,0.809,3.182,1.055c0.542,0.153,1.104,0.219,1.663,0.303c0.557,0.1,1.088,0.147,1.69,0.182l6.942,0.521
		l3.468,0.269l3.427,0.063h0.064l0.002,0.002c1.228,0.105,2.538,0.013,3.783-0.226c1.253-0.241,2.462-0.676,3.596-1.268
		c0.578-0.275,1.09-0.662,1.619-1.025c0.472-0.432,0.991-0.825,1.388-1.337c0.451-0.467,0.801-1.012,1.156-1.56
		c0.357-0.54,0.595-1.153,0.898-1.732c-0.265,0.595-0.463,1.229-0.791,1.795c-0.32,0.575-0.641,1.153-1.068,1.657
		c-0.375,0.551-0.88,0.986-1.341,1.468c-0.522,0.41-1.029,0.848-1.612,1.174c-0.557,0.371-1.172,0.648-1.79,0.899
		c-0.62,0.244-1.264,0.438-1.912,0.596c-1.311,0.295-2.628,0.447-4.008,0.377l0.065,0.002l-3.535,0.065l-3.474-0.204l-6.948-0.436
		c-0.559-0.025-1.182-0.072-1.77-0.17c-0.59-0.083-1.182-0.145-1.762-0.302c-1.165-0.249-2.327-0.587-3.414-1.111
		c-1.112-0.471-2.126-1.148-3.077-1.886c-0.934-0.765-1.79-1.633-2.494-2.609c-1.446-1.937-2.366-4.189-2.932-6.487
		c-0.264-1.191-0.512-2.267-0.534-3.529c-0.057-1.246,0.287-2.434,0.702-3.548c0.451-1.105,1-2.159,1.657-3.133
		c0.625-0.997,1.367-1.908,2.116-2.805C71.197,68.683,72.862,67.047,74.648,65.562"/>
	<path fill="none" stroke="#F5E2BD" stroke-width="0.578" stroke-miterlimit="10" d="M113.019,40.377c0,0-4.982,2.284-0.978,8.945
		c4.006,6.656,8.992,14.841,8.992,14.841s6.061,9.605,0,19.023c-6.062,9.42-7.3,11.007-7.3,11.007s-6.382,11.036-18.438,9.954
		c-12.053-1.076-29.19-0.509-36.128-3.454c-6.938-2.953-5.568-2.19-6.256-3.428"/>
	<path fill="#72C1DB" d="M6.009,74.428c0,0,4.673-1.96,11.997-4.094c3.662-1.058,7.99-2.155,12.737-2.942
		c4.742-0.766,9.926-1.294,15.252-0.729c2.653,0.295,5.357,0.873,7.933,2.014c2.565,1.126,4.984,2.912,6.702,5.222
		c0.422,0.578,0.813,1.168,1.157,1.781c0.301,0.559,0.383,0.838,0.522,1.188c0.126,0.336,0.232,0.667,0.332,0.997
		c0.389,1.312,0.616,2.626,0.706,3.928c0.179,2.596-0.238,5.125-1.014,7.301c-1.604,4.391-4.33,7.177-6.188,8.857
		c-0.95,0.852-1.733,1.457-2.276,1.849c-0.543,0.395-0.83,0.604-0.83,0.604l-4.182-6.604c0,0,0.237-0.142,0.68-0.407
		c0.447-0.256,1.082-0.658,1.836-1.214c1.502-1.105,3.529-2.868,4.816-5.553c0.629-1.34,1.066-2.915,1.122-4.666
		c0.027-0.867-0.041-1.781-0.211-2.678l-0.148-0.655c-0.049-0.192-0.134-0.473-0.115-0.426c-0.186-0.426-0.403-0.837-0.637-1.246
		c-0.967-1.612-2.46-3.021-4.355-4.092c-1.888-1.079-4.127-1.819-6.458-2.308c-4.686-0.977-9.703-0.986-14.355-0.689
		c-4.667,0.314-9.027,0.977-12.739,1.669C10.858,72.931,6.009,74.428,6.009,74.428"/>
	<path fill="#231F20" d="M79.21,91.922l1.124-1.959c0,0,0.293-0.438,2.395,0c2.103,0.44,15.538,1.812,17.104,1.52
		c1.563-0.293,4.104-1.71,4.104-1.71s0.586,0.046,0.635,0.39c0.049,0.339-0.342,0.926-0.342,0.926s-1.076,1.125-2.247,1.465
		c-1.172,0.347-2.249,1.664-9.577,1.227c-7.332-0.44-11.487-0.88-11.487-0.88S79.064,92.947,79.21,91.922"/>
	<path fill="#231F20" d="M60.629,91.076c-0.029,0.32-0.32,0.554-0.637,0.517l-4.398-0.478c-0.322-0.033-0.551-0.322-0.518-0.645
		c0.037-0.318,0.327-0.551,0.645-0.516l4.396,0.48C60.438,90.467,60.666,90.756,60.629,91.076"/>
	<path fill="#3CAACD" d="M60.493,90.631c0,0.027,0.003,0.055,0,0.082c-0.038,0.32-0.327,0.555-0.645,0.52l-4.398-0.48
		c-0.148-0.018-0.281-0.094-0.373-0.199c0.01,0.285,0.225,0.529,0.52,0.562l4.396,0.476c0.316,0.039,0.607-0.194,0.637-0.515
		C60.651,90.908,60.596,90.75,60.493,90.631"/>
	<path fill="#231F20" d="M59.15,92.722c-0.036,0.323-0.325,0.557-0.645,0.52l-4.396-0.477c-0.32-0.039-0.553-0.326-0.516-0.646
		c0.035-0.322,0.322-0.551,0.643-0.52l4.395,0.48C58.951,92.115,59.185,92.405,59.15,92.722"/>
	<path fill="#3CAACD" d="M59.005,92.28c0,0.023,0.006,0.054,0,0.082c-0.035,0.32-0.321,0.551-0.641,0.516l-4.396-0.481
		c-0.152-0.013-0.283-0.089-0.375-0.194c0.008,0.286,0.223,0.528,0.518,0.562l4.394,0.477c0.32,0.037,0.609-0.196,0.645-0.52
		C59.167,92.553,59.111,92.396,59.005,92.28"/>
	<path fill="#231F20" d="M57.665,94.371c-0.035,0.323-0.324,0.553-0.645,0.516l-4.393-0.477c-0.324-0.034-0.553-0.323-0.516-0.646
		c0.031-0.318,0.32-0.551,0.641-0.516l4.394,0.48C57.47,93.765,57.698,94.05,57.665,94.371"/>
	<path fill="#3CAACD" d="M57.522,93.925c0.002,0.027,0.002,0.055,0,0.082c-0.037,0.32-0.32,0.555-0.645,0.52l-4.394-0.48
		c-0.15-0.018-0.283-0.094-0.375-0.195c0.009,0.281,0.225,0.529,0.52,0.56l4.393,0.475c0.32,0.039,0.609-0.19,0.645-0.514
		C57.685,94.202,57.626,94.044,57.522,93.925"/>
	<g>
		<g>
			<defs>
				<rect id="SVGID_67_" x="3.441" y="75.578" width="65.664" height="13.835"/>
			</defs>
			<clipPath id="SVGID_68_">
				<use xlink:href="#SVGID_67_"  overflow="visible"/>
			</clipPath>
			
				<path clip-path="url(#SVGID_68_)" fill="none" stroke="#72C1DB" stroke-width="0.391" stroke-linecap="round" stroke-miterlimit="10" d="
				M68.714,88.569c0,0-0.195,0.482-2.073,0.451c-1.875-0.034-9.65-0.66-9.65-0.66l-5.713-0.496c0,0-44.63-6.373-47.44-11.896"/>
		</g>
	</g>
	<g>
		<g>
			<defs>
				<rect id="SVGID_69_" x="3.74" y="76.379" width="65.065" height="13.249"/>
			</defs>
			<clipPath id="SVGID_70_">
				<use xlink:href="#SVGID_69_"  overflow="visible"/>
			</clipPath>
			
				<path clip-path="url(#SVGID_70_)" fill="none" stroke="#72C1DB" stroke-width="0.098" stroke-linecap="round" stroke-miterlimit="10" d="
				M68.714,89.075c0,0-0.195,0.487-2.073,0.453c-1.875-0.035-9.65-0.659-9.65-0.659l-5.713-0.495c0,0-44.63-6.374-47.44-11.897"/>
		</g>
	</g>
	<path fill="#8ACBE1" d="M19.237,59.967c0,0-0.653,0.717-1.671,1.718c-0.514,0.494-1.112,1.067-1.755,1.686
		c-0.648,0.602-1.342,1.243-2.034,1.884c-0.723,0.607-1.366,1.288-2.036,1.868c-0.661,0.586-1.223,1.17-1.741,1.66
		c-0.514,0.488-0.863,0.945-1.155,1.255c-0.281,0.311-0.459,0.484-0.459,0.484s0.084-0.221,0.264-0.602
		c0.207-0.357,0.391-0.983,0.838-1.554c0.444-0.564,0.887-1.314,1.513-1.963c0.612-0.665,1.268-1.38,1.985-2.013
		c1.409-1.309,2.964-2.437,4.17-3.221C18.361,60.383,19.237,59.967,19.237,59.967"/>
	<g opacity="0.3">
		<g>
			<defs>
				<rect id="SVGID_71_" x="48.917" y="92.408" width="4.842" height="8.015"/>
			</defs>
			<clipPath id="SVGID_72_">
				<use xlink:href="#SVGID_71_"  overflow="visible"/>
			</clipPath>
			<polygon clip-path="url(#SVGID_72_)" fill="#1598C3" points="51.067,92.408 53.757,99.909 52.998,100.423 48.914,93.794 			"/>
		</g>
	</g>
	<path fill="#A8A5A6" d="M147.066,84.814c-0.059,0.654-0.633,1.143-1.29,1.084l-7.206-0.624c-0.65-0.056-1.137-0.631-1.082-1.287
		c0.059-0.654,0.635-1.137,1.29-1.079l7.204,0.618C146.637,83.585,147.116,84.161,147.066,84.814"/>
	<path fill="#E1856C" d="M146.877,84.343c-0.06,0.672-0.651,1.168-1.325,1.112l-6.685-0.581c-0.668-0.055-1.168-0.646-1.113-1.32
		c0.059-0.67,0.651-1.17,1.325-1.109l6.685,0.574C146.438,83.077,146.934,83.669,146.877,84.343"/>
	<g>
		<g>
			<defs>
				<rect id="SVGID_73_" x="138.471" y="82.913" width="7.785" height="1.343"/>
			</defs>
			<clipPath id="SVGID_74_">
				<use xlink:href="#SVGID_73_"  overflow="visible"/>
			</clipPath>
			<path clip-path="url(#SVGID_74_)" fill="#E1856C" d="M146.26,83.921c-0.019,0.199-0.196,0.351-0.401,0.333l-7.057-0.608
				c-0.202-0.02-0.349-0.197-0.333-0.396c0.017-0.199,0.194-0.352,0.396-0.334l7.059,0.607
				C146.126,83.543,146.275,83.722,146.26,83.921"/>
		</g>
	</g>
	<path fill="#A8A5A6" d="M20.856,78.485c-0.119,0.645-0.737,1.075-1.383,0.958l-7.114-1.304c-0.645-0.115-1.075-0.737-0.958-1.386
		c0.121-0.641,0.739-1.07,1.386-0.953l7.114,1.3C20.545,77.216,20.974,77.841,20.856,78.485"/>
	<path fill="#E1856C" d="M20.713,77.993c-0.121,0.666-0.758,1.105-1.42,0.984l-6.602-1.203c-0.662-0.125-1.102-0.76-0.985-1.427
		c0.121-0.662,0.76-1.102,1.425-0.98l6.602,1.207C20.395,76.696,20.835,77.333,20.713,77.993"/>
	<g>
		<g>
			<defs>
				<rect id="SVGID_75_" x="12.445" y="75.811" width="7.702" height="2.007"/>
			</defs>
			<clipPath id="SVGID_76_">
				<use xlink:href="#SVGID_75_"  overflow="visible"/>
			</clipPath>
			<path clip-path="url(#SVGID_76_)" fill="#E1856C" d="M20.141,77.519c-0.041,0.197-0.229,0.328-0.428,0.291l-6.97-1.272
				c-0.199-0.032-0.332-0.229-0.295-0.424c0.035-0.201,0.229-0.332,0.424-0.297l6.971,1.274
				C20.042,77.129,20.178,77.317,20.141,77.519"/>
		</g>
	</g>
	<path fill="#252A26" d="M120.745,57.442c0,0-0.814-1.078,0.163-1.338c0.98-0.262,1.662-0.295,1.662-0.295s1.271-0.355,2.608,1.634
		c1.335,1.983,4.721,6.645,4.721,6.645s2.021,3.549,0.817,3.615c-1.206,0.064-3.617,0.557-6.06-3.52
		C122.213,60.113,120.745,57.442,120.745,57.442"/>
	<path fill="#EBEBEB" d="M121.01,57.442c0,0-0.817-1.078,0.164-1.338c0.977-0.262,1.658-0.295,1.658-0.295s1.268-0.355,2.604,1.634
		c1.337,1.983,4.725,6.645,4.725,6.645s2.021,3.549,0.813,3.615c-1.204,0.064-3.613,0.557-6.058-3.52
		C122.475,60.113,121.01,57.442,121.01,57.442"/>
	<path fill="#E5E6E5" d="M121.963,57.728c0,0-0.66-0.875,0.133-1.083c0.789-0.211,1.345-0.238,1.345-0.238s1.031-0.289,2.109,1.321
		c1.083,1.61,3.824,5.377,3.824,5.377s1.636,2.876,0.658,2.931c-0.977,0.052-2.927,0.45-4.903-2.849
		C123.15,59.893,121.963,57.728,121.963,57.728"/>
	<path fill="#1598C3" d="M117.525,30.166c-0.434-2.125-1.582-4.345-2.425-5.767l-8.843,1.805c0.457,2.351,2.884,6.139,4.854,8.913
		l7.17-1.465C118.054,32.581,117.77,31.382,117.525,30.166"/>
	<path fill="#1598C3" d="M118.304,37.468c0.637-0.217,0.407-1.776-0.022-3.816l-7.17,1.465c1.426,2.009,2.613,3.482,2.644,3.482
		C113.825,38.599,118.304,37.468,118.304,37.468"/>
	<path fill="#1598C3" d="M114.136,22.871c-4.43-0.715-7.753,1.76-7.753,1.76c-0.233,0.375-0.25,0.923-0.127,1.573l8.845-1.805
		C114.554,23.468,114.136,22.871,114.136,22.871"/>
	<g opacity="0.5">
		<g>
			<defs>
				<rect id="SVGID_77_" x="111.101" y="33.652" width="7.604" height="4.947"/>
			</defs>
			<clipPath id="SVGID_78_">
				<use xlink:href="#SVGID_77_"  overflow="visible"/>
			</clipPath>
			<path clip-path="url(#SVGID_78_)" fill="#1598C3" d="M118.304,37.468c0.637-0.217,0.407-1.776-0.024-3.816l-7.172,1.465
				c1.43,2.009,2.617,3.482,2.644,3.482C113.825,38.599,118.304,37.468,118.304,37.468"/>
		</g>
	</g>
	<path fill="#72C1DB" d="M114.134,22.871c-4.428-0.715-7.755,1.76-7.755,1.76c-0.229,0.375-0.251,0.923-0.121,1.573l8.843-1.805
		C114.552,23.468,114.134,22.871,114.134,22.871"/>
	<g opacity="0.3">
		<g>
			<defs>
				<rect id="SVGID_79_" x="106.48" y="40.174" width="9.264" height="47.554"/>
			</defs>
			<clipPath id="SVGID_80_">
				<use xlink:href="#SVGID_79_"  overflow="visible"/>
			</clipPath>
			<path clip-path="url(#SVGID_80_)" fill="#E9E9E9" d="M110.531,40.174c0,0-0.644,0.489-1.767,1.342
				c-0.281,0.213-0.592,0.452-0.932,0.708c-0.323,0.286-0.782,0.471-0.903,0.911c-0.326,0.872,0.037,1.983,0.489,3.05
				c1.023,2.192,2.217,4.752,3.497,7.495c0.625,1.374,1.274,2.798,1.932,4.244c0.322,0.734,0.676,1.42,0.979,2.209
				c0.266,0.769,0.521,1.554,0.727,2.339c0.227,0.783,0.391,1.582,0.547,2.378c0.182,0.793,0.297,1.593,0.386,2.392
				c0.26,1.585,0.238,3.179,0.263,4.707c-0.159,1.527-0.213,3.021-0.707,4.36c-0.352,1.38-0.822,2.583-1.254,3.718
				c-0.403,1.14-0.865,2.16-1.145,3.094c-0.282,0.935-0.567,1.745-0.735,2.427c-0.082,0.688-0.258,1.238-0.193,1.608
				c0.057,0.373,0.086,0.572,0.086,0.572s-0.041-0.197-0.119-0.568c-0.088-0.376,0.055-0.929,0.098-1.64
				c0.129-0.695,0.365-1.521,0.596-2.485c0.225-0.971,0.619-2.001,0.997-3.153c0.392-1.138,0.832-2.396,1.117-3.719
				c0.438-1.299,0.425-2.758,0.584-4.235c-0.044-1.489-0.035-3.038-0.311-4.59c-0.094-0.775-0.215-1.562-0.404-2.335
				c-0.158-0.78-0.33-1.559-0.559-2.325c-0.194-0.779-0.431-1.53-0.68-2.284c-0.265-0.711-0.632-1.461-0.94-2.18
				c-0.643-1.454-1.276-2.882-1.888-4.266c-1.197-2.776-2.316-5.367-3.276-7.59c-0.441-1.127-0.779-2.326-0.344-3.333
				c0.211-0.54,0.734-0.711,1.046-0.961c0.354-0.238,0.677-0.456,0.971-0.653C109.861,40.624,110.531,40.174,110.531,40.174"/>
		</g>
	</g>
	<path fill="#504D4E" d="M100.052,23.684l-0.366,1.141c0,0,0.087,0.494,0.475,0.514c0.388,0.021,1.053,0.215,1.053,0.215
		l1.205-0.215c0,0,0.24-0.193,0.154-0.557c-0.085-0.367-0.432-1.246-0.432-1.246S101.062,23.188,100.052,23.684"/>
	<g>
		<g>
			<defs>
				<rect id="SVGID_81_" x="99.677" y="23.582" width="0.722" height="1.803"/>
			</defs>
			<clipPath id="SVGID_82_">
				<use xlink:href="#SVGID_81_"  overflow="visible"/>
			</clipPath>
			<path clip-path="url(#SVGID_82_)" fill="#504D4E" d="M100.393,23.582c-0.117,0.035-0.23,0.082-0.341,0.137l-0.366,1.141
				c0,0,0.085,0.493,0.475,0.514c0.028,0.006,0.061,0.008,0.096,0.012c-0.071-0.193-0.091-0.412-0.091-0.412L100.393,23.582z"/>
		</g>
	</g>
	<g>
		<g>
			<defs>
				<rect id="SVGID_83_" x="101.857" y="23.502" width="0.74" height="1.938"/>
			</defs>
			<clipPath id="SVGID_84_">
				<use xlink:href="#SVGID_83_"  overflow="visible"/>
			</clipPath>
			<path clip-path="url(#SVGID_84_)" fill="#504D4E" d="M102.572,24.817c-0.085-0.364-0.432-1.249-0.432-1.249
				s-0.104-0.033-0.283-0.066c0.073,0.375,0.201,1.065,0.24,1.413c0.025,0.227,0.006,0.4-0.021,0.525l0.342-0.064
				C102.418,25.375,102.658,25.18,102.572,24.817"/>
		</g>
	</g>
	<polyline fill="none" stroke="#D3D2D2" stroke-width="0.586" stroke-linecap="round" stroke-miterlimit="10" points="
		101.14,23.734 100.884,22.632 93.354,5.681 	"/>
	<path fill="#BCBABA" d="M92.956,2.197c-0.634-0.115-1.315,0.715-1.513,1.854c-0.201,1.136,0.145,2.149,0.779,2.263l0.447,0.078
		c0.636,0.113,1.312-0.719,1.515-1.856c0.205-1.133-0.146-2.149-0.779-2.258L92.956,2.197z"/>
	<path fill="#D3D2D2" d="M93.396,4.399c-0.201,1.135-0.802,1.981-1.341,1.883c-0.541-0.098-0.812-1.096-0.611-2.231
		c0.197-1.139,0.799-1.981,1.345-1.887C93.323,2.261,93.599,3.26,93.396,4.399"/>
	<path fill="#F4F4F4" d="M93.147,4.354c-0.175,0.991-0.699,1.733-1.173,1.645c-0.467-0.082-0.711-0.956-0.531-1.948
		c0.174-0.994,0.699-1.731,1.172-1.645C93.087,2.488,93.323,3.359,93.147,4.354"/>
	<path fill="#1598C3" d="M106.473,24.24c0,0-5.52-0.346-7.339,2.2c-1.823,2.55,7.339,1.399,7.339,1.399V24.24z"/>
	<path fill="#504D4E" d="M103.985,23.844l-0.414,1.297c0,0,0.096,0.559,0.535,0.586c0.439,0.02,1.198,0.243,1.198,0.243l1.367-0.243
		c0,0,0.271-0.223,0.172-0.639c-0.096-0.414-0.486-1.416-0.486-1.416S105.133,23.279,103.985,23.844"/>
	<g>
		<g>
			<defs>
				<rect id="SVGID_85_" x="103.579" y="23.734" width="0.8" height="2.042"/>
			</defs>
			<clipPath id="SVGID_86_">
				<use xlink:href="#SVGID_85_"  overflow="visible"/>
			</clipPath>
			<path clip-path="url(#SVGID_86_)" fill="#504D4E" d="M104.37,23.734c-0.129,0.039-0.26,0.088-0.385,0.148l-0.414,1.295
				c0,0,0.096,0.561,0.535,0.588c0.033,0.004,0.073,0.004,0.107,0.012c-0.074-0.219-0.098-0.469-0.098-0.469L104.37,23.734z"/>
		</g>
	</g>
	<g>
		<g>
			<defs>
				<rect id="SVGID_87_" x="106.039" y="23.641" width="0.82" height="2.196"/>
			</defs>
			<clipPath id="SVGID_88_">
				<use xlink:href="#SVGID_87_"  overflow="visible"/>
			</clipPath>
			<path clip-path="url(#SVGID_88_)" fill="#504D4E" d="M106.844,25.131c-0.096-0.418-0.486-1.418-0.486-1.418
				s-0.121-0.039-0.32-0.072c0.076,0.422,0.223,1.208,0.271,1.598c0.028,0.258,0.007,0.455-0.026,0.598l0.391-0.07
				C106.672,25.766,106.943,25.547,106.844,25.131"/>
		</g>
	</g>
	<polyline fill="none" stroke="#D3D2D2" stroke-width="0.586" stroke-linecap="round" stroke-miterlimit="10" points="
		105.218,23.558 105.566,22.453 106.564,5.309 	"/>
	<path fill="#BCBABA" d="M105.746,2.468c-0.782-0.139-1.614,0.883-1.865,2.282c-0.245,1.403,0.183,2.649,0.962,2.786l0.555,0.098
		c0.78,0.141,1.614-0.885,1.861-2.282c0.249-1.398-0.178-2.647-0.958-2.782L105.746,2.468z"/>
	<path fill="#D3D2D2" d="M106.288,5.18c-0.249,1.399-0.99,2.438-1.656,2.317c-0.658-0.113-0.996-1.344-0.751-2.747
		c0.251-1.399,0.994-2.434,1.653-2.317C106.199,2.555,106.537,3.778,106.288,5.18"/>
	<path fill="#F4F4F4" d="M105.986,5.125c-0.219,1.221-0.866,2.13-1.446,2.024c-0.58-0.102-0.873-1.176-0.659-2.399
		c0.22-1.219,0.868-2.127,1.447-2.024C105.906,2.83,106.199,3.902,105.986,5.125"/>
	<path fill="#252A26" d="M103.097,38.553l2.077-0.172l2.563-0.93c0,0,1.199-0.586,0.785-1.272c-0.416-0.682-2.054-0.975-2.054-0.975
		l-2.298-0.708c0,0-0.387-0.32-0.488-0.586c-0.099-0.274-0.146-0.907-0.586-0.907c-0.438,0-0.954,0.512-0.954,0.512
		s-2.247-0.391-2.661,1.247c-0.418,1.637,0.293,3.47,0.293,3.47S100.327,38.971,103.097,38.553"/>
	<path fill="#545855" d="M103.636,36.743c0,1.27-1.029,2.294-2.3,2.294c-1.269,0-2.296-1.024-2.296-2.294
		c0-1.271,1.027-2.298,2.296-2.298C102.606,34.445,103.636,35.473,103.636,36.743"/>
	<path fill="#545855" d="M102.917,36.376c0-0.18-0.044-0.336-0.108-0.467l-4.069,0.873l0.63,1.594l3.233-0.582
		C102.78,37.442,102.917,36.95,102.917,36.376"/>
	<path fill="#828481" d="M101.299,35.083l-2.978,0.633l0.418,1.067l4.069-0.873C102.451,35.172,101.299,35.083,101.299,35.083"/>
	<path fill="#3C403D" d="M102.037,38.38c0.158,0,0.383-0.219,0.565-0.586l-3.233,0.582l0.188,0.49
		C99.558,38.867,101.717,38.38,102.037,38.38"/>
	<path fill="#303531" d="M100.498,37.408c0,0.969-0.786,1.752-1.751,1.752c-0.971,0-1.755-0.784-1.755-1.752
		c0-0.965,0.784-1.749,1.755-1.749C99.712,35.659,100.498,36.442,100.498,37.408"/>
	<g>
		<g>
			<defs>
				<rect id="SVGID_89_" x="102.418" y="38.599" width="11.685" height="3.291"/>
			</defs>
			<clipPath id="SVGID_90_">
				<use xlink:href="#SVGID_89_"  overflow="visible"/>
			</clipPath>
			<path clip-path="url(#SVGID_90_)" fill="#525652" d="M102.409,41.89c0,0,0.748-0.16,1.871-0.398
				c1.122-0.231,2.61-0.555,4.084-0.932c1.482-0.35,2.919-0.827,3.997-1.202c1.052-0.455,1.751-0.758,1.751-0.758
				s-0.162,0.102-0.446,0.28c-0.288,0.17-0.683,0.453-1.197,0.721c-0.531,0.223-1.145,0.512-1.823,0.766
				c-0.691,0.207-1.42,0.458-2.164,0.653c-1.499,0.349-3.011,0.628-4.158,0.736C103.177,41.878,102.409,41.89,102.409,41.89"/>
		</g>
	</g>
</g>
</svg>
