<?xml version="1.0" encoding="utf-8"?>
<!-- Generator: Adobe Illustrator 15.0.0, SVG Export Plug-In . SVG Version: 6.00 Build 0)  -->
<!DOCTYPE svg PUBLIC "-//W3C//DTD SVG 1.1//EN" "http://www.w3.org/Graphics/SVG/1.1/DTD/svg11.dtd">
<svg version="1.1" id="Layer_1" xmlns="http://www.w3.org/2000/svg" xmlns:xlink="http://www.w3.org/1999/xlink" x="0px" y="0px"
	 width="64.417px" height="51.25px" viewBox="0 0 64.417 51.25" enable-background="new 0 0 64.417 51.25" xml:space="preserve">
<path fill="#8A4E48" d="M30.496,50.598c-0.928,0-1.713-0.456-2.102-1.22c-0.369-0.725-0.293-1.564,0.202-2.244
	c0.137-0.188,0.4-0.229,0.587-0.092c0.189,0.137,0.23,0.398,0.093,0.586c-0.305,0.42-0.354,0.932-0.132,1.369
	c0.241,0.476,0.746,0.76,1.352,0.76c1.137,0,1.287-1.143,1.304-1.329v-3.496c0-0.231,0.188-0.42,0.421-0.42s0.422,0.188,0.422,0.42
	l-0.002,3.542C32.591,49.208,32.078,50.598,30.496,50.598"/>
<path fill="#DEDCDD" d="M31.786,44.937c0,0.059,0.194,0.106,0.435,0.106s0.434-0.048,0.434-0.106v-0.748
	c0-0.06-0.193-0.107-0.434-0.107s-0.435,0.048-0.435,0.107V44.937z"/>
<path fill="#BCBBBB" d="M32.221,44.152c-0.24,0-0.436,0.047-0.436,0.107v0.258c0.11,0.028,0.264,0.045,0.436,0.045
	c0.171,0,0.325-0.017,0.434-0.045v-0.258C32.654,44.199,32.461,44.152,32.221,44.152"/>
<g opacity="0.5">
	<g>
		<defs>
			<rect id="SVGID_1_" x="32.176" y="44.082" width="0.303" height="0.962"/>
		</defs>
		<clipPath id="SVGID_2_">
			<use xlink:href="#SVGID_1_"  overflow="visible"/>
		</clipPath>
		<path clip-path="url(#SVGID_2_)" fill="#F3F3F3" d="M32.176,45.042c0.014,0,0.025,0,0.039,0c0.101,0,0.189-0.008,0.265-0.021
			v-0.917c-0.075-0.015-0.164-0.022-0.265-0.022c-0.014,0-0.025,0.002-0.039,0.002V45.042z"/>
	</g>
</g>
<path fill="#DEDCDD" d="M31.621,44.344c0,0.082,0.269,0.147,0.6,0.147c0.33,0,0.599-0.065,0.599-0.147v-0.297
	c0-0.082-0.269-0.147-0.599-0.147c-0.331,0-0.6,0.065-0.6,0.147V44.344z"/>
<g>
	<g>
		<defs>
			<rect id="SVGID_3_" x="28.944" y="48.584" width="1.979" height="1.343"/>
		</defs>
		<clipPath id="SVGID_4_">
			<use xlink:href="#SVGID_3_"  overflow="visible"/>
		</clipPath>
		<path clip-path="url(#SVGID_4_)" fill="#8A4E48" d="M30.924,49.75c-0.201,0.108-0.43,0.164-0.663,0.177
			c-0.233,0.011-0.476-0.034-0.69-0.15c-0.212-0.118-0.383-0.307-0.481-0.521c-0.101-0.213-0.146-0.443-0.144-0.67
			c0.074,0.213,0.157,0.42,0.272,0.6c0.114,0.179,0.263,0.329,0.444,0.428c0.179,0.102,0.388,0.15,0.602,0.168
			C30.478,49.796,30.699,49.785,30.924,49.75"/>
	</g>
</g>
<g>
	<g>
		<defs>
			<rect id="SVGID_5_" x="30.04" y="49.191" width="1.912" height="1.028"/>
		</defs>
		<clipPath id="SVGID_6_">
			<use xlink:href="#SVGID_5_"  overflow="visible"/>
		</clipPath>
		<path clip-path="url(#SVGID_6_)" fill="#DBC9C7" d="M31.952,49.191c-0.13,0.365-0.413,0.678-0.765,0.862
			c-0.179,0.09-0.373,0.146-0.569,0.161c-0.197,0.017-0.396-0.01-0.578-0.066c0.385,0.014,0.76-0.04,1.087-0.212
			c0.165-0.083,0.313-0.193,0.453-0.318C31.716,49.49,31.844,49.35,31.952,49.191"/>
	</g>
</g>
<g opacity="0.5">
	<g>
		<defs>
			<rect id="SVGID_7_" x="32.309" y="43.9" width="0.303" height="0.591"/>
		</defs>
		<clipPath id="SVGID_8_">
			<use xlink:href="#SVGID_7_"  overflow="visible"/>
		</clipPath>
		<path clip-path="url(#SVGID_8_)" fill="#F3F3F3" d="M32.309,44.491c0.113-0.001,0.215-0.011,0.303-0.026v-0.537
			c-0.088-0.016-0.189-0.024-0.303-0.027V44.491z"/>
	</g>
</g>
<path fill="#9A989A" d="M32.819,44.046c0,0.082-0.27,0.149-0.599,0.149c-0.331,0-0.6-0.067-0.6-0.149s0.269-0.147,0.6-0.147
	C32.55,43.899,32.819,43.964,32.819,44.046"/>
<path fill="#DBC9C7" d="M32.328,45.285c0.02,0.232,0.028,0.465,0.035,0.697c0.009,0.233,0.01,0.467,0.011,0.698
	c-0.001,0.233-0.002,0.466-0.011,0.698c-0.007,0.234-0.016,0.467-0.035,0.699c-0.02-0.232-0.028-0.465-0.037-0.699
	c-0.009-0.232-0.009-0.465-0.01-0.698c0.001-0.231,0.003-0.465,0.01-0.698C32.3,45.75,32.309,45.517,32.328,45.285"/>
<path fill="#6C696A" d="M32.543,32.652v0.92c0,0,0.504-0.024,0.391-0.34C32.819,32.918,32.543,32.652,32.543,32.652"/>
<path fill="#C7C6C6" d="M4.381,23.127l-3.298,2.658c-0.12,0.096-0.139,0.27-0.043,0.389c0.096,0.12,0.271,0.138,0.391,0.042
	l3.298-2.658"/>
<path fill="#E8E8E8" d="M4.188,23.512l-3.013,2.427c-0.108,0.089-0.169,0.194-0.136,0.236c0.034,0.042,0.15,0.004,0.259-0.083
	l3.014-2.428"/>
<path fill="#C7C6C6" d="M60.117,23.127l3.3,2.658c0.119,0.096,0.138,0.27,0.042,0.389c-0.096,0.12-0.27,0.138-0.39,0.042
	l-3.299-2.658"/>
<path fill="#E8E8E8" d="M60.311,23.512l3.013,2.427c0.108,0.089,0.17,0.194,0.135,0.236c-0.033,0.042-0.149,0.004-0.258-0.083
	l-3.013-2.428"/>
<path fill="#C7C6C6" d="M19.83,25.738l-1.51,3.958c-0.054,0.143-0.214,0.213-0.357,0.16c-0.142-0.056-0.214-0.216-0.159-0.357
	l1.509-3.958"/>
<path fill="#E8E8E8" d="M19.522,26.04l-1.378,3.615c-0.05,0.131-0.13,0.221-0.182,0.2c-0.05-0.019-0.051-0.139-0.001-0.27
	l1.378-3.616"/>
<path fill="#C7C6C6" d="M44.601,25.738l1.509,3.958c0.055,0.143,0.215,0.213,0.357,0.16c0.143-0.056,0.215-0.216,0.16-0.357
	l-1.509-3.958"/>
<path fill="#E8E8E8" d="M44.908,26.04l1.378,3.615c0.05,0.131,0.131,0.221,0.181,0.2c0.051-0.019,0.052-0.139,0.002-0.27
	l-1.378-3.616"/>
<path fill="#C7C6C6" d="M32.543,43.962c0,0.133-0.143,0.146-0.321,0.146c-0.178,0-0.321-0.017-0.321-0.146V23.702
	c0-0.177,0.144-0.322,0.321-0.322c0.179,0,0.321,0.145,0.321,0.322V43.962z"/>
<path fill="#E8E8E8" d="M32.335,43.47c0,0.164-0.05,0.295-0.113,0.295c-0.062,0-0.113-0.131-0.113-0.295V23.674
	c0-0.162,0.051-0.294,0.113-0.294c0.063,0,0.113,0.132,0.113,0.294V43.47z"/>
<path fill="#474065" d="M58.889,19.767c-2.885-3.601-6.874-7.893-10.689-9.694c-7.128-3.366-12.128-2.772-12.128-2.772
	s-2.364-0.148-3.329-0.793c-0.098,0.047-0.404,0.075-0.521,0.075s-0.423-0.028-0.521-0.075c-0.965,0.645-3.33,0.793-3.33,0.793
	s-5-0.594-12.129,2.772c-3.812,1.801-7.802,6.093-10.687,9.694C3.05,22.894,1.377,25.5,1.377,25.5
	c9.001-1.441,15.349,2.49,16.623,3.362c0.155,0.106,0.24,0.17,0.24,0.17c1.506-0.511,3.489-0.875,5.486-1.138
	c4.216-0.551,8.495-0.641,8.495-0.641c0.006,0,4.281,0.09,8.494,0.641c1.997,0.263,3.981,0.627,5.487,1.138
	c0,0,0.084-0.063,0.24-0.171c1.275-0.872,7.623-4.802,16.623-3.361C63.066,25.5,61.395,22.894,58.889,19.767"/>
<path fill="#C7C6C6" d="M32.543,6.108c0,0.177-0.143,0.322-0.321,0.322c-0.178,0-0.321-0.146-0.321-0.322V1.182
	c0-0.177,0.144-0.321,0.321-0.321c0.179,0,0.321,0.144,0.321,0.321V6.108z"/>
<path fill="#E8E8E8" d="M32.335,5.653c0,0.162-0.05,0.293-0.113,0.293c-0.062,0-0.113-0.131-0.113-0.293V1.154
	c0-0.162,0.051-0.293,0.113-0.293c0.063,0,0.113,0.131,0.113,0.293V5.653z"/>
<path fill="#7D7B7B" d="M32.543,5.91V5.664c-0.096,0.053-0.205,0.085-0.321,0.085S31.996,5.717,31.9,5.664V5.91
	c0,0.178,0.144,0.322,0.321,0.322C32.4,6.232,32.543,6.088,32.543,5.91"/>
<path fill="#C7C6C6" d="M32.551,5.858c-0.098,0.055-0.209,0.089-0.329,0.089s-0.231-0.034-0.33-0.089
	c-0.06,0.736-0.464,0.918-0.464,0.918l0.794,0.087l0.793-0.087C33.015,6.776,32.611,6.594,32.551,5.858"/>
<path fill="#474065" d="M14.681,12.002C17.502,9.378,26.783,7.72,28.466,7.46c1.683-0.259,2.962-0.771,2.962-0.771l-0.28,0.772
	c0.521-0.247,0.738-0.772,0.738-0.772h0.336h0.336c0,0,0.219,0.524,0.739,0.772l-0.282-0.772c0,0,1.279,0.512,2.963,0.771
	c1.683,0.26,10.965,1.918,13.785,4.542c1.974,1.834,5.642,4.06,9.126,7.753c-2.885-3.601-6.874-7.892-10.689-9.694
	C41.071,6.695,36.071,7.29,36.071,7.29s-2.364-0.148-3.329-0.793c-0.098,0.047-0.404,0.075-0.521,0.075s-0.423-0.028-0.52-0.075
	c-0.966,0.645-3.331,0.793-3.331,0.793s-5-0.594-12.129,2.772c-3.812,1.801-7.802,6.093-10.687,9.693
	C9.039,16.062,12.706,13.836,14.681,12.002"/>
<g>
	<g>
		<defs>
			<rect id="SVGID_9_" x="33.015" y="6.689" width="30.052" height="22.16"/>
		</defs>
		<clipPath id="SVGID_10_">
			<use xlink:href="#SVGID_9_"  overflow="visible"/>
		</clipPath>
		<path clip-path="url(#SVGID_10_)" fill="#474065" d="M49.763,12.002C46.443,9.646,37.66,7.72,35.978,7.46
			c-1.684-0.259-2.963-0.771-2.963-0.771l0.282,0.772c0.032,0.016,0.067,0.031,0.103,0.044c0.593,0.224,4.504,2.277,6.236,5.223
			c1.731,2.945,4.456,8.637,6.781,16.039c0.009,0.027,0.018,0.055,0.026,0.082c1.275-0.871,7.623-4.802,16.623-3.361
			c0,0-1.672-2.606-4.178-5.733C55.404,16.062,52.625,14.021,49.763,12.002"/>
	</g>
</g>
<g>
	<g>
		<defs>
			<rect id="SVGID_11_" x="1.377" y="6.689" width="30.051" height="22.16"/>
		</defs>
		<clipPath id="SVGID_12_">
			<use xlink:href="#SVGID_11_"  overflow="visible"/>
		</clipPath>
		<path clip-path="url(#SVGID_12_)" fill="#474065" d="M18,28.849c0.009-0.027,0.017-0.055,0.026-0.082
			c2.325-7.401,5.048-13.093,6.781-16.04c1.732-2.945,5.643-4.999,6.236-5.222c0.036-0.013,0.07-0.028,0.103-0.044l0.281-0.772
			c0,0-1.279,0.512-2.962,0.771c-1.684,0.26-10.542,2.462-13.785,4.542c-2.368,1.519-5.642,4.059-9.125,7.752
			c-2.506,3.128-4.179,5.734-4.179,5.734C10.378,24.048,16.726,27.978,18,28.849"/>
	</g>
</g>
<path fill="#474065" d="M46.417,28.766c-2.325-7.4-5.049-13.093-6.781-16.038c-1.732-2.945-5.643-4.999-6.236-5.222
	c-0.035-0.013-0.07-0.029-0.103-0.044c-0.521-0.249-0.739-0.773-0.739-0.773h-0.336h-0.336c0,0-0.218,0.525-0.739,0.773
	c-0.032,0.015-0.066,0.031-0.103,0.044c-0.594,0.223-4.504,2.277-6.236,5.222c-1.733,2.945-4.456,8.638-6.781,16.038
	c-0.01,0.029-0.018,0.056-0.026,0.083c0.155,0.107,0.24,0.17,0.24,0.17c1.506-0.508,3.49-0.874,5.486-1.135
	c4.216-0.553,8.495-0.641,8.495-0.641c0.006,0,4.281,0.089,8.494,0.641c1.997,0.261,3.981,0.627,5.487,1.135
	c0,0,0.084-0.062,0.24-0.17C46.435,28.822,46.426,28.794,46.417,28.766"/>
</svg>
