<?xml version="1.0" encoding="utf-8"?>
<!-- Generator: Adobe Illustrator 15.0.0, SVG Export Plug-In . SVG Version: 6.00 Build 0)  -->
<!DOCTYPE svg PUBLIC "-//W3C//DTD SVG 1.1//EN" "http://www.w3.org/Graphics/SVG/1.1/DTD/svg11.dtd">
<svg version="1.1" id="Layer_1" xmlns="http://www.w3.org/2000/svg" xmlns:xlink="http://www.w3.org/1999/xlink" x="0px" y="0px"
	 width="170.156px" height="135.375px" viewBox="0 -84.125 170.156 135.375" enable-background="new 0 -84.125 170.156 135.375"
	 xml:space="preserve">
<g>
	<path fill="#8A4E48" d="M75.524,46.664c-2.413-0.223-4.344-1.591-5.173-3.67c-0.785-1.972-0.389-4.131,1.06-5.782
		c0.4-0.457,1.094-0.499,1.546-0.097c0.459,0.402,0.504,1.085,0.104,1.544c-0.893,1.019-1.143,2.339-0.669,3.525
		c0.512,1.293,1.757,2.15,3.332,2.296c2.952,0.27,3.615-2.665,3.703-3.145l0.831-9.081c0.056-0.6,0.588-1.047,1.195-0.991
		c0.605,0.056,1.05,0.59,0.995,1.192l-0.847,9.202C81.295,43.553,79.632,47.041,75.524,46.664"/>
	<path fill="#DEDCDD" d="M80.22,32.267c-0.013,0.151,0.479,0.319,1.106,0.377c0.624,0.056,1.137-0.02,1.15-0.169l0.179-1.945
		c0.015-0.157-0.476-0.323-1.102-0.381c-0.627-0.06-1.142,0.02-1.155,0.176L80.22,32.267z"/>
	<path fill="#BCBBBB" d="M81.538,30.331c-0.624-0.059-1.145,0.019-1.158,0.173l-0.062,0.671c0.278,0.1,0.675,0.18,1.122,0.221
		c0.443,0.041,0.848,0.031,1.137-0.013l0.062-0.672C82.65,30.556,82.161,30.388,81.538,30.331"/>
	<g opacity="0.5">
		<g>
			<g>
				<defs>
					
						<rect id="SVGID_1_" x="81.32" y="30.168" transform="matrix(-0.9959 -0.0901 0.0901 -0.9959 160.2685 70.0788)" width="0.791" height="2.508"/>
				</defs>
				<clipPath id="SVGID_2_">
					<use xlink:href="#SVGID_1_"  overflow="visible"/>
				</clipPath>
				<path clip-path="url(#SVGID_2_)" fill="#F3F3F3" d="M81.208,32.632c0.038,0.003,0.066,0.004,0.103,0.008
					c0.262,0.025,0.492,0.025,0.693,0.01l0.218-2.385c-0.192-0.056-0.421-0.094-0.684-0.119c-0.035-0.003-0.065,0-0.102-0.003
					L81.208,32.632z"/>
			</g>
		</g>
	</g>
	<path fill="#DEDCDD" d="M79.933,30.686c-0.02,0.213,0.663,0.445,1.523,0.525c0.857,0.078,1.571-0.029,1.591-0.241l0.069-0.771
		c0.021-0.213-0.662-0.443-1.519-0.522c-0.86-0.078-1.576,0.023-1.594,0.238L79.933,30.686z"/>
	<g>
		<g>
			<g>
				<defs>
					
						<rect id="SVGID_3_" x="71.799" y="41.293" transform="matrix(-0.9958 -0.0916 0.0916 -0.9958 144.5064 92.7153)" width="5.162" height="3.501"/>
				</defs>
				<clipPath id="SVGID_4_">
					<use xlink:href="#SVGID_3_"  overflow="visible"/>
				</clipPath>
				<path clip-path="url(#SVGID_4_)" fill="#8A4E48" d="M76.835,44.563c-0.548,0.23-1.156,0.324-1.763,0.302
					c-0.61-0.027-1.23-0.201-1.759-0.553c-0.521-0.357-0.922-0.887-1.126-1.471c-0.212-0.575-0.273-1.184-0.213-1.772
					c0.141,0.57,0.307,1.128,0.562,1.622c0.255,0.495,0.604,0.921,1.052,1.219c0.44,0.307,0.972,0.481,1.524,0.581
					C75.667,44.577,76.244,44.604,76.835,44.563"/>
			</g>
		</g>
	</g>
	<g>
		<g>
			<g>
				<defs>
					
						<rect id="SVGID_5_" x="74.539" y="43.123" transform="matrix(-0.9958 -0.0914 0.0914 -0.9958 149.68 95.7838)" width="4.989" height="2.682"/>
				</defs>
				<clipPath id="SVGID_6_">
					<use xlink:href="#SVGID_5_"  overflow="visible"/>
				</clipPath>
				<path clip-path="url(#SVGID_6_)" fill="#DBC9C7" d="M79.639,43.356c-0.425,0.917-1.234,1.664-2.192,2.057
					c-0.487,0.19-1.005,0.29-1.517,0.282c-0.516-0.003-1.025-0.119-1.485-0.309c0.997,0.127,1.983,0.077,2.873-0.292
					c0.45-0.174,0.86-0.427,1.253-0.716C78.954,44.078,79.322,43.742,79.639,43.356"/>
			</g>
		</g>
	</g>
	<g opacity="0.5">
		<g>
			<g>
				<defs>
					
						<rect id="SVGID_7_" x="81.754" y="29.73" transform="matrix(-0.9959 -0.0903 0.0903 -0.9959 161.2075 68.2964)" width="0.789" height="1.543"/>
				</defs>
				<clipPath id="SVGID_8_">
					<use xlink:href="#SVGID_7_"  overflow="visible"/>
				</clipPath>
				<path clip-path="url(#SVGID_8_)" fill="#F3F3F3" d="M81.685,31.23c0.294,0.025,0.561,0.025,0.793,0.004l0.129-1.395
					c-0.226-0.062-0.487-0.104-0.78-0.143L81.685,31.23z"/>
			</g>
		</g>
	</g>
	<path fill="#9A989A" d="M83.116,30.196c-0.02,0.214-0.737,0.323-1.591,0.244c-0.859-0.075-1.542-0.316-1.523-0.529
		c0.02-0.214,0.733-0.318,1.594-0.239C82.452,29.747,83.135,29.981,83.116,30.196"/>
	<path fill="#DBC9C7" d="M81.544,33.299c-0.001,0.608-0.037,1.212-0.074,1.819c-0.031,0.606-0.084,1.215-0.138,1.814
		c-0.057,0.605-0.116,1.212-0.194,1.812c-0.073,0.604-0.151,1.212-0.256,1.808c0.003-0.606,0.036-1.218,0.069-1.826
		c0.031-0.601,0.088-1.208,0.141-1.814c0.058-0.598,0.118-1.208,0.19-1.812C81.362,34.499,81.44,33.898,81.544,33.299"/>
	<path fill="#6C696A" d="M85.11,0.532l-0.22,2.389c0,0,1.315,0.056,1.098-0.79C85.762,1.286,85.11,0.532,85.11,0.532"/>
	<path fill="#C7C6C6" d="M14.216-30.915l-9.2,6.121c-0.334,0.219-0.427,0.668-0.205,0.999c0.222,0.335,0.672,0.426,1.006,0.203
		l9.199-6.119"/>
	<path fill="#E8E8E8" d="M13.623-29.96l-8.406,5.588c-0.302,0.205-0.485,0.462-0.408,0.58c0.079,0.117,0.388,0.048,0.693-0.154
		l8.407-5.589"/>
	<path fill="#C7C6C6" d="M159.009-17.653l7.942,7.691c0.285,0.277,0.293,0.734,0.013,1.019c-0.277,0.288-0.734,0.295-1.021,0.015
		l-7.938-7.688"/>
	<path fill="#E8E8E8" d="M159.42-16.605l7.252,7.021c0.259,0.258,0.394,0.543,0.292,0.645c-0.097,0.102-0.388-0.023-0.649-0.278
		l-7.248-7.023"/>
	<path fill="#C7C6C6" d="M53.728-20.456l-4.864,9.922c-0.174,0.358-0.606,0.504-0.966,0.331c-0.354-0.178-0.504-0.608-0.327-0.962
		l4.861-9.925"/>
	<path fill="#E8E8E8" d="M52.858-19.744l-4.441,9.064c-0.161,0.329-0.39,0.542-0.521,0.476c-0.125-0.063-0.099-0.375,0.062-0.703
		l4.44-9.066"/>
	<path fill="#C7C6C6" d="M118.08-14.562l2.979,10.641c0.111,0.385,0.511,0.607,0.888,0.5c0.388-0.11,0.611-0.507,0.503-0.887
		l-2.977-10.641"/>
	<path fill="#E8E8E8" d="M118.804-13.704l2.721,9.719c0.098,0.352,0.289,0.606,0.421,0.563c0.141-0.038,0.171-0.349,0.069-0.701
		l-2.716-9.724"/>
	<path fill="#C7C6C6" d="M82.419,29.914c-0.032,0.347-0.407,0.343-0.868,0.3c-0.464-0.043-0.831-0.12-0.801-0.453l4.821-52.633
		c0.042-0.46,0.451-0.802,0.911-0.761c0.464,0.042,0.799,0.453,0.758,0.914L82.419,29.914z"/>
	<path fill="#E8E8E8" d="M81.996,28.587c-0.039,0.425-0.199,0.753-0.363,0.738c-0.16-0.014-0.263-0.369-0.226-0.793l4.711-51.429
		c0.04-0.419,0.204-0.751,0.365-0.736c0.165,0.015,0.262,0.371,0.222,0.792L81.996,28.587z"/>
	<path fill="#474065" d="M156.618-26.673c-6.639-10.042-15.977-22.142-25.459-27.727c-17.719-10.441-30.85-10.088-30.85-10.088
		s-6.104-0.947-8.457-2.853c-0.269,0.101-1.07,0.1-1.373,0.072c-0.304-0.028-1.094-0.173-1.336-0.318
		c-2.66,1.446-8.839,1.267-8.839,1.267s-12.848-2.732-32.169,4.317c-10.331,3.77-21.718,13.971-30.069,22.641
		c-7.253,7.526-12.22,13.898-12.22,13.898c23.727-1.601,39.282,10.121,42.385,12.688c0.376,0.313,0.583,0.5,0.583,0.5
		c4.034-0.969,9.271-1.442,14.522-1.649c11.083-0.43,22.222,0.354,22.222,0.354c0.016,0,11.098,1.25,21.911,3.686
		c5.128,1.159,10.193,2.579,13.987,4.262c0,0,0.234-0.146,0.662-0.387c3.518-1.961,20.945-10.662,43.983-4.777
		C166.106-10.787,162.383-17.955,156.618-26.673"/>
	<path fill="#C7C6C6" d="M91.426-68.427c-0.044,0.461-0.448,0.804-0.909,0.762c-0.465-0.043-0.801-0.456-0.76-0.915l1.173-12.796
		c0.042-0.46,0.451-0.8,0.911-0.758c0.464,0.044,0.797,0.451,0.757,0.911L91.426-68.427z"/>
	<path fill="#E8E8E8" d="M90.994-69.659c-0.039,0.422-0.2,0.75-0.361,0.735s-0.264-0.367-0.226-0.789l1.071-11.687
		c0.038-0.42,0.203-0.749,0.363-0.735c0.163,0.015,0.263,0.369,0.223,0.789L90.994-69.659z"/>
	<path fill="#7D7B7B" d="M91.472-68.94l0.059-0.639c-0.264,0.114-0.553,0.171-0.854,0.144c-0.301-0.026-0.578-0.136-0.815-0.296
		l-0.06,0.639c-0.042,0.461,0.297,0.87,0.757,0.912C91.024-68.138,91.431-68.479,91.472-68.94"/>
	<path fill="#C7C6C6" d="M91.505-69.074c-0.269,0.119-0.563,0.182-0.873,0.154c-0.313-0.03-0.595-0.144-0.839-0.311
		c-0.331,1.897-1.422,2.273-1.422,2.273l2.041,0.416l2.081-0.037C92.494-66.579,91.487-67.148,91.505-69.074"/>
	<path fill="#4CA1A5" d="M43.621-57.364c10.107-5.511,32.458-8.246,36.893-8.521c4.434-0.272,7.879-1.298,7.879-1.298l-0.912,1.938
		c1.412-0.517,2.102-1.829,2.102-1.829l0.872,0.079l0.873,0.081c0,0,0.443,1.414,1.735,2.182l-0.548-2.073
		c0,0,3.202,1.635,7.512,2.708c4.313,1.076,28.029,7.591,34.731,15.08c4.692,5.234,13.692,11.89,21.863,22.312
		c-6.639-10.042-15.979-22.138-25.46-27.727c-17.721-10.441-30.852-10.084-30.852-10.084s-6.105-0.946-8.46-2.853
		c-0.266,0.099-1.067,0.1-1.37,0.072c-0.304-0.028-1.094-0.175-1.333-0.319c-2.663,1.446-8.842,1.268-8.842,1.268
		s-12.848-2.734-32.169,4.314c-10.331,3.771-21.718,13.973-30.069,22.638C27.998-48.16,38.053-53.07,43.621-57.364"/>
	<g>
		<g>
			<g>
				<defs>
					
						<rect id="SVGID_9_" x="89.715" y="-63.35" transform="matrix(-0.9958 -0.0912 0.0912 -0.9958 260.4305 -56.9876)" width="78.396" height="57.811"/>
				</defs>
				<clipPath id="SVGID_10_">
					<use xlink:href="#SVGID_9_"  overflow="visible"/>
				</clipPath>
				<path clip-path="url(#SVGID_10_)" fill="#75BDC9" d="M133.458-50.375c-10.174-9.545-29.124-12.648-33.433-13.722
					c-4.31-1.073-7.512-2.708-7.512-2.708l0.548,2.073c0.08,0.05,0.168,0.097,0.258,0.138c1.49,0.723,11.157,6.988,14.958,15.054
					c3.794,8.062,9.519,23.498,13.802,43.28c0.012,0.072,0.033,0.148,0.045,0.22c3.521-1.959,20.946-10.662,43.984-4.777
					c0,0-3.723-7.169-9.491-15.888C148.447-37.128,140.414-44.449,133.458-50.375"/>
			</g>
		</g>
	</g>
	<g>
		<g>
			<g>
				<defs>
					
						<rect id="SVGID_11_" x="7.523" y="-70.878" transform="matrix(-0.9958 -0.0912 0.0912 -0.9958 97.0744 -79.5092)" width="78.396" height="57.811"/>
				</defs>
				<clipPath id="SVGID_12_">
					<use xlink:href="#SVGID_11_"  overflow="visible"/>
				</clipPath>
				<path clip-path="url(#SVGID_12_)" fill="#378B99" d="M48.235-12.807c0.028-0.069,0.057-0.14,0.086-0.207
					c7.803-18.675,16.231-32.815,21.433-40.058c5.201-7.238,15.85-11.644,17.443-12.083c0.097-0.024,0.189-0.056,0.278-0.089
					l0.911-1.938c0,0-3.442,1.026-7.877,1.298c-4.435,0.274-24.551,2.134-36.891,8.519c-6.514,3.383-15.623,9.203-25.55,17.968
					c-7.255,7.529-12.22,13.901-12.22,13.901C29.576-27.096,45.131-15.372,48.235-12.807"/>
			</g>
		</g>
	</g>
	<path fill="#6ABABA" d="M122.08-6.265c-4.283-19.776-10.003-35.214-13.802-43.276c-3.801-8.063-13.468-14.331-14.958-15.052
		c-0.09-0.041-0.178-0.09-0.258-0.138c-1.295-0.771-1.735-2.184-1.735-2.184l-0.873-0.081l-0.872-0.079c0,0-0.693,1.311-2.104,1.832
		c-0.087,0.032-0.178,0.065-0.277,0.089c-1.597,0.438-12.244,4.845-17.443,12.083c-5.202,7.238-13.632,21.381-21.433,40.051
		c-0.032,0.074-0.061,0.143-0.087,0.211c0.379,0.313,0.584,0.499,0.584,0.499c4.032-0.965,9.274-1.444,14.521-1.646
		c11.085-0.433,22.221,0.356,22.221,0.356c0.016,0.003,11.102,1.249,21.917,3.686c5.123,1.152,10.19,2.576,13.981,4.255
		c0,0,0.232-0.143,0.664-0.384C122.113-6.112,122.091-6.188,122.08-6.265"/>
</g>
</svg>
