<?xml version="1.0" encoding="utf-8"?>
<!-- Generator: Adobe Illustrator 15.0.0, SVG Export Plug-In . SVG Version: 6.00 Build 0)  -->
<!DOCTYPE svg PUBLIC "-//W3C//DTD SVG 1.1//EN" "http://www.w3.org/Graphics/SVG/1.1/DTD/svg11.dtd">
<svg version="1.1" id="Layer_1" xmlns="http://www.w3.org/2000/svg" xmlns:xlink="http://www.w3.org/1999/xlink" x="0px" y="0px"
	 width="246.333px" height="100.348px" viewBox="8.5 21.819 246.333 100.348" enable-background="new 8.5 21.819 246.333 100.348"
	 xml:space="preserve">
<g>
	<g>
		<g>
			<path fill="#D2D1D1" d="M245.627,92.509h7.934c0.095,0,0.182-0.022,0.259-0.064v-0.006c0-0.417-0.291-0.753-0.652-0.753h-7.179
				c-0.265,0-0.491,0.184-0.593,0.441c0.019,0.103,0.041,0.212,0.063,0.337c0.042,0.028,0.094,0.048,0.168,0.048V92.509
				L245.627,92.509z"/>
		</g>
	</g>
	<path fill="#AEC5D0" d="M42.69,56.646l6.799-0.822c0,0,29.34-20.731,21.143-20.076c-8.194,0.654-25.485,15.571-25.485,15.571
		L42.69,56.646z"/>
	<path fill="#221F1F" d="M45.09,67.644l62.501-7.214c0,0,101.397,6.556,102.049,6.556c0.659,0,22.729,5.464,22.729,5.464
		s6.992,6.118,13.114,15.731c6.116,9.617,1.093,11.15,1.093,11.15l-9.835,0.869c0,0-14.861,10.161-31.031,10.161
		c-16.168,0-16.61-7.153-16.61-7.153l-19.662-7.156c0,0-81.734,0.218-85.013,7.319c-3.275,7.104-7.32,6.991-7.32,6.991l-7.758-4.805
		H34.928c-2.951,0-4.042-3.278-4.042-3.278H19.194L45.09,67.644z"/>
	<path fill="#A1D5E6" d="M248.785,95.942c0,0,0.41,2.867-1.39,2.869c-1.802,0-0.901-2.053-1.969-3.444
		c-1.063-1.392-11.472-20.812-27.371-20.812c-15.896,0-22.863,14.584-24.66,25.729c0,0-0.493,6.151-6.068,6.151
		c-5.57,0-99.102-0.769-99.102-0.769l-7.365-3.086c1.053-2.202,1.626-4.584,1.626-7.067c0-11.309-11.919-20.479-26.629-20.479
		c-13.283,0-24.288,7.478-26.298,17.259l-8.835,0.042c0,0-3.031-0.9-1.31-4.754c1.721-3.847,5.164-9.998,5.164-9.998l0.736-4.587
		c0,0,3.275-4.916,6.062-7.948c2.791-3.03,13.849-13.849,13.849-13.849s-0.243,3.989,1.833,2.488
		c2.077-1.504,14.683-12.117,14.683-12.117s3.852-2.911,4.878-5.531c0,0,18.434-11.062,46.461-11.062
		c28.028,0,44.256,5.078,44.256,5.078s1.229,0.656,2.374,2.459c1.147,1.803,11.72,18.275,11.72,18.275s0.658,0.899,2.703,0.899
		c2.049,0,18.439,1.392,18.439,1.392s26.793,0.904,41.629,15.079c2.806,2.679,4.574,4.389,5.62,5.398
		c-1.574-1.57-3.985-4.071-3.327-3.924c1.477,0.329,5.982,3.113,6.966,6.719c0.983,3.607,3.279,12.455,3.279,12.455L248.785,95.942"
		/>
	<path fill="#71AEBC" d="M37.823,70.538c3.305-4.85,7.306-9.154,11.563-13.118c4.118-4.106,8.638-7.811,13.477-11.036
		c9.674-6.459,20.687-10.892,32.151-12.86c11.463-2.144,23.229-1.024,34.933-0.734l8.767,0.429c2.89,0.211,5.898,0.293,8.6,0.917
		c2.856,0.599,5.678,1.298,8.355,2.415c2.656,1.113,5.228,2.649,7.039,4.976c-1.621-2.466-4.122-4.259-6.742-5.607
		c-2.645-1.36-5.48-2.303-8.306-3.135c-3.014-0.71-5.92-0.719-8.863-0.958l-8.795-0.428c-11.67-0.282-23.52-1.425-35.231,0.754
		c-11.648,2-22.857,6.509-32.683,13.074c-4.917,3.272-9.5,7.038-13.69,11.203C44.392,60.765,40.735,65.438,37.823,70.538"/>
	<path fill="#E8E9E8" d="M54.852,87.999c7.315,0,13.243,5.928,13.243,13.242H41.608C41.608,93.926,47.535,87.999,54.852,87.999"/>
	<path fill="#393536" d="M54.852,84.033h-5.748h-5.749c0.822-0.546,1.685-1.039,2.584-1.469c0.904-0.434,1.836-0.798,2.801-1.098
		c1.932-0.594,3.982-0.917,6.11-0.917c2.129,0,4.179,0.323,6.109,0.917c0.965,0.3,1.9,0.664,2.803,1.098
		c0.896,0.43,1.764,0.923,2.585,1.469H54.852z"/>
	<path fill="#373435" d="M47.846,81.895c1.61-0.493,5.233-0.765,7.005-0.765s5.396,0.271,7.007,0.765
		c1.267,0.558,2.431,1.279,3.444,2.133c0.503,0.416,0.967,0.875,1.396,1.351c0.437,0.487,0.83,0.992,1.179,1.528H54.852h-6.512
		h-6.513c0.347-0.536,0.745-1.041,1.181-1.528c0.425-0.476,0.89-0.935,1.394-1.351C45.413,83.174,46.578,82.453,47.846,81.895"/>
	<path fill="#353232" d="M46.948,82.325c1.288-0.4,6.484-0.612,7.905-0.612c1.42,0,6.619,0.212,7.901,0.612
		c1.567,0.815,2.961,1.896,4.094,3.165c0.564,0.628,1.057,1.31,1.485,2.02c0.437,0.725,0.802,1.476,1.081,2.257h-14.56H47.57h-7.278
		c0.278-0.781,0.641-1.539,1.075-2.257c0.428-0.716,0.925-1.392,1.487-2.02C43.988,84.216,45.38,83.14,46.948,82.325"/>
	<path fill="#343031" d="M46.047,82.746c0.966-0.292,7.741-0.457,8.801-0.457c1.064,0,7.835,0.164,8.804,0.457
		c1.868,1.081,3.485,2.515,4.736,4.201c0.624,0.846,1.152,1.751,1.581,2.695c0.434,0.957,0.765,1.956,0.971,2.99H54.85h-8.046
		h-8.046c0.211-1.034,0.537-2.039,0.969-2.99c0.429-0.951,0.958-1.85,1.581-2.695C42.562,85.262,44.178,83.829,46.047,82.746"/>
	<path fill="#322E2F" d="M45.152,83.174c0.643-0.192,8.989-0.305,9.7-0.305c0.707,0,9.052,0.112,9.697,0.305
		c2.171,1.339,4.015,3.138,5.383,5.241c0.687,1.052,1.246,2.174,1.676,3.366c0.434,1.188,0.729,2.439,0.868,3.726H54.854h-8.817
		h-8.814c0.141-1.286,0.437-2.537,0.867-3.726c0.428-1.192,0.994-2.314,1.676-3.366C41.138,86.312,42.979,84.513,45.152,83.174"/>
	<path fill="#302C2D" d="M44.254,83.604c0.321-0.093,10.24-0.153,10.596-0.153c0.355,0,10.274,0.061,10.596,0.153
		c2.473,1.599,4.543,3.748,6.034,6.274c0.744,1.263,1.338,2.614,1.766,4.036c0.43,1.421,0.696,2.919,0.766,4.458H54.852h-9.581
		H35.69c0.072-1.539,0.334-3.037,0.765-4.458c0.428-1.422,1.025-2.773,1.769-4.036C39.711,87.352,41.784,85.203,44.254,83.604"/>
	<path fill="#2E2A2B" d="M34.158,101.241c0-1.793,0.229-3.531,0.657-5.192c0.428-1.657,1.06-3.236,1.863-4.705
		c1.606-2.943,3.904-5.452,6.678-7.308h11.497h11.493c2.772,1.855,5.07,4.364,6.678,7.308c0.804,1.469,1.432,3.048,1.863,4.705
		c0.43,1.661,0.658,3.4,0.658,5.192H54.85H34.158"/>
	<path fill="#2C2829" d="M54.852,86.907h13.027c2.311,2.02,4.13,4.564,5.293,7.425c0.584,1.435,1.005,2.938,1.239,4.501
		c0.232,1.573,0.281,3.195,0.122,4.846c-0.622,0.629-18.73,1.011-19.68,1.011c-0.952,0-19.057-0.382-19.68-1.011
		c-0.162-1.65-0.115-3.272,0.118-4.846c0.234-1.563,0.657-3.066,1.242-4.501c1.161-2.86,2.98-5.405,5.295-7.425H54.852z"/>
	<path fill="#2A2727" d="M54.852,89.767h14.562c1.847,2.19,3.186,4.77,3.907,7.555c0.368,1.387,0.578,2.826,0.621,4.295
		c0.04,1.48-0.099,2.989-0.418,4.5c-1.248,1.251-16.764,2.021-18.672,2.021c-1.904,0-17.425-0.77-18.671-2.021
		c-0.318-1.511-0.456-3.02-0.416-4.5c0.039-1.469,0.256-2.908,0.619-4.295c0.72-2.785,2.061-5.363,3.911-7.555H54.852z"/>
	<path fill="#292525" d="M54.854,92.633h16.091c1.387,2.355,2.239,4.977,2.525,7.685c0.139,1.34,0.148,2.71-0.005,4.085
		c-0.161,1.392-0.479,2.784-0.953,4.155c-1.872,1.872-14.806,3.03-17.663,3.03c-2.858,0-15.788-1.158-17.659-3.03
		c-0.479-1.371-0.801-2.769-0.956-4.155c-0.154-1.375-0.146-2.745-0.004-4.085c0.285-2.708,1.139-5.329,2.526-7.685H54.854z"/>
	<path fill="#262324" d="M54.85,95.507h17.625c0.923,2.519,1.3,5.175,1.144,7.801c-0.08,1.304-0.281,2.603-0.628,3.876
		c-0.354,1.303-0.854,2.578-1.489,3.806c-2.497,2.497-12.844,4.043-16.651,4.043c-3.81,0-14.158-1.546-16.651-4.043
		c-0.636-1.227-1.135-2.507-1.489-3.806c-0.349-1.273-0.548-2.572-0.626-3.876c-0.161-2.626,0.218-5.282,1.145-7.801H54.85z"/>
	<path fill="#252122" d="M54.854,98.373H74.01c0.462,2.691,0.362,5.376-0.241,7.932c-0.296,1.258-0.717,2.485-1.252,3.666
		c-0.553,1.21-1.23,2.373-2.024,3.466c-3.118,3.12-10.878,5.047-15.64,5.047c-4.766,0-12.522-1.927-15.646-5.047
		c-0.793-1.093-1.474-2.256-2.027-3.472c-0.539-1.175-0.954-2.402-1.248-3.66c-0.605-2.556-0.701-5.24-0.241-7.932H54.854
		L54.854,98.373z"/>
	<path fill="#221F1F" d="M75.543,101.241c0,2.854-0.578,5.576-1.628,8.054c-1.047,2.473-2.561,4.706-4.433,6.58
		c-3.743,3.741-8.916,6.056-14.629,6.056c-5.718,0-10.89-2.314-14.635-6.056c-1.872-1.874-3.387-4.107-4.433-6.58
		c-1.046-2.478-1.627-5.199-1.627-8.054h20.695H75.543"/>
	<path fill="#4F4C4D" d="M54.852,81.941c10.642,0,19.298,8.659,19.298,19.3c0,10.644-8.656,19.296-19.298,19.296
		c-10.643,0-19.298-8.652-19.298-19.296C35.553,90.601,44.208,81.941,54.852,81.941 M54.852,80.549
		c-11.428,0-20.691,9.264-20.691,20.691c0,11.427,9.264,20.688,20.691,20.688c11.43,0,20.689-9.262,20.689-20.688
		S66.28,80.549,54.852,80.549"/>
	<path fill="#484445" d="M54.852,81.79c10.728,0,19.45,8.725,19.45,19.451c0,10.728-8.723,19.457-19.45,19.457
		c-10.726,0-19.454-8.729-19.454-19.457C35.398,90.512,44.125,81.79,54.852,81.79 M54.852,80.549
		c-11.428,0-20.691,9.264-20.691,20.691c0,11.427,9.264,20.688,20.691,20.688c11.43,0,20.689-9.262,20.689-20.688
		S66.28,80.549,54.852,80.549"/>
	<path fill="#403D3E" d="M54.852,81.636c10.814,0,19.607,8.794,19.608,19.604c0,10.814-8.794,19.603-19.608,19.603
		c-10.812,0-19.608-8.788-19.608-19.603C35.242,90.43,44.04,81.636,54.852,81.636 M54.852,80.549
		c-11.428,0-20.691,9.264-20.691,20.691c0,11.427,9.264,20.688,20.691,20.688c11.43,0,20.689-9.262,20.689-20.688
		S66.28,80.549,54.852,80.549"/>
	<path fill="#393536" d="M54.85,81.478c10.901,0,19.763,8.865,19.763,19.763c0,10.896-8.862,19.761-19.763,19.761
		c-10.897,0-19.761-8.866-19.761-19.761C35.087,90.343,43.952,81.478,54.85,81.478 M54.85,80.549
		c-11.427,0-20.691,9.264-20.691,20.691c0,11.427,9.264,20.688,20.691,20.688c11.43,0,20.693-9.262,20.693-20.688
		S66.279,80.549,54.85,80.549"/>
	<path fill="#322E2F" d="M54.852,81.326c10.982,0,19.917,8.935,19.917,19.915c0,10.985-8.935,19.916-19.917,19.916
		c-10.981,0-19.918-8.931-19.918-19.916C34.933,90.26,43.87,81.326,54.852,81.326 M54.852,80.549
		c-11.428,0-20.691,9.264-20.691,20.691c0,11.427,9.264,20.688,20.691,20.688c11.43,0,20.689-9.262,20.689-20.688
		S66.28,80.549,54.852,80.549"/>
	<path fill="#2A2727" d="M54.854,81.167c11.068,0,20.07,9.005,20.071,20.073c0,11.067-9.003,20.073-20.071,20.073
		c-11.069,0-20.073-9.006-20.073-20.073C34.78,90.173,43.783,81.167,54.854,81.167 M54.854,80.549
		c-11.431,0-20.695,9.264-20.695,20.691c0,11.427,9.264,20.688,20.695,20.688c11.428,0,20.689-9.262,20.689-20.688
		S66.28,80.549,54.854,80.549"/>
	<path fill="#221F1F" stroke="#231F20" stroke-width="0.35" stroke-miterlimit="10" d="M54.852,81.013
		c11.151,0,20.227,9.078,20.227,20.228c0,11.155-9.076,20.225-20.227,20.225c-11.152,0-20.228-9.069-20.228-20.225
		C34.623,90.091,43.698,81.013,54.852,81.013 M54.852,80.549c-11.428,0-20.691,9.264-20.691,20.691
		c0,11.427,9.264,20.688,20.691,20.688c11.43,0,20.689-9.262,20.689-20.688S66.28,80.549,54.852,80.549"/>
	<g>
		<path fill="#A9AAA9" d="M54.852,114.482c-3.472,0.048-6.943-1.356-9.422-3.818c-2.499-2.443-3.974-5.904-3.986-9.429
			c-0.042-3.508,1.378-7.026,3.872-9.529c2.473-2.531,5.968-4.023,9.544-4.036c3.544,0.006,7.065,1.505,9.527,4.036
			c2.494,2.509,3.916,6.016,3.872,9.541c-0.011,3.508-1.485,6.978-3.989,9.417C61.793,113.125,58.32,114.529,54.852,114.482
			 M54.852,114.482c3.473-0.013,6.893-1.464,9.307-3.936c2.431-2.449,3.816-5.868,3.772-9.306c-0.012-3.426-1.447-6.81-3.887-9.188
			c-2.424-2.402-5.797-3.766-9.198-3.73c-3.373-0.042-6.769,1.327-9.184,3.73c-2.44,2.378-3.877,5.75-3.889,9.193
			c-0.042,3.419,1.34,6.849,3.771,9.298C47.957,113.018,51.377,114.469,54.852,114.482"/>
	</g>
	<g>
		<path fill="#727272" d="M54.852,113.172c-3.129,0.041-6.258-1.216-8.496-3.436c-2.256-2.198-3.587-5.317-3.6-8.501
			c-0.043-3.161,1.239-6.339,3.486-8.608c2.229-2.284,5.388-3.637,8.617-3.643c3.196,0.006,6.379,1.358,8.603,3.643
			c2.246,2.273,3.527,5.44,3.482,8.617c-0.012,3.16-1.345,6.293-3.601,8.488C61.107,111.957,57.979,113.213,54.852,113.172
			 M54.852,113.172c3.13-0.012,6.21-1.328,8.38-3.554c2.188-2.209,3.429-5.287,3.386-8.376c-0.013-3.085-1.308-6.129-3.504-8.261
			c-2.18-2.162-5.208-3.384-8.268-3.343c-3.029-0.041-6.082,1.181-8.257,3.337c-2.197,2.144-3.493,5.175-3.505,8.272
			c-0.042,3.076,1.199,6.167,3.387,8.368C48.641,111.844,51.719,113.161,54.852,113.172"/>
	</g>
	<path fill="#BDBEBD" d="M54.852,110.645c5.186,0,9.404-4.218,9.404-9.404h0.462c0,5.44-4.424,9.869-9.868,9.869
		c-5.441,0-9.866-4.429-9.866-9.869h0.465C45.448,106.427,49.664,110.645,54.852,110.645"/>
	<path fill="#909292" d="M54.852,91.372c5.443,0,9.867,4.429,9.868,9.869h-0.463c0-5.188-4.218-9.405-9.405-9.405
		s-9.403,4.217-9.403,9.405h-0.465C44.983,95.8,49.409,91.372,54.852,91.372"/>
	<path fill="#DDDEDD" d="M64.488,101.476c0-5.322-4.315-9.641-9.636-9.641c-5.324,0-9.638,4.318-9.638,9.641
		s4.314,9.634,9.638,9.634C60.171,111.11,64.488,106.798,64.488,101.476"/>
	<path fill="#3B3F3C" d="M56.162,93.609c0-0.288-0.235-0.521-0.522-0.521h-1.578c-0.288,0-0.522,0.233-0.522,0.521
		c0,0.287,0.234,0.521,0.522,0.521h1.578C55.926,94.131,56.162,93.896,56.162,93.609"/>
	<path fill="#3B3F3C" d="M50.215,94.984c-0.202-0.206-0.537-0.206-0.742,0l-1.111,1.115c-0.206,0.205-0.206,0.535,0,0.741
		c0.206,0.205,0.537,0.205,0.741,0l1.112-1.11C50.42,95.523,50.42,95.189,50.215,94.984"/>
	<path fill="#3B3F3C" d="M46.988,100.159c-0.293,0.007-0.527,0.242-0.527,0.529l0.002,1.574c0,0.287,0.232,0.522,0.525,0.522
		c0.288,0,0.521-0.235,0.521-0.522v-1.574C47.509,100.4,47.275,100.159,46.988,100.159"/>
	<path fill="#3B3F3C" d="M48.362,106.105c-0.204,0.206-0.204,0.541,0,0.746l1.114,1.109c0.204,0.206,0.535,0.206,0.739,0
		c0.208-0.205,0.208-0.541,0-0.739l-1.108-1.116C48.899,105.906,48.567,105.906,48.362,106.105"/>
	<path fill="#3B3F3C" d="M53.538,109.335c0,0.294,0.239,0.528,0.522,0.528h1.579c0.288,0,0.522-0.234,0.522-0.528
		c0-0.288-0.235-0.522-0.522-0.522H54.06C53.778,108.813,53.538,109.047,53.538,109.335"/>
	<path fill="#3B3F3C" d="M59.485,107.96c0.204,0.206,0.537,0.206,0.742,0l1.114-1.109c0.204-0.205,0.204-0.54,0-0.746
		c-0.205-0.199-0.54-0.199-0.744,0l-1.112,1.116C59.28,107.427,59.28,107.755,59.485,107.96"/>
	<path fill="#3B3F3C" d="M62.715,102.785c0.288,0,0.522-0.235,0.522-0.521v-1.574c0-0.294-0.235-0.529-0.522-0.529
		c-0.291,0-0.522,0.235-0.522,0.529v1.574C62.193,102.55,62.425,102.785,62.715,102.785"/>
	<path fill="#3B3F3C" d="M61.34,96.84c0.204-0.206,0.204-0.54,0-0.741l-1.114-1.115c-0.204-0.206-0.535-0.206-0.742,0
		c-0.205,0.205-0.205,0.539,0,0.739l1.114,1.117C60.8,97.045,61.135,97.045,61.34,96.84"/>
	<path fill="#A8AAA7" d="M61.142,101.476c0-3.479-2.818-6.292-6.293-6.292s-6.29,2.813-6.29,6.292c0,3.472,2.815,6.292,6.29,6.292
		S61.142,104.948,61.142,101.476"/>
	<path fill="#A8AAA7" d="M56.912,101.476c0-1.141-0.923-2.062-2.062-2.062c-1.137,0-2.061,0.923-2.061,2.062
		c0,1.139,0.923,2.062,2.061,2.062C55.989,103.539,56.912,102.615,56.912,101.476"/>
	<path fill="#E8E9E8" d="M218.032,88.235c7.313,0,13.241,5.927,13.241,13.241h-26.486C204.787,94.162,210.714,88.235,218.032,88.235
		"/>
	<path fill="#393536" d="M218.032,84.269h-5.748h-5.749c0.821-0.553,1.687-1.046,2.585-1.474c0.902-0.431,1.834-0.802,2.799-1.094
		c1.931-0.599,3.987-0.923,6.114-0.923c2.126,0,4.176,0.324,6.104,0.923c0.967,0.292,1.903,0.663,2.805,1.094
		c0.896,0.428,1.764,0.921,2.583,1.474H218.032z"/>
	<path fill="#373435" d="M211.022,82.13c1.611-0.499,5.234-0.77,7.01-0.77c1.772,0,5.396,0.271,7.005,0.77
		c1.267,0.558,2.434,1.279,3.445,2.126c0.506,0.424,0.968,0.88,1.394,1.356c0.436,0.481,0.833,0.994,1.183,1.521h-13.026h-6.515
		h-6.513c0.344-0.527,0.74-1.046,1.178-1.526c0.422-0.478,0.894-0.928,1.393-1.352C208.596,83.41,209.756,82.688,211.022,82.13"/>
	<path fill="#353232" d="M210.123,82.553c1.288-0.395,6.486-0.612,7.908-0.612c1.418,0,6.615,0.218,7.901,0.611
		c1.566,0.822,2.958,1.903,4.092,3.166c0.567,0.633,1.061,1.316,1.485,2.025c0.432,0.718,0.803,1.476,1.079,2.264h-14.558h-7.285
		h-7.279c0.276-0.786,0.641-1.544,1.076-2.267c0.43-0.712,0.928-1.393,1.486-2.021C207.168,84.458,208.558,83.375,210.123,82.553"/>
	<path fill="#343031" d="M209.224,82.982c0.967-0.3,7.744-0.458,8.807-0.457c1.061,0,7.837,0.157,8.8,0.459
		c1.868,1.074,3.483,2.513,4.741,4.199c0.616,0.839,1.148,1.745,1.58,2.695c0.428,0.95,0.758,1.948,0.969,2.989h-16.092h-8.047
		h-8.048c0.207-1.041,0.542-2.039,0.97-2.995c0.435-0.952,0.964-1.852,1.58-2.691C205.742,85.497,207.356,84.058,209.224,82.982"/>
	<path fill="#322E2F" d="M208.331,83.41c0.644-0.193,8.99-0.305,9.701-0.304c0.705,0,9.052,0.11,9.699,0.304
		c2.167,1.34,4.014,3.132,5.386,5.236c0.682,1.051,1.24,2.179,1.67,3.365c0.428,1.188,0.73,2.438,0.869,3.725h-17.624h-8.817h-8.81
		c0.138-1.286,0.432-2.537,0.866-3.725c0.427-1.187,0.994-2.314,1.672-3.365C204.316,86.542,206.159,84.75,208.331,83.41"/>
	<path fill="#302C2D" d="M207.434,83.839c0.32-0.099,10.242-0.153,10.594-0.153c0.359,0,10.275,0.054,10.596,0.153
		c2.474,1.598,4.548,3.748,6.032,6.269c0.747,1.264,1.347,2.614,1.771,4.035c0.431,1.428,0.69,2.92,0.765,4.465h-19.165h-9.577
		h-9.578c0.065-1.545,0.331-3.037,0.759-4.465c0.431-1.421,1.029-2.771,1.769-4.035C202.893,87.587,204.96,85.437,207.434,83.839"/>
	<path fill="#2E2A2B" d="M197.338,101.476c0-1.799,0.229-3.537,0.66-5.193c0.423-1.661,1.056-3.235,1.856-4.712
		c1.609-2.936,3.907-5.443,6.68-7.3h11.493h11.498c2.771,1.856,5.073,4.364,6.677,7.3c0.805,1.477,1.435,3.051,1.862,4.712
		c0.428,1.657,0.658,3.395,0.658,5.193H218.03H197.338"/>
	<path fill="#2C2829" d="M218.03,87.135h13.024c2.315,2.026,4.137,4.563,5.299,7.432c0.582,1.427,1,2.938,1.233,4.499
		c0.235,1.57,0.283,3.191,0.125,4.849c-0.622,0.623-18.729,1.01-19.68,1.01c-0.952,0-19.057-0.387-19.681-1.01
		c-0.16-1.657-0.117-3.278,0.119-4.849c0.232-1.562,0.657-3.072,1.239-4.499c1.162-2.868,2.983-5.405,5.292-7.432H218.03z"/>
	<path fill="#2A2727" d="M218.032,90.002h14.557c1.852,2.19,3.188,4.77,3.912,7.554c0.365,1.387,0.576,2.827,0.617,4.289
		c0.035,1.486-0.1,2.99-0.416,4.506c-1.246,1.247-16.767,2.021-18.67,2.021c-1.909,0-17.426-0.773-18.677-2.021
		c-0.315-1.516-0.455-3.02-0.41-4.506c0.036-1.462,0.252-2.902,0.613-4.289c0.727-2.784,2.065-5.363,3.91-7.554H218.032z"/>
	<path fill="#292525" d="M218.032,92.869h16.091c1.386,2.356,2.25,4.971,2.525,7.679c0.146,1.345,0.146,2.715-0.005,4.089
		c-0.157,1.388-0.477,2.779-0.952,4.153c-1.87,1.874-14.804,3.031-17.659,3.031c-2.861,0-15.791-1.157-17.663-3.031
		c-0.479-1.374-0.801-2.768-0.954-4.153c-0.155-1.374-0.149-2.744-0.006-4.089c0.282-2.708,1.14-5.322,2.526-7.679H218.032z"/>
	<path fill="#262324" d="M218.026,95.735h17.628c0.922,2.526,1.304,5.176,1.146,7.808c-0.076,1.305-0.28,2.603-0.628,3.877
		c-0.355,1.304-0.857,2.579-1.49,3.808c-2.497,2.495-12.843,4.041-16.654,4.041c-3.809,0-14.152-1.546-16.649-4.041
		c-0.634-1.229-1.133-2.504-1.485-3.808c-0.346-1.274-0.552-2.572-0.629-3.877c-0.159-2.632,0.219-5.281,1.14-7.808H218.026z"/>
	<path fill="#252122" d="M218.032,98.608h19.156c0.465,2.692,0.365,5.376-0.24,7.925c-0.293,1.265-0.711,2.491-1.251,3.672
		c-0.546,1.217-1.232,2.373-2.027,3.467c-3.119,3.119-10.88,5.053-15.638,5.053c-4.766,0-12.522-1.934-15.645-5.053
		c-0.795-1.093-1.475-2.25-2.023-3.467c-0.539-1.181-0.958-2.408-1.251-3.672c-0.605-2.549-0.705-5.232-0.241-7.925H218.032z"/>
	<path fill="#221F1F" d="M238.722,101.476c0,2.854-0.576,5.574-1.627,8.053c-1.046,2.475-2.562,4.707-4.436,6.58
		c-3.742,3.743-8.918,6.058-14.628,6.058c-5.717,0-10.889-2.314-14.634-6.058c-1.873-1.874-3.387-4.105-4.433-6.58
		c-1.049-2.477-1.627-5.198-1.627-8.053h20.693H238.722"/>
	<g>
		<path fill="#4F4C4D" d="M218.032,82.176c10.64,0,19.297,8.654,19.297,19.299c0,10.639-8.657,19.298-19.297,19.298
			c-10.645,0-19.298-8.659-19.298-19.298C198.733,90.831,207.385,82.176,218.032,82.176 M218.032,80.779
			c-11.432,0-20.689,9.265-20.689,20.697c0,11.427,9.258,20.69,20.689,20.69c11.426,0,20.69-9.264,20.69-20.69
			C238.722,90.043,229.457,80.779,218.032,80.779"/>
		<path fill="#484445" d="M218.032,82.025c10.726,0,19.451,8.723,19.451,19.45s-8.724,19.451-19.451,19.451
			c-10.727,0-19.458-8.724-19.458-19.45S207.304,82.025,218.032,82.025 M218.032,80.779c-11.432,0-20.689,9.265-20.689,20.697
			c0,11.427,9.258,20.69,20.689,20.69c11.426,0,20.69-9.264,20.69-20.69C238.722,90.043,229.457,80.779,218.032,80.779"/>
		<path fill="#403D3E" d="M218.032,81.867c10.809,0,19.606,8.795,19.607,19.608c0,10.809-8.798,19.604-19.607,19.604
			c-10.816,0-19.612-8.796-19.612-19.604C198.417,90.661,207.214,81.867,218.032,81.867 M218.032,80.779
			c-11.432,0-20.689,9.265-20.689,20.697c0,11.427,9.258,20.69,20.689,20.69c11.426,0,20.69-9.264,20.69-20.69
			C238.722,90.043,229.457,80.779,218.032,80.779"/>
		<path fill="#393536" d="M218.032,81.708c10.898,0,19.759,8.865,19.759,19.763c0,10.896-8.862,19.768-19.759,19.768
			c-10.902,0-19.765-8.871-19.765-19.768C198.267,90.573,207.128,81.708,218.032,81.708 M218.032,80.779
			c-11.432,0-20.696,9.265-20.696,20.691c0,11.433,9.265,20.696,20.696,20.696c11.426,0,20.69-9.264,20.69-20.696
			C238.722,90.043,229.457,80.779,218.032,80.779"/>
		<path fill="#322E2F" d="M218.032,81.555c10.979,0,19.915,8.934,19.915,19.921c0,10.979-8.937,19.916-19.915,19.916
			c-10.983,0-19.921-8.938-19.921-19.916C198.111,90.49,207.047,81.555,218.032,81.555 M218.032,80.779
			c-11.432,0-20.689,9.265-20.689,20.697c0,11.427,9.258,20.69,20.689,20.69c11.426,0,20.69-9.264,20.69-20.69
			C238.722,90.043,229.457,80.779,218.032,80.779"/>
		<path fill="#2A2727" d="M218.032,81.402c11.068,0,20.067,9.007,20.069,20.073c0,11.067-9.001,20.073-20.069,20.073
			c-11.071,0-20.073-9.005-20.073-20.073C197.958,90.409,206.96,81.402,218.032,81.402 M218.032,80.779
			c-11.432,0-20.689,9.265-20.689,20.697c0,11.427,9.258,20.69,20.689,20.69c11.426,0,20.69-9.264,20.69-20.69
			C238.722,90.043,229.457,80.779,218.032,80.779"/>
		<path fill="#221F1F" stroke="#231F20" stroke-width="0.25" stroke-miterlimit="10" d="M218.032,81.248
			c11.15,0,20.226,9.072,20.226,20.228c0,11.15-9.075,20.227-20.226,20.227c-11.155,0-20.229-9.076-20.229-20.227
			C197.802,90.32,206.875,81.248,218.032,81.248 M218.032,80.779c-11.432,0-20.689,9.265-20.689,20.697
			c0,11.427,9.258,20.69,20.689,20.69c11.426,0,20.69-9.264,20.69-20.69C238.722,90.043,229.457,80.779,218.032,80.779"/>
	</g>
	<g>
		<g>
			<g>
				<defs>
					<rect id="SVGID_1_" x="204.62" y="87.905" width="26.816" height="26.812"/>
				</defs>
				<clipPath id="SVGID_2_">
					<use xlink:href="#SVGID_1_"  overflow="visible"/>
				</clipPath>
				<path clip-path="url(#SVGID_2_)" fill="#A8A8A8" d="M218.032,114.716c-3.472,0.041-6.944-1.356-9.426-3.825
					c-2.496-2.438-3.976-5.903-3.981-9.416c-0.047-3.515,1.375-7.032,3.866-9.541c2.47-2.526,5.979-4.018,9.542-4.029
					c3.556,0.005,7.066,1.497,9.533,4.029c2.498,2.515,3.916,6.021,3.873,9.541c-0.012,3.508-1.486,6.979-3.989,9.416
					C224.972,113.36,221.502,114.757,218.032,114.716 M218.032,114.716c3.471-0.012,6.892-1.468,9.306-3.936
					c2.429-2.455,3.812-5.874,3.771-9.311c-0.013-3.426-1.451-6.81-3.889-9.188c-2.422-2.398-5.806-3.761-9.188-3.727
					c-3.389-0.04-6.772,1.328-9.192,3.727c-2.439,2.384-3.877,5.763-3.89,9.192c-0.042,3.431,1.345,6.855,3.776,9.305
					C211.134,113.248,214.556,114.705,218.032,114.716"/>
			</g>
		</g>
	</g>
	<g>
		<g>
			<g>
				<defs>
					<rect id="SVGID_3_" x="205.933" y="89.214" width="24.191" height="24.192"/>
				</defs>
				<clipPath id="SVGID_4_">
					<use xlink:href="#SVGID_3_"  overflow="visible"/>
				</clipPath>
				<path clip-path="url(#SVGID_4_)" fill="#6F706F" d="M218.032,113.407c-3.131,0.042-6.257-1.222-8.495-3.437
					c-2.257-2.197-3.589-5.323-3.6-8.495c-0.043-3.172,1.234-6.345,3.482-8.612c2.228-2.285,5.395-3.637,8.612-3.648
					c3.211,0.005,6.379,1.363,8.606,3.648c2.251,2.268,3.53,5.44,3.486,8.612c-0.012,3.167-1.343,6.293-3.598,8.495
					C224.288,112.185,221.157,113.449,218.032,113.407 M218.032,113.407c3.131-0.018,6.211-1.328,8.377-3.555
					c2.189-2.207,3.433-5.292,3.39-8.375c-0.019-3.09-1.309-6.127-3.507-8.265c-2.181-2.156-5.22-3.377-8.261-3.342
					c-3.043-0.042-6.085,1.186-8.266,3.342c-2.197,2.138-3.488,5.175-3.507,8.265c-0.035,3.084,1.204,6.168,3.389,8.375
					C211.819,112.079,214.9,113.389,218.032,113.407"/>
			</g>
		</g>
	</g>
	<path fill="#BDBEBD" d="M218.032,110.875c5.184,0,9.399-4.218,9.399-9.399h0.471c0,5.439-4.43,9.869-9.869,9.869
		c-5.445,0-9.869-4.43-9.869-9.869h0.463C208.625,106.657,212.844,110.875,218.032,110.875"/>
	<path fill="#909292" d="M218.032,91.606c5.44,0,9.87,4.424,9.87,9.869h-0.471c0-5.187-4.215-9.405-9.4-9.405
		c-5.187,0-9.405,4.217-9.405,9.405h-0.463C208.163,96.03,212.586,91.606,218.032,91.606"/>
	<path fill="#DDDEDD" d="M227.667,101.704c0-5.322-4.317-9.634-9.64-9.634c-5.319,0-9.636,4.312-9.636,9.634
		c0,5.323,4.316,9.641,9.636,9.641C223.349,111.344,227.667,107.027,227.667,101.704"/>
	<path fill="#3B3F3C" d="M219.341,93.844c0-0.293-0.234-0.528-0.521-0.528h-1.575c-0.287,0-0.528,0.234-0.528,0.528
		c0,0.287,0.241,0.521,0.528,0.521h1.575C219.107,94.366,219.341,94.131,219.341,93.844"/>
	<path fill="#3B3F3C" d="M213.396,95.219c-0.205-0.205-0.536-0.205-0.745,0l-1.111,1.109c-0.205,0.206-0.205,0.542,0,0.741
		c0.205,0.205,0.539,0.205,0.74,0l1.116-1.111C213.598,95.753,213.598,95.425,213.396,95.219"/>
	<path fill="#3B3F3C" d="M210.167,100.395c-0.297,0-0.531,0.233-0.531,0.521l0.008,1.576c0,0.287,0.228,0.521,0.523,0.521
		c0.287,0,0.521-0.233,0.521-0.521v-1.576C210.688,100.628,210.454,100.395,210.167,100.395"/>
	<path fill="#3B3F3C" d="M211.54,106.339c-0.205,0.205-0.205,0.535,0,0.74l1.118,1.117c0.202,0.204,0.533,0.204,0.735,0
		c0.209-0.207,0.209-0.542,0-0.746l-1.107-1.111C212.075,106.133,211.745,106.133,211.54,106.339"/>
	<path fill="#3B3F3C" d="M216.717,109.571c0,0.288,0.234,0.522,0.522,0.522h1.572c0.291,0,0.529-0.234,0.529-0.522
		c0-0.287-0.238-0.522-0.529-0.522h-1.57C216.954,109.048,216.717,109.284,216.717,109.571"/>
	<path fill="#3B3F3C" d="M222.661,108.197c0.206,0.199,0.54,0.199,0.746,0l1.111-1.117c0.205-0.199,0.205-0.535,0-0.74
		c-0.206-0.206-0.539-0.206-0.74,0l-1.117,1.111C222.459,107.655,222.459,107.99,222.661,108.197"/>
	<path fill="#3B3F3C" d="M225.89,103.014c0.288,0,0.524-0.234,0.522-0.521v-1.576c0-0.288-0.234-0.521-0.522-0.521
		c-0.287,0-0.521,0.233-0.521,0.521v1.576C225.369,102.78,225.603,103.014,225.89,103.014"/>
	<path fill="#3B3F3C" d="M224.518,97.074c0.205-0.203,0.205-0.539,0-0.745l-1.115-1.109c-0.202-0.205-0.535-0.205-0.742,0
		c-0.206,0.206-0.206,0.534,0.003,0.739l1.109,1.115C223.975,97.275,224.312,97.275,224.518,97.074"/>
	<path fill="#A8AAA7" d="M224.318,101.704c0-3.472-2.816-6.291-6.287-6.291c-3.479,0-6.293,2.819-6.293,6.291
		c0,3.479,2.814,6.292,6.293,6.292C221.501,107.996,224.318,105.183,224.318,101.704"/>
	<path fill="#A8AAA7" d="M220.089,101.704c0-1.139-0.925-2.062-2.058-2.062c-1.139,0-2.064,0.923-2.064,2.062
		c0,1.14,0.926,2.062,2.064,2.062C219.165,103.766,220.089,102.843,220.089,101.704"/>
	<g>
		<g>
			<g>
				<defs>
					<rect id="SVGID_5_" x="215.669" y="101.704" width="4.719" height="2.362"/>
				</defs>
				<clipPath id="SVGID_6_">
					<use xlink:href="#SVGID_5_"  overflow="visible"/>
				</clipPath>
				<path clip-path="url(#SVGID_6_)" fill="#A8AAA7" d="M218.032,103.473c0.975,0,1.762-0.794,1.764-1.768h0.593
					c0,1.299-1.057,2.36-2.355,2.36c-1.302,0-2.361-1.062-2.361-2.36h0.593C216.264,102.679,217.055,103.473,218.032,103.473"/>
			</g>
		</g>
	</g>
	<g>
		<g>
			<g>
				<defs>
					<rect id="SVGID_7_" x="215.669" y="99.349" width="4.719" height="2.354"/>
				</defs>
				<clipPath id="SVGID_8_">
					<use xlink:href="#SVGID_7_"  overflow="visible"/>
				</clipPath>
				<path clip-path="url(#SVGID_8_)" fill="#A8AAA7" d="M218.032,99.349c1.298,0,2.356,1.057,2.354,2.354h-0.592
					c0-0.975-0.79-1.762-1.763-1.762c-0.977,0-1.768,0.787-1.768,1.762h-0.593C215.669,100.406,216.729,99.349,218.032,99.349"/>
			</g>
		</g>
	</g>
	<path fill="#5CB6D4" d="M178.469,100.941c0,0,3.033-20.244,18.763-30.077c15.739-9.832,33.439-2.62,39.419-1.146
		c5.983,1.476,6.883,6.063,6.883,6.063s3.276,13.457,4.998,18.028c1.837,4.864-1.47,5.247-1.47,5.247
		c-1.229-0.929-1.204-2.808-1.204-2.808l-5.764-8.578c-10.322-13.357-21.471-12.954-21.471-12.954
		c-21.47-0.327-24.749,24.833-25.484,28.356c-0.741,3.52-4.918,3.278-4.918,3.278h-6.802
		C181.419,100.858,178.469,100.941,178.469,100.941"/>
	<path fill="none" stroke="#7FAABC" stroke-width="0.154" stroke-miterlimit="10" d="M144.663,32.787
		c14.345,0.902,18.93,10.272,18.93,10.272s8.355,12.877,9.631,14.804c1.266,1.928,1.679,3.226,1.679,3.226v39.007l-62.827,0.876
		V31.695C112.076,31.695,130.322,31.886,144.663,32.787z"/>
	<path fill="none" stroke="#CFE9F1" stroke-width="0.154" stroke-miterlimit="10" d="M111.051,61.934H95.972
		c-10.324,0-38.186,3.769-38.186,3.769"/>
	
		<line fill="none" stroke="#CFE9F1" stroke-width="0.154" stroke-miterlimit="10" x1="171.69" y1="61.934" x2="113.018" y2="61.934"/>
	<path fill="none" stroke="#CFE9F1" stroke-width="0.154" stroke-miterlimit="10" d="M211.74,65.703
		c-6.779-2.731-35.731-3.769-35.731-3.769"/>
	<path fill="#E5952A" d="M29.017,79.093h-7.134c0.174-0.875,0.374-1.656,0.574-2.132c0.698-1.64,2.049-1.475,2.049-1.475h5.29
		l1.595,0.493L29.017,79.093z"/>
	<path fill="#B42227" d="M21.475,84.461c-0.292-0.411-0.022-3.201,0.406-5.368h7.137l-4.429,5.815h-2.092
		C22.496,84.909,21.884,85.032,21.475,84.461"/>
	<path fill="#5CB6D4" d="M12.319,102.167c0,0,6.666-10.708,9.944-16.33c3.279-5.627,8.686-13.274,8.686-13.274
		c7.977-5.792,23.33-6.229,23.33-6.229c35.509,0.872,32.575,40.341,32.575,40.341c-0.698,0.741-3.567,0.576-3.567,0.576
		c-4.796,0-4.646-5.956-4.646-5.956c-0.434-9.283-8.738-23.712-23.926-23.712c-15.191,0-19.45,10.38-25.353,18.47
		C23.466,104.137,12.319,102.167,12.319,102.167"/>
	<path fill="#D2D1D1" d="M86.696,101.622c0,0,84.103-1.091,90.223-1.093c6.113,0,5.264,5.905,5.264,5.905
		s-96.847,1.639-96.847-1.259C85.336,102.28,86.696,101.622,86.696,101.622"/>
	<path fill="#4F4C4D" d="M10.158,94.767c-0.093,0-0.18,0.022-0.26,0.064v-3.489c0.08,0.04,0.167,0.058,0.26,0.058h14.418
		c0.075,0,0.126-0.011,0.166-0.042c-0.166,0.847-0.522,2.274-1.147,3.408L10.158,94.767L10.158,94.767z"/>
	<path fill="#D2D1D1" d="M10.554,95.588h12.476c-0.426,0.493-0.94,0.823-1.563,0.823H10.157c-0.361,0-0.657-0.336-0.657-0.751
		v-0.142c0-0.312,0.165-0.576,0.396-0.688v0.005C9.897,95.252,10.193,95.587,10.554,95.588L10.554,95.588z"/>
	<path fill="#D2D1D1" d="M10.554,95.587c-0.361,0-0.657-0.333-0.659-0.751V94.83c0.083-0.04,0.167-0.063,0.262-0.063h13.435
		c-0.164,0.304-0.351,0.582-0.562,0.821H10.554"/>
	<path fill="#D2D1D1" d="M24.212,89.755c0.361,0,0.655,0.34,0.655,0.752v0.141c0,0-0.021,0.147-0.059,0.375
		c-0.018,0.093-0.039,0.206-0.066,0.335c-0.039,0.031-0.092,0.042-0.167,0.042H10.157c-0.095,0-0.178-0.018-0.259-0.058
		C9.666,91.223,9.5,90.958,9.5,90.648v-0.141c0-0.411,0.296-0.752,0.657-0.752H24.212"/>
	<path fill="#4F4C4D" d="M253.564,95.523c0.092,0,0.179,0.024,0.256,0.064v-3.488c-0.077,0.035-0.164,0.059-0.256,0.059h-7.999
		c-0.075,0-0.124-0.019-0.166-0.041c0.166,0.846,0.522,2.273,1.149,3.406H253.564z"/>
	<path fill="#D2D1D1" d="M247.107,96.346c0.433,0.494,0.944,0.823,1.565,0.823h4.889c0.364,0,0.659-0.336,0.659-0.752v-0.141
		c0-0.312-0.164-0.576-0.4-0.694v0.012c0,0.417-0.294,0.752-0.652,0.752H247.107z"/>
	<path fill="#D2D1D1" d="M253.167,96.346c0.358,0,0.652-0.334,0.652-0.752v-0.012c-0.08-0.035-0.164-0.06-0.259-0.06h-7.013
		c0.166,0.307,0.353,0.583,0.559,0.823H253.167"/>
	<path fill="#D2D1D1" d="M245.929,90.513c-0.364,0-0.658,0.335-0.657,0.753v0.141c0,0,0.023,0.146,0.059,0.375
		c0.021,0.094,0.042,0.206,0.07,0.335c0.035,0.022,0.091,0.042,0.164,0.042h7.996c0.095,0,0.182-0.023,0.257-0.059
		c0.236-0.117,0.401-0.384,0.401-0.693v-0.141c0-0.417-0.294-0.753-0.658-0.753H245.929"/>
	<path fill="#E5952A" d="M253.355,93.551c0-0.366-0.293-0.658-0.65-0.658h-2.303c-0.362,0-0.659,0.292-0.659,0.658v0.733
		c0,0.364,0.297,0.658,0.659,0.658h2.303c0.357,0,0.65-0.294,0.65-0.658V93.551z"/>
	<path fill="#AEC5D0" d="M110.166,38.483c0-2.455-3.277-2.95-3.277-2.95c-15.159,0-27.043,5.494-27.043,5.494
		s-13.521,5.407-14.177,11.716c-0.656,6.314,5.898,6.066,5.898,6.066h34.75c3.768,0,3.85-3.936,3.85-3.936V38.483"/>
	<path fill="none" stroke="#7C797A" stroke-width="0.463" stroke-miterlimit="10" d="M106.888,35.533
		c-15.159,0-27.043,5.494-27.043,5.494s-13.521,5.407-14.177,11.716c-0.656,6.314,5.898,6.066,5.898,6.066h34.75
		c3.768,0,3.85-3.936,3.85-3.936v-16.39C110.166,36.028,106.888,35.533,106.888,35.533z"/>
	<path fill="#AEC5D0" d="M115.044,55.179c0,3.005,4.263,3.114,4.263,3.114s40.261,0.111,44.525,0
		c4.258-0.109,2.844-4.259,2.844-4.259s-3.608-6.832-6.834-10.983c-3.225-4.151-10.979-5.464-16.114-6.119
		c-5.135-0.658-22.399-0.928-25.297-0.928c-2.893,0-3.386,3.058-3.386,3.058L115.044,55.179L115.044,55.179z"/>
	<path fill="none" stroke="#7C797A" stroke-width="0.463" stroke-miterlimit="10" d="M115.044,55.179
		c0,3.005,4.263,3.114,4.263,3.114s40.261,0.111,44.525,0c4.258-0.109,2.844-4.259,2.844-4.259s-3.608-6.832-6.834-10.983
		c-3.225-4.151-10.979-5.464-16.114-6.119c-5.135-0.658-22.399-0.928-25.297-0.928c-2.893,0-3.386,3.058-3.386,3.058L115.044,55.179
		L115.044,55.179z"/>
	
		<line fill="none" stroke="#7C797A" stroke-width="0.463" stroke-miterlimit="10" x1="150.721" y1="58.339" x2="146.346" y2="37.304"/>
	<rect x="87.893" y="102.427" fill="none" width="90.578" height="1.621"/>
	<path fill="#F4F2F2" d="M87.896,103.467v0.136c7.551,0.429,15.101,0.528,22.645,0.381c7.55-0.335,15.094-0.599,22.646-0.329
		c15.1,0.393,30.194,0.365,45.285-0.57v-0.134c-15.104-0.765-30.198-0.618-45.293-0.054c-7.546,0.357-15.094,0.174-22.644-0.071
		c-7.547-0.058-15.096,0.125-22.641,0.641L87.896,103.467L87.896,103.467z"/>
</g>
</svg>
